<svg width="53" height="64" viewBox="0 0 53 64" fill="none" xmlns="http://www.w3.org/2000/svg">
<path d="M46.375 30.3158H6.625V13.4737H46.375M41.4062 50.5263C40.0885 50.5263 38.8246 49.994 37.8928 49.0464C36.961 48.0989 36.4375 46.8137 36.4375 45.4737C36.4375 44.1336 36.961 42.8485 37.8928 41.9009C38.8246 40.9534 40.0885 40.4211 41.4062 40.4211C42.724 40.4211 43.9879 40.9534 44.9197 41.9009C45.8515 42.8485 46.375 44.1336 46.375 45.4737C46.375 46.8137 45.8515 48.0989 44.9197 49.0464C43.9879 49.994 42.724 50.5263 41.4062 50.5263ZM11.5938 50.5263C10.276 50.5263 9.01213 49.994 8.08031 49.0464C7.14849 48.0989 6.625 46.8137 6.625 45.4737C6.625 44.1336 7.14849 42.8485 8.08031 41.9009C9.01213 40.9534 10.276 40.4211 11.5938 40.4211C12.9115 40.4211 14.1754 40.9534 15.1072 41.9009C16.039 42.8485 16.5625 44.1336 16.5625 45.4737C16.5625 46.8137 16.039 48.0989 15.1072 49.0464C14.1754 49.994 12.9115 50.5263 11.5938 50.5263ZM0 47.1579C0 50.1221 1.29187 52.7832 3.3125 54.6358V60.6316C3.3125 61.5249 3.6615 62.3817 4.28271 63.0134C4.90392 63.6451 5.74647 64 6.625 64H9.9375C10.816 64 11.6586 63.6451 12.2798 63.0134C12.901 62.3817 13.25 61.5249 13.25 60.6316V57.2632H39.75V60.6316C39.75 61.5249 40.099 62.3817 40.7202 63.0134C41.3414 63.6451 42.184 64 43.0625 64H46.375C47.2535 64 48.0961 63.6451 48.7173 63.0134C49.3385 62.3817 49.6875 61.5249 49.6875 60.6316V54.6358C51.7081 52.7832 53 50.1221 53 47.1579V13.4737C53 1.68421 41.1413 0 26.5 0C11.8587 0 0 1.68421 0 13.4737V47.1579Z" fill="#3A556A"/>
</svg>
