<svg width="199" height="33" viewBox="0 0 199 33" fill="none" xmlns="http://www.w3.org/2000/svg">
<path d="M6.318 26V12.246H0.806V7.8H17.16V12.246H11.466V26H6.318ZM19.9006 26V21.788H23.0726V12.012H19.9006V7.8H31.3666V12.012H28.2206V21.788H31.3666V26H19.9006ZM43.7736 26.26C42.3523 26.26 41.0436 26.026 39.8476 25.558C38.6516 25.09 37.6116 24.44 36.7276 23.608C35.861 22.7587 35.185 21.762 34.6996 20.618C34.2316 19.4567 33.9976 18.1827 33.9976 16.796C33.9976 15.4267 34.2403 14.17 34.7256 13.026C35.2283 11.8647 35.9216 10.8593 36.8056 10.01C37.6896 9.16067 38.7383 8.502 39.9516 8.034C41.165 7.566 42.491 7.332 43.9296 7.332C44.7963 7.332 45.637 7.44467 46.4516 7.67C47.2836 7.878 48.0636 8.19 48.7916 8.606C49.5196 9.022 50.1696 9.542 50.7416 10.166L47.6476 13.754C47.353 13.4247 47.0236 13.13 46.6596 12.87C46.2956 12.61 45.8796 12.4107 45.4116 12.272C44.961 12.116 44.4583 12.038 43.9036 12.038C43.2623 12.038 42.6556 12.1507 42.0836 12.376C41.529 12.584 41.0436 12.896 40.6276 13.312C40.2116 13.728 39.8823 14.2307 39.6396 14.82C39.4143 15.4093 39.3016 16.0853 39.3016 16.848C39.3016 17.576 39.4143 18.2347 39.6396 18.824C39.8823 19.396 40.2203 19.89 40.6536 20.306C41.1043 20.7047 41.633 21.0167 42.2396 21.242C42.8636 21.4673 43.557 21.58 44.3196 21.58C44.857 21.58 45.3596 21.502 45.8276 21.346C46.313 21.19 46.755 20.982 47.1536 20.722C47.5523 20.462 47.9076 20.176 48.2196 19.864L50.6636 23.738C50.2303 24.2233 49.641 24.6567 48.8956 25.038C48.1676 25.4193 47.353 25.7227 46.4516 25.948C45.5676 26.156 44.675 26.26 43.7736 26.26ZM56.9601 20.774L55.3481 16.77L64.1621 7.8H70.0901L56.9601 20.774ZM53.3201 26V7.8H58.4681V26H53.3201ZM64.8381 26L58.1821 17.264L61.5621 14.352L70.7401 26H64.8381ZM72.617 26V7.8H85.851V12.038H77.557V21.762H86.241V26H72.617ZM75.061 18.772V14.768H84.811V18.772H75.061ZM93.9157 26V12.246H88.4037V7.8H104.758V12.246H99.0637V26H93.9157Z" fill="#27C277"/>
<path d="M109.422 26V7.8H117.456C118.704 7.8 119.762 7.982 120.628 8.346C121.495 8.69267 122.145 9.204 122.578 9.88C123.029 10.5387 123.254 11.336 123.254 12.272C123.254 13.312 122.994 14.1873 122.474 14.898C121.972 15.6087 121.235 16.0853 120.264 16.328L120.212 15.834C121.027 16.0073 121.729 16.3107 122.318 16.744C122.925 17.1773 123.393 17.7147 123.722 18.356C124.052 18.98 124.216 19.6907 124.216 20.488C124.216 21.4067 124.06 22.2127 123.748 22.906C123.436 23.582 122.986 24.154 122.396 24.622C121.807 25.09 121.114 25.4367 120.316 25.662C119.536 25.8873 118.67 26 117.716 26H109.422ZM113.582 22.308H117.56C118.046 22.308 118.453 22.23 118.782 22.074C119.129 21.918 119.398 21.6927 119.588 21.398C119.779 21.086 119.874 20.7133 119.874 20.28C119.874 19.8813 119.77 19.5433 119.562 19.266C119.372 18.9887 119.094 18.7807 118.73 18.642C118.366 18.486 117.933 18.408 117.43 18.408H113.582V22.308ZM113.582 15.106H116.832C117.283 15.106 117.664 15.0367 117.976 14.898C118.306 14.742 118.548 14.534 118.704 14.274C118.878 13.9967 118.964 13.6673 118.964 13.286C118.964 12.7313 118.774 12.298 118.392 11.986C118.011 11.6567 117.439 11.492 116.676 11.492H113.582V15.106ZM136.363 26.156C134.855 26.156 133.511 25.8527 132.333 25.246C131.154 24.622 130.227 23.7727 129.551 22.698C128.892 21.6233 128.563 20.3927 128.563 19.006V7.8H133.035V18.772C133.035 19.4307 133.182 20.0287 133.477 20.566C133.771 21.086 134.17 21.502 134.673 21.814C135.175 22.1087 135.739 22.256 136.363 22.256C137.021 22.256 137.602 22.1087 138.105 21.814C138.625 21.502 139.041 21.086 139.353 20.566C139.665 20.0287 139.821 19.4307 139.821 18.772V7.8H144.137V19.006C144.137 20.3927 143.799 21.6233 143.123 22.698C142.464 23.7727 141.545 24.622 140.367 25.246C139.188 25.8527 137.853 26.156 136.363 26.156ZM155.392 26.26C154.196 26.26 153.112 26.1213 152.142 25.844C151.188 25.5493 150.339 25.1333 149.594 24.596C148.848 24.0413 148.181 23.3913 147.592 22.646L150.27 19.604C151.136 20.7653 152.003 21.5453 152.87 21.944C153.754 22.3427 154.664 22.542 155.6 22.542C156.068 22.542 156.492 22.4813 156.874 22.36C157.255 22.2387 157.55 22.0653 157.758 21.84C157.966 21.5973 158.07 21.3027 158.07 20.956C158.07 20.696 158 20.462 157.862 20.254C157.74 20.046 157.567 19.864 157.342 19.708C157.116 19.552 156.848 19.4133 156.536 19.292C156.224 19.1533 155.894 19.0407 155.548 18.954C155.201 18.85 154.846 18.7633 154.482 18.694C153.476 18.4687 152.601 18.1913 151.856 17.862C151.11 17.5327 150.486 17.134 149.984 16.666C149.498 16.1807 149.134 15.6347 148.892 15.028C148.649 14.404 148.528 13.7107 148.528 12.948C148.528 12.1333 148.71 11.388 149.074 10.712C149.455 10.0187 149.958 9.42933 150.582 8.944C151.223 8.44133 151.96 8.06 152.792 7.8C153.624 7.52267 154.49 7.384 155.392 7.384C156.588 7.384 157.61 7.514 158.46 7.774C159.326 8.01667 160.063 8.372 160.67 8.84C161.294 9.308 161.822 9.87133 162.256 10.53L159.526 13.156C159.162 12.7053 158.763 12.3327 158.33 12.038C157.914 11.7433 157.463 11.518 156.978 11.362C156.51 11.206 156.024 11.128 155.522 11.128C155.002 11.128 154.551 11.1973 154.17 11.336C153.806 11.4573 153.52 11.6393 153.312 11.882C153.104 12.1073 153 12.3847 153 12.714C153 13.0087 153.086 13.26 153.26 13.468C153.433 13.676 153.667 13.8667 153.962 14.04C154.256 14.196 154.594 14.3347 154.976 14.456C155.357 14.56 155.756 14.6467 156.172 14.716C157.125 14.9067 157.983 15.158 158.746 15.47C159.526 15.782 160.193 16.1633 160.748 16.614C161.32 17.0647 161.753 17.602 162.048 18.226C162.36 18.8327 162.516 19.5433 162.516 20.358C162.516 21.6233 162.204 22.698 161.58 23.582C160.973 24.4487 160.132 25.116 159.058 25.584C158 26.0347 156.778 26.26 155.392 26.26Z" fill="black"/>
</svg>
