<svg width="35" height="31" viewBox="0 0 35 31" fill="none" xmlns="http://www.w3.org/2000/svg">
<path d="M13.1352 0.0325298C10.6261 0.0933399 8.07721 0.38979 7.07358 0.739447C5.46459 1.29434 4.19014 2.44973 3.73611 3.74194C3.6007 4.122 3.52105 4.24362 3.3936 4.26642C2.03153 4.51726 1.6731 4.69209 1.38634 5.26219C1.22704 5.58144 1.12349 5.68025 0.741153 5.86268C0.000377661 6.23515 -0.0235183 6.31116 0.008343 8.83477C0.032239 11.1912 0.0242737 11.1608 0.717257 11.5332C1.01197 11.6928 1.19518 11.7232 1.88816 11.746L2.70062 11.7765V9.35926C2.70062 8.02144 2.72452 6.69882 2.75638 6.41758C2.80417 5.86269 2.89179 5.75627 3.36174 5.64985L3.57681 5.60424L3.58477 15.121C3.58477 20.3583 3.61663 24.995 3.64849 25.4207C3.69629 26.0972 3.73611 26.2264 3.90339 26.4012C4.25386 26.7585 4.50875 26.8345 5.49645 26.8725L6.42043 26.9029L6.47618 27.6402C6.50008 28.0431 6.52398 28.598 6.52398 28.8717C6.52398 29.8066 6.89835 30.5211 7.56743 30.8404C7.83029 30.9696 8.03739 30.9924 9.12067 30.9924C10.5465 30.9924 10.8651 30.9088 11.2952 30.4071C11.6297 30.0194 11.7014 29.6394 11.7014 28.1875V26.8877H17.4285H23.1556L23.1954 28.2331C23.2352 29.7306 23.2989 30.027 23.6733 30.4375C24.1034 30.9088 24.438 31 25.7124 31C27.0745 31 27.2975 30.962 27.6639 30.6731C28.2374 30.2247 28.4286 29.5102 28.4286 27.7467V26.9029L29.5358 26.8725C30.7943 26.8497 30.9616 26.7813 31.2563 26.234C31.4076 25.9604 31.4156 25.7323 31.4634 22.8971C31.4953 21.2248 31.5192 16.7933 31.5271 13.0535C31.5351 9.31365 31.559 6.12113 31.5829 5.9615C31.6386 5.64985 31.7501 5.61185 32.021 5.82468L32.2121 5.9691L32.236 8.87278L32.2599 11.7841L33.1122 11.746C34.1557 11.708 34.5858 11.5332 34.8407 11.0391C34.9841 10.7579 35 10.5831 35 8.72075C35 6.33396 34.9841 6.25795 34.2433 5.87029C33.9008 5.68785 33.7654 5.55864 33.6379 5.30019C33.5423 5.11016 33.383 4.88212 33.2795 4.79091C33.0883 4.63128 32.4989 4.44125 31.8776 4.35004C31.4793 4.28923 31.4634 4.27402 31.1926 3.58991C30.643 2.23689 29.249 1.10431 27.5445 0.63303C26.6762 0.39739 24.669 0.146547 22.8131 0.0553322C21.5466 -0.00547791 15.4292 -0.0206795 13.1352 0.0325298ZM21.5784 2.38892C21.5784 2.76138 21.5386 3.11103 21.4988 3.17184C21.451 3.24786 21.212 3.30107 20.766 3.33907C19.9535 3.39988 14.9911 3.39988 14.1707 3.33147C13.6211 3.28586 13.5653 3.27066 13.4697 3.08063C13.398 2.9286 13.3821 2.70817 13.4219 2.2977L13.4777 1.72761H17.5241H21.5784V2.38892ZM29.1853 5.05695C29.3606 5.10256 29.4402 5.17857 29.4721 5.3458C29.5438 5.64985 29.5517 15.9039 29.48 16.284C29.4322 16.55 29.3765 16.6108 29.0658 16.7553C28.4206 17.0593 25.123 17.7434 22.8131 18.0627C21.5306 18.2375 18.8782 18.3743 16.6798 18.3743C13.8919 18.3743 9.74993 17.8118 6.76294 17.0289C5.49645 16.7021 5.43273 16.6641 5.369 16.1548C5.34511 15.9343 5.32918 13.3879 5.34511 10.4918C5.36104 6.30356 5.3929 5.20898 5.47255 5.13297C5.55221 5.05695 6.14961 5.01895 7.86215 4.98854C11.1678 4.92013 28.8986 4.97334 29.1853 5.05695ZM30.2288 20.8143C30.2606 21.3008 30.2606 21.7949 30.2288 21.9013C30.1332 22.2814 29.8703 22.3346 27.1621 22.517C25.1867 22.6538 25.2425 22.6538 25.2425 22.5246C25.2425 22.2282 28.6118 20.2138 29.6951 19.849C30.1173 19.7122 30.1651 19.7958 30.2288 20.8143ZM5.5761 19.9782C6.3806 20.2746 9.48707 22.0913 9.78179 22.4334C9.86941 22.5322 9.86145 22.5626 9.74197 22.6082C9.59859 22.6614 7.1612 22.5246 5.93454 22.3954C5.12208 22.3118 4.9787 22.251 4.80347 21.9393C4.68399 21.7037 4.68399 21.3084 4.8194 20.1758C4.87515 19.7578 4.94684 19.735 5.5761 19.9782ZM20.4633 24.615V25.147L17.6993 25.1242C16.17 25.109 14.8637 25.071 14.792 25.033C14.6805 24.9874 14.6486 24.8734 14.6486 24.5617V24.1513L17.54 24.1285C19.1251 24.1209 20.4314 24.1057 20.4474 24.0905C20.4553 24.0829 20.4633 24.3185 20.4633 24.615ZM6.06199 24.2805C6.27705 24.5237 6.28502 24.6758 6.10181 24.8658C5.83099 25.1622 5.56017 25.185 5.26546 24.9494C4.97074 24.7138 4.94684 24.5161 5.16987 24.3033C5.37697 24.1057 5.89472 24.0981 6.06199 24.2805Z" fill="black"/>
</svg>
