<svg width="30" height="30" viewBox="0 0 30 30" fill="none" xmlns="http://www.w3.org/2000/svg">
<g clip-path="url(#clip0_188_1536)">
<path d="M17.5449 15.0768C17.4365 14.8285 17.1473 14.7152 16.8991 14.8236C16.6508 14.9319 16.5375 15.2211 16.6458 15.4693C16.745 15.6963 16.7952 15.9377 16.7952 16.1865C16.7952 17.1765 15.9899 17.9818 14.9999 17.9818C14.0099 17.9818 13.2046 17.1765 13.2046 16.1865C13.2046 15.1966 14.01 14.3912 14.9999 14.3912C15.1613 14.3912 15.3227 14.4132 15.4795 14.4565C15.7405 14.5287 16.0107 14.3754 16.0829 14.1145C16.155 13.8534 16.0018 13.5832 15.7408 13.5111C15.4989 13.4442 15.2496 13.4103 14.9999 13.4103C13.469 13.4103 12.2236 14.6557 12.2236 16.1866C12.2236 17.7174 13.469 18.9629 14.9999 18.9629C16.5308 18.9629 17.7762 17.7174 17.7762 16.1866C17.7763 15.8017 17.6985 15.4284 17.5449 15.0768Z" fill="black"/>
<path d="M9.52796 18.0659C9.43485 17.8464 9.36302 17.6194 9.31444 17.391L8.78452 14.8981C8.73642 14.6715 8.53632 14.5096 8.30476 14.5096H4.08741C3.81653 14.5096 3.59692 14.7291 3.59692 15.0001C3.59692 17.3565 4.31329 19.6202 5.66845 21.5466C5.75177 21.665 5.88313 21.7405 6.02739 21.7531C6.04151 21.7543 6.05558 21.7548 6.06964 21.7548C6.19907 21.7548 6.32411 21.7035 6.41646 21.6112L9.42325 18.6044C9.56464 18.463 9.60601 18.25 9.52796 18.0659ZM6.14687 20.4934C5.20474 18.9825 4.67188 17.2717 4.58927 15.4905H7.90755L8.35485 17.595C8.39353 17.7767 8.44362 17.9575 8.50468 18.1355L6.14687 20.4934Z" fill="black"/>
<path d="M25.6067 4.39342C22.7735 1.56029 19.0067 0 15.0001 0C11.4921 0 8.07927 1.23697 5.39017 3.48316C5.18228 3.65678 5.1545 3.96609 5.32818 4.17393C5.50179 4.38187 5.81122 4.40959 6.01906 4.23592C8.53202 2.13697 11.7215 0.980977 15.0001 0.980977C18.7447 0.980977 22.2652 2.4392 24.913 5.08705C27.5609 7.7349 29.0191 11.2554 29.0191 15.0001C29.0191 19.6299 26.7344 23.9576 22.9076 26.5767C22.6841 26.7298 22.6269 27.035 22.7799 27.2586C22.875 27.3974 23.0287 27.4721 23.1851 27.4721C23.2805 27.4721 23.377 27.4443 23.4617 27.3863C27.5558 24.5841 30.0001 19.9537 30.0001 15C30.0001 10.9934 28.4398 7.22654 25.6067 4.39342Z" fill="black"/>
<path d="M21.8915 23.38L18.7504 20.2388C18.6189 20.1074 18.4243 20.0616 18.248 20.1204C17.8699 20.2469 17.4768 20.311 17.0796 20.311H12.9201C12.523 20.311 12.1299 20.2469 11.7517 20.1204C11.5754 20.0616 11.3809 20.1074 11.2494 20.2388L8.10826 23.38C8.00783 23.4804 7.9558 23.6195 7.96582 23.7613C7.97584 23.903 8.0468 24.0334 8.16029 24.1189C10.148 25.6133 12.5131 26.4033 14.9998 26.4033C17.4865 26.4033 19.8517 25.6134 21.8394 24.1189C21.953 24.0334 22.0239 23.903 22.0339 23.7613C22.0438 23.6195 21.9921 23.4804 21.8915 23.38ZM14.9999 25.4222C12.9173 25.4222 10.928 24.8158 9.21205 23.6634L11.7364 21.1389C12.123 21.2405 12.5198 21.2919 12.9202 21.2919H17.0797C17.4799 21.2919 17.8768 21.2406 18.2634 21.1389L20.7878 23.6634C19.0717 24.8158 17.0824 25.4222 14.9999 25.4222Z" fill="black"/>
<path d="M25.9127 14.5095H21.6954C21.4638 14.5095 21.2638 14.6715 21.2156 14.898L20.6856 17.3909C20.637 17.6194 20.5652 17.8465 20.4721 18.0658C20.394 18.2498 20.4354 18.4628 20.5768 18.6042L23.5836 21.611C23.676 21.7034 23.8009 21.7547 23.9304 21.7547C23.9445 21.7547 23.9586 21.7541 23.9727 21.7529C24.1169 21.7405 24.2483 21.6649 24.3316 21.5465C25.6868 19.6202 26.4031 17.3565 26.4031 15C26.4031 14.7291 26.1835 14.5095 25.9127 14.5095ZM23.8533 20.4933L21.4954 18.1355C21.5564 17.9576 21.6065 17.7767 21.6452 17.595L22.0926 15.4905H25.4109C25.3282 17.2717 24.7954 18.9825 23.8533 20.4933Z" fill="black"/>
<path d="M25.8261 11.4173C25.0778 9.16154 23.6642 7.22109 21.738 5.80564C19.7715 4.36066 17.4416 3.59683 15 3.59683C12.5584 3.59683 10.2285 4.36066 8.26193 5.8057C6.33578 7.22115 4.92221 9.16154 4.17385 11.4174C4.12428 11.5669 4.14953 11.7312 4.24176 11.8589C4.33399 11.9866 4.48188 12.0623 4.63943 12.0623H25.3605C25.5181 12.0623 25.666 11.9866 25.7582 11.8589C25.8504 11.7312 25.8757 11.5669 25.8261 11.4173ZM5.3425 11.0813C6.06789 9.29431 7.26801 7.75347 8.84289 6.59619C10.6398 5.27578 12.7688 4.57775 15 4.57775C17.2311 4.57775 19.3602 5.27572 21.1571 6.59619C22.732 7.75347 23.9321 9.29431 24.6575 11.0813H5.3425Z" fill="black"/>
<path d="M21.8747 27.7889C21.7544 27.5462 21.4602 27.447 21.2174 27.5673C19.2742 28.5306 17.1823 29.019 14.9999 29.019C11.2553 29.019 7.73484 27.5607 5.08699 24.9129C2.4392 22.2651 0.980977 18.7446 0.980977 15C0.980977 11.4917 2.28346 8.13433 4.64871 5.54612C4.83141 5.34614 4.81752 5.03589 4.61742 4.8532C4.41744 4.67032 4.10725 4.68444 3.92449 4.88437C1.39383 7.6538 0 11.2463 0 15C0 19.0066 1.56029 22.7734 4.39342 25.6066C7.22654 28.4397 10.9934 30 15 30C17.3348 30 19.5732 29.4772 21.6531 28.4462C21.8958 28.3259 21.995 28.0316 21.8747 27.7889Z" fill="black"/>
</g>
<defs>
<clipPath id="clip0_188_1536">
<rect width="30" height="30" fill="white"/>
</clipPath>
</defs>
</svg>
