<svg width="34" height="34" viewBox="0 0 34 34" fill="none" xmlns="http://www.w3.org/2000/svg">
<path d="M17 0C7.61135 0 0 7.61135 0 17C0 26.3888 7.61135 34.0001 17 34.0001C26.3887 34.0001 34 26.3888 34 17.0001C34.0001 7.61136 26.3888 0 17 0ZM6.57101 24.738C5.17812 22.7597 4.33174 20.1264 4.25351 17.7817H11.5288C11.2638 20.1264 8.79785 23.5132 6.57101 24.738ZM17 29.7661C14.5434 29.7661 12.2548 29.0673 10.3118 27.862C11.2911 26.495 12.4745 23.7735 17.3267 23.7735C22.0164 23.7735 23.1575 25.6596 24.3416 27.4283C22.2665 28.8985 19.7379 29.7661 17 29.7661ZM14.9483 18.1724C14.9483 16.9312 15.9543 15.9253 17.1954 15.9253C18.4367 15.9253 19.4425 16.9313 19.4425 18.1724C19.4425 19.4136 18.4366 20.4196 17.1954 20.4196C15.9543 20.4196 14.9483 19.4137 14.9483 18.1724ZM27.5845 24.4973C24.0954 23.0951 23.6445 20.1264 23.399 17.7817H29.7465C29.6715 20.1264 28.8805 22.5651 27.5845 24.4973ZM4.73576 13.8736C6.26466 8.40224 11.1708 4.62476 17 4.62476C22.8292 4.62476 27.7354 8.40232 29.2642 13.8736H4.73576Z" fill="#758796"/>
</svg>
