<svg width="40" height="40" viewBox="0 0 40 40" fill="none" xmlns="http://www.w3.org/2000/svg">
<g clip-path="url(#clip0_594_2149)">
<path d="M23.2316 13.2518C22.988 12.9121 22.5952 12.7104 22.1772 12.7104H22.049C21.4896 12.7104 20.9934 13.0688 20.8175 13.5998L18.0292 22.0139L15.228 13.598C15.0515 13.0681 14.5557 12.7104 13.997 12.7104H13.9138C13.9086 12.7104 13.9032 12.7108 13.8983 12.7108C13.8929 12.7108 13.8877 12.7104 13.8826 12.7104H13.7815C13.2221 12.7104 12.7258 13.0688 12.5498 13.5998L9.76168 22.0139L6.96056 13.598C6.78416 13.0681 6.28816 12.7104 5.72958 12.7104H5.60117C5.18294 12.7104 4.79034 12.9121 4.54659 13.2518C4.30284 13.5918 4.23823 14.0284 4.37241 14.4244L8.4357 26.4086C8.61423 26.9353 9.10841 27.2894 9.66456 27.2894H9.71823C9.73373 27.2894 9.74892 27.2886 9.76431 27.288C9.7796 27.2886 9.79489 27.2894 9.81028 27.2894H9.84613C10.4031 27.2894 10.8979 26.9338 11.0757 26.4062L13.8954 18.0341L16.7023 26.4044C16.8797 26.9331 17.3749 27.2894 17.9325 27.2894H17.9859C18.0014 27.2894 18.0166 27.2886 18.0321 27.288C18.0472 27.2886 18.0626 27.2894 18.078 27.2894H18.114C18.67 27.2894 19.1641 26.9353 19.3427 26.4086L23.406 14.4244C23.5401 14.0284 23.4752 13.5919 23.2316 13.2518Z" fill="#808393"/>
<path d="M35.2281 23.5237C34.7465 23.0765 34.0065 23.0601 33.5056 23.4854C32.6427 24.2179 31.5298 24.6214 30.3721 24.6214C27.7322 24.6214 25.5846 22.5444 25.5846 19.9914C25.5846 17.448 27.7322 15.3789 30.3721 15.3789C31.5409 15.3789 32.6528 15.7755 33.5034 16.4956C34.0185 16.9317 34.7818 16.9002 35.2592 16.4228L35.3024 16.3796C35.5601 16.1221 35.6973 15.7683 35.6812 15.4046C35.6649 15.0408 35.4967 14.7006 35.2174 14.467C33.8634 13.3345 32.1423 12.7107 30.372 12.7107C26.2608 12.7107 22.916 15.9768 22.916 19.9915C22.916 24.0157 26.2608 27.2897 30.372 27.2897C32.1395 27.2897 33.865 26.6612 35.2306 25.5196C35.5164 25.2806 35.6858 24.9305 35.6954 24.5582C35.7053 24.1857 35.5543 23.827 35.2815 23.5736L35.2281 23.5237Z" fill="#808393"/>
<path d="M31.6963 0H8.3037C3.72506 0 0 3.72496 0 8.3036V31.6953C0 36.2745 3.72506 40 8.3037 40H31.6963C36.275 40 40 36.2745 40 31.6953V8.3036C40 3.72496 36.275 0 31.6963 0ZM38.481 31.6953C38.481 35.437 35.4375 38.481 31.6963 38.481H8.3037C4.56263 38.481 1.51899 35.437 1.51899 31.6953V8.3036C1.51899 4.56253 4.56263 1.51899 8.3037 1.51899H31.6963C35.4375 1.51899 38.481 4.56253 38.481 8.3036V31.6953Z" fill="#808393"/>
</g>
<defs>
<clipPath id="clip0_594_2149">
<rect width="40" height="40" fill="white"/>
</clipPath>
</defs>
</svg>
