<svg width="17" height="21" viewBox="0 0 17 21" fill="none" xmlns="http://www.w3.org/2000/svg">
<path d="M5.20833 17.7135H11.4583V19.7969H5.20833C2.33333 19.7969 0 17.4635 0 14.5885V5.21354H2.08333V14.5885C2.08333 16.3177 3.47917 17.7135 5.20833 17.7135ZM6.6875 3.55729C7.5 2.74479 7.5 1.42188 6.6875 0.609375C5.875 -0.203125 4.55208 -0.203125 3.73958 0.609375C2.92708 1.42188 2.92708 2.74479 3.73958 3.55729C4.55208 4.38021 5.86458 4.38021 6.6875 3.55729ZM7.8125 7.29688C7.8125 6.15104 6.875 5.21354 5.72917 5.21354H5.20833C4.0625 5.21354 3.125 6.15104 3.125 7.29688V13.5469C3.125 15.276 4.52083 16.6719 6.25 16.6719H11.5312L15.1771 20.3177L16.6667 18.8281L11.3854 13.5469H7.8125V7.29688Z" fill="#3A556A"/>
</svg>
