<svg width="62" height="59" viewBox="0 0 62 59" fill="none" xmlns="http://www.w3.org/2000/svg">
<path d="M59.8999 26.0947C60.7122 26.8618 61.1398 27.772 61.1828 28.8253C61.2257 29.8787 60.876 30.8004 60.1336 31.5904L36.4349 56.6865C35.6888 57.4766 34.7886 57.8785 33.7344 57.8922C32.6802 57.9059 31.747 57.5311 30.9349 56.7678C30.1226 56.0007 29.694 55.0896 29.6492 54.0345C29.6043 52.9793 29.955 52.0585 30.7012 51.2721L51.7667 28.9644L28.8322 7.30694C28.0199 6.53991 27.5914 5.62881 27.5465 4.57364C27.5016 3.51848 27.8523 2.5977 28.5985 1.8113C29.3446 1.02124 30.2457 0.618405 31.3017 0.602799C32.3577 0.587199 33.29 0.96294 34.0986 1.73003L59.8999 26.0947ZM32.3999 26.5011C33.2122 27.2681 33.6398 28.1783 33.6827 29.2317C33.7257 30.285 33.3759 31.2067 32.6335 31.9967L8.93483 57.0928C8.18876 57.8829 7.2886 58.2848 6.23435 58.2985C5.18011 58.3123 4.24693 57.9375 3.43482 57.1741C2.62255 56.4071 2.19399 55.496 2.14913 54.4408C2.10428 53.3856 2.45496 52.4649 3.20119 51.6785L24.2667 29.3708L1.33213 7.71329C0.519866 6.94626 0.0913073 6.03516 0.0464493 4.97999C0.00159142 3.92483 0.352275 3.00405 1.0985 2.21765C1.84457 1.42759 2.74561 1.02475 3.80161 1.00915C4.85761 0.993546 5.78991 1.36929 6.59851 2.13638L32.3999 26.5011Z" fill="#3A556A"/>
</svg>
