<svg width="24" height="24" viewBox="0 0 24 24" fill="none" xmlns="http://www.w3.org/2000/svg">
<path d="M2.22678 4.87509H20.2502V2.41509C20.2502 2.30412 20.2256 2.19452 20.1781 2.09421C20.1307 1.9939 20.0615 1.90537 19.9757 1.83502C19.8899 1.76466 19.7895 1.71423 19.6818 1.68736C19.5741 1.66049 19.4618 1.65784 19.353 1.67962L2.10303 4.51462C1.97458 4.54019 1.85506 4.59895 1.75638 4.68506C1.65769 4.77116 1.58327 4.88161 1.54053 5.0054C1.759 4.91903 1.99185 4.87481 2.22678 4.87509Z" fill="#566E8D"/>
<path d="M21.7266 6H2.22656C2.02765 6 1.83688 6.07902 1.69623 6.21967C1.55558 6.36032 1.47656 6.55109 1.47656 6.75V20.25C1.47656 20.4489 1.55558 20.6397 1.69623 20.7803C1.83688 20.921 2.02765 21 2.22656 21H21.7266C21.9255 21 22.1162 20.921 22.2569 20.7803C22.3975 20.6397 22.4766 20.4489 22.4766 20.25V6.75C22.4766 6.55109 22.3975 6.36032 22.2569 6.21967C22.1162 6.07902 21.9255 6 21.7266 6ZM17.25 15C16.9533 15 16.6633 14.912 16.4166 14.7472C16.17 14.5824 15.9777 14.3481 15.8642 14.074C15.7506 13.7999 15.7209 13.4983 15.7788 13.2074C15.8367 12.9164 15.9796 12.6491 16.1893 12.4393C16.3991 12.2296 16.6664 12.0867 16.9574 12.0288C17.2483 11.9709 17.5499 12.0006 17.824 12.1142C18.0981 12.2277 18.3324 12.42 18.4972 12.6666C18.662 12.9133 18.75 13.2033 18.75 13.5C18.75 13.8978 18.592 14.2794 18.3107 14.5607C18.0294 14.842 17.6478 15 17.25 15Z" fill="#566E8D"/>
<path d="M1.46875 12.1641V5.4375C1.46875 4.85953 1.73687 4.57125 2.19156 4.5C3.84156 4.24078 7.28125 4.10156 7.28125 4.10156C7.28125 4.10156 6.89078 4.85156 6.00016 4.85156V6C6.86734 6 7.46875 7.10156 7.46875 7.10156L3.97656 11.0625L1.46875 12.1641Z" fill="#566E8D"/>
</svg>
