<svg width="19" height="22" viewBox="0 0 19 22" fill="none" xmlns="http://www.w3.org/2000/svg">
<g clip-path="url(#clip0_545_2618)">
<path d="M15.0488 1.96851C15.0797 1.60848 15.0015 1.24751 14.824 0.931338C14.6466 0.615166 14.378 0.358027 14.0521 0.192503C13.7263 0.0269793 13.3579 -0.0394782 12.9937 0.0015517C12.6295 0.0425816 12.2859 0.189252 12.0063 0.422978C11.7268 0.656703 11.5239 0.966964 11.4234 1.31444C11.323 1.66192 11.3294 2.03098 11.4419 2.37486C11.5545 2.71873 11.768 3.02194 12.0555 3.24606C12.3431 3.47019 12.6916 3.60514 13.057 3.63381C13.2988 3.65348 13.5421 3.626 13.773 3.55294C14.004 3.47988 14.2181 3.36267 14.403 3.20801C14.588 3.05336 14.7402 2.86428 14.851 2.6516C14.9618 2.43892 15.029 2.2068 15.0488 1.96851Z" fill="#486284"/>
<path d="M0.410107 19.8719L2.35869 20.654C2.42642 20.4425 2.54239 20.2491 2.69771 20.0886C2.85303 19.9282 3.04356 19.8049 3.25471 19.7282C3.43938 19.662 3.63604 19.6344 3.83213 19.6472C4.02823 19.66 4.21946 19.713 4.39363 19.8027L7.89136 11.3326C7.9309 11.2676 7.96174 11.1979 7.98312 11.1251L8.13965 10.7314L9.04107 8.5766L10.3365 7.54443L8.35556 16.1955L5.96977 20.1326C5.88455 20.2996 5.82801 20.4794 5.80244 20.6646C5.77761 20.9432 5.8499 21.2217 6.00736 21.4543C6.16482 21.6869 6.39805 21.8597 6.66853 21.944C6.93901 22.0283 7.23058 22.0192 7.49509 21.9181C7.75961 21.8171 7.98126 21.6302 8.12346 21.3882L10.682 17.1319C10.7838 16.9638 10.867 16.7854 10.9303 16.5998L11.551 13.7959L14.2175 16.6796L15.0595 20.9998C15.1187 21.258 15.2591 21.4912 15.4607 21.6661C15.6623 21.841 15.9149 21.9485 16.1823 21.9735C16.3457 21.9888 16.5106 21.9717 16.6672 21.9232C16.8238 21.8748 16.969 21.7959 17.0943 21.6913C17.2195 21.5867 17.3223 21.4584 17.3965 21.3141C17.4706 21.1698 17.5148 21.0123 17.5263 20.8508C17.5207 20.7658 17.5207 20.6805 17.5263 20.5955L16.6357 15.9933C16.6072 15.8549 16.5561 15.7219 16.4845 15.5996L13.2081 11.7848L14.0394 8.14564L14.7411 9.50767C14.787 9.60369 14.8555 9.68757 14.9408 9.75241L17.7152 11.6412C17.8333 11.7025 17.9611 11.7439 18.0931 11.7635C18.3154 11.7798 18.5352 11.709 18.7049 11.5666C18.8746 11.4242 18.9806 11.2216 18.9999 11.0027C19.0084 10.8672 18.9845 10.7316 18.9301 10.6068C18.8757 10.4821 18.7924 10.3717 18.6868 10.2845L16.1445 8.56596L14.2607 4.91614C14.1266 4.68828 13.9447 4.49134 13.727 4.33853C13.5093 4.18573 13.261 4.0806 12.9988 4.0302C12.7365 3.97981 12.4663 3.98531 12.2063 4.04635C11.9464 4.10739 11.7027 4.22255 11.4916 4.38409L7.77801 7.36354C7.65228 7.46411 7.56321 7.60232 7.52431 7.75725L6.32602 10.7899C6.32379 10.8253 6.32379 10.8609 6.32602 10.8963C6.30893 11.0975 6.3678 11.2978 6.49132 11.4588C6.61483 11.6198 6.79431 11.7302 6.99534 11.7689L6.16408 13.78L3.46522 12.6787C3.31382 12.6228 3.14702 12.6228 2.99562 12.6787C2.88471 12.7167 2.78367 12.7784 2.69971 12.8593C2.61574 12.9402 2.55091 13.0384 2.50982 13.1469L0.0646527 18.8823C-0.0213413 19.0589 -0.033305 19.2617 0.0313523 19.447C0.0960096 19.6322 0.232083 19.7848 0.410107 19.8719Z" fill="#486284"/>
<path d="M3.68115 21.8456C4.17303 21.8456 4.57178 21.4526 4.57178 20.9677C4.57178 20.4829 4.17303 20.0898 3.68115 20.0898C3.18927 20.0898 2.79053 20.4829 2.79053 20.9677C2.79053 21.4526 3.18927 21.8456 3.68115 21.8456Z" fill="#486284"/>
</g>
<defs>
<clipPath id="clip0_545_2618">
<rect width="19" height="22" fill="white"/>
</clipPath>
</defs>
</svg>
