<svg width="20" height="20" viewBox="0 0 20 20" fill="none" xmlns="http://www.w3.org/2000/svg">
<path d="M18.1818 0H1.81818C0.818182 0 0 0.818182 0 1.81818V18.1818C0 19.1818 0.818182 20 1.81818 20H18.1818C19.1818 20 20 19.1818 20 18.1818V1.81818C20 0.818182 19.1818 0 18.1818 0ZM3.63636 4.54545C3.63636 4.27273 3.81818 4.09091 4.09091 4.09091H8.63636C8.90909 4.09091 9.09091 4.27273 9.09091 4.54545V9.09091C9.09091 9.36364 8.90909 9.54545 8.63636 9.54545H4.09091C3.81818 9.54545 3.63636 9.36364 3.63636 9.09091V4.54545ZM14.5455 16.3636C14.5455 16.6364 14.3636 16.8182 14.0909 16.8182H4.09091C3.81818 16.8182 3.63636 16.6364 3.63636 16.3636V15.4545C3.63636 15.1818 3.81818 15 4.09091 15H14.0909C14.3636 15 14.5455 15.1818 14.5455 15.4545V16.3636ZM16.3636 12.7273C16.3636 13 16.1818 13.1818 15.9091 13.1818H4.09091C3.81818 13.1818 3.63636 13 3.63636 12.7273V11.8182C3.63636 11.5455 3.81818 11.3636 4.09091 11.3636H15.9091C16.1818 11.3636 16.3636 11.5455 16.3636 11.8182V12.7273ZM16.3636 9.09091C16.3636 9.36364 16.1818 9.54545 15.9091 9.54545H11.3636C11.0909 9.54545 10.9091 9.36364 10.9091 9.09091V8.18182C10.9091 7.90909 11.0909 7.72727 11.3636 7.72727H15.9091C16.1818 7.72727 16.3636 7.90909 16.3636 8.18182V9.09091ZM16.3636 5.45455C16.3636 5.72727 16.1818 5.90909 15.9091 5.90909H11.3636C11.0909 5.90909 10.9091 5.72727 10.9091 5.45455V4.54545C10.9091 4.27273 11.0909 4.09091 11.3636 4.09091H15.9091C16.1818 4.09091 16.3636 4.27273 16.3636 4.54545V5.45455Z" fill="#566E8D"/>
</svg>
