<svg width="17" height="20" viewBox="0 0 17 20" fill="none" xmlns="http://www.w3.org/2000/svg">
<path d="M14.7503 9.45825H2.25033V4.24992H14.7503M13.1878 15.7083C12.7734 15.7083 12.376 15.5436 12.083 15.2506C11.7899 14.9576 11.6253 14.5602 11.6253 14.1458C11.6253 13.7314 11.7899 13.3339 12.083 13.0409C12.376 12.7479 12.7734 12.5833 13.1878 12.5833C13.6022 12.5833 13.9997 12.7479 14.2927 13.0409C14.5857 13.3339 14.7503 13.7314 14.7503 14.1458C14.7503 14.5602 14.5857 14.9576 14.2927 15.2506C13.9997 15.5436 13.6022 15.7083 13.1878 15.7083ZM3.81283 15.7083C3.39842 15.7083 3.001 15.5436 2.70797 15.2506C2.41495 14.9576 2.25033 14.5602 2.25033 14.1458C2.25033 13.7314 2.41495 13.3339 2.70797 13.0409C3.001 12.7479 3.39842 12.5833 3.81283 12.5833C4.22723 12.5833 4.62465 12.7479 4.91768 13.0409C5.21071 13.3339 5.37533 13.7314 5.37533 14.1458C5.37533 14.5602 5.21071 14.9576 4.91768 15.2506C4.62465 15.5436 4.22723 15.7083 3.81283 15.7083ZM0.166992 14.6666C0.166992 15.5833 0.573242 16.4062 1.20866 16.9791V18.8333C1.20866 19.1095 1.31841 19.3745 1.51376 19.5698C1.70911 19.7652 1.97406 19.8749 2.25033 19.8749H3.29199C3.56826 19.8749 3.83321 19.7652 4.02856 19.5698C4.22391 19.3745 4.33366 19.1095 4.33366 18.8333V17.7916H12.667V18.8333C12.667 19.1095 12.7767 19.3745 12.9721 19.5698C13.1674 19.7652 13.4324 19.8749 13.7087 19.8749H14.7503C15.0266 19.8749 15.2915 19.7652 15.4869 19.5698C15.6822 19.3745 15.792 19.1095 15.792 18.8333V16.9791C16.4274 16.4062 16.8337 15.5833 16.8337 14.6666V4.24992C16.8337 0.604085 13.1045 0.083252 8.50033 0.083252C3.89616 0.083252 0.166992 0.604085 0.166992 4.24992V14.6666Z" fill="#3A556A"/>
</svg>
