<svg width="127" height="31" viewBox="0 0 127 31" fill="none" xmlns="http://www.w3.org/2000/svg">
<g clip-path="url(#clip0_677_3913)">
<path d="M23.1624 0.579346C10.6109 0.579346 0.429688 6.87575 0.429688 14.6386C0.429688 22.4014 10.6109 29.3079 23.1624 29.3079C35.7139 29.3079 45.8952 22.4065 45.8952 14.6386C45.8952 6.87062 35.7246 0.579346 23.1624 0.579346Z" fill="#00B1EA"/>
<path d="M15.7758 10.2906C15.7758 10.2906 15.5425 10.5315 15.6856 10.711C16.0356 11.1468 17.1227 11.3929 18.2203 11.1571C18.8726 11.0135 19.7157 10.3726 20.5217 9.74706C21.3038 9.06518 22.2005 8.51725 23.1731 8.12681C23.7901 7.90804 24.4641 7.89003 25.0927 8.07553C25.7299 8.3069 26.3216 8.64156 26.8425 9.06512C28.3644 10.1726 34.4944 15.341 35.5549 16.2434C38.8107 14.9269 42.1828 13.8973 45.6301 13.167C45.1793 10.5162 43.509 7.98325 40.9955 5.98871C37.4639 7.42437 32.8611 8.28064 28.6402 6.29122C27.2071 5.66443 25.6577 5.32433 24.0851 5.29138C20.7391 5.36829 19.2862 6.76806 17.7537 8.24986L15.7758 10.2906Z" fill="white"/>
<path d="M35.2736 16.8075C35.1994 16.746 28.0725 10.7111 26.4499 9.53692C25.8871 9.0538 25.1937 8.73547 24.4508 8.61912C24.1298 8.59601 23.8071 8.62548 23.4963 8.7063C22.5418 9.05438 21.6586 9.56298 20.8874 10.2086C19.9859 10.9059 19.1322 11.5622 18.3421 11.7468C17.3869 11.9379 16.3926 11.7944 15.5369 11.3418C15.3339 11.2175 15.172 11.0396 15.0703 10.829C15.0122 10.6728 15.0039 10.5033 15.0465 10.3424C15.089 10.1816 15.1804 10.0367 15.3089 9.92661L17.2815 7.87567L17.9762 7.21423C17.3701 7.30363 16.7712 7.43385 16.1839 7.60392C15.498 7.82337 14.7844 7.95102 14.0628 7.98334C13.3503 7.91233 12.6422 7.8045 11.9417 7.66031C9.83763 7.18346 7.78379 6.51919 5.80646 5.67603C3.00662 7.69108 1.18248 10.1625 0.641602 12.9364C1.04461 13.0389 2.09455 13.2696 2.37029 13.3312C8.70173 14.695 10.6743 16.0948 11.0349 16.4076C11.2451 16.1789 11.5061 15.9992 11.7983 15.882C12.0906 15.7648 12.4065 15.7131 12.7224 15.7309C13.0382 15.7486 13.3458 15.8354 13.6221 15.9845C13.8983 16.1337 14.136 16.3415 14.3173 16.5922C14.746 16.2599 15.2791 16.079 15.8286 16.0794C16.1357 16.0835 16.44 16.1355 16.73 16.2333C17.0125 16.3192 17.2724 16.4632 17.492 16.6552C17.7117 16.8472 17.8859 17.0828 18.0027 17.3459C18.2795 17.2259 18.5796 17.1647 18.8829 17.1664C19.2488 17.1701 19.6098 17.2469 19.9435 17.392C20.4049 17.5996 20.7797 17.9528 21.0061 18.3935C21.2326 18.8342 21.2973 19.3363 21.1896 19.8173C21.2726 19.8119 21.3559 19.8119 21.4388 19.8173C21.8751 19.8155 22.3044 19.9237 22.6842 20.1314C23.0639 20.339 23.3811 20.6389 23.6044 21.0013C23.8277 21.3637 23.9494 21.7762 23.9574 22.198C23.9654 22.6198 23.8595 23.0363 23.6501 23.4064C24.3051 23.7936 25.062 23.9895 25.8295 23.9704C26.0215 23.97 26.2113 23.9316 26.3873 23.8576C26.5633 23.7835 26.7218 23.6753 26.8529 23.5397C26.9166 23.4526 26.9855 23.3552 26.9219 23.2834L25.1348 21.3657C25.1348 21.3657 24.8379 21.0991 24.9386 20.9914C25.0394 20.8838 25.225 21.0376 25.3469 21.1401C26.2537 21.8785 27.362 22.9809 27.362 22.9809C27.362 22.9809 27.4521 23.1347 27.8923 23.2065C28.1382 23.248 28.3903 23.2413 28.6336 23.1867C28.8768 23.1321 29.1062 23.0307 29.3081 22.8886C29.4207 22.7943 29.5253 22.6914 29.6209 22.5809C29.7469 22.4135 29.8103 22.2096 29.8007 22.0028C29.7911 21.796 29.709 21.5984 29.5679 21.4426L27.4415 19.1559C27.4415 19.1559 27.1393 18.8892 27.2453 18.7815C27.3514 18.6739 27.5317 18.8328 27.6589 18.9354C28.3165 19.4481 29.2498 20.3762 30.1459 21.2222C30.4435 21.4173 30.7974 21.5159 31.1567 21.504C31.516 21.492 31.8621 21.37 32.145 21.1555C32.3768 21.0321 32.5685 20.8487 32.6986 20.626C32.8288 20.4032 32.8923 20.1499 32.8821 19.8942C32.8348 19.5737 32.678 19.2777 32.4367 19.0533L29.5838 16.2845C29.5838 16.2845 29.2816 16.0384 29.3929 15.9102C29.5043 15.782 29.6793 15.9564 29.8012 16.0589C30.708 16.7973 33.1632 18.9713 33.1632 18.9713C33.4521 19.1516 33.7901 19.2445 34.1339 19.2381C34.4778 19.2317 34.8118 19.1263 35.0933 18.9354C35.2742 18.8324 35.4265 18.6886 35.5374 18.5162C35.6482 18.3439 35.7142 18.1482 35.7297 17.9458C35.7487 17.735 35.7175 17.5228 35.6384 17.3254C35.5593 17.1281 35.4346 16.9509 35.2736 16.8075Z" fill="white"/>
<path d="M21.4547 20.3146C21.12 20.358 20.7899 20.43 20.4684 20.53C20.4366 20.53 20.4949 20.3402 20.5373 20.2377C20.5798 20.1351 21.1631 18.4483 19.7419 17.8586C19.4243 17.6937 19.0601 17.6325 18.7036 17.6843C18.3471 17.736 18.0175 17.8979 17.764 18.1457C17.7057 18.2073 17.6792 18.2021 17.6739 18.1457C17.6612 17.8305 17.5486 17.5265 17.3513 17.2752C17.154 17.0239 16.8816 16.8374 16.5709 16.7408C16.1288 16.6054 15.6529 16.6138 15.2162 16.7647C14.7795 16.9157 14.406 17.2008 14.1529 17.5766C14.1065 17.2443 13.9457 16.9369 13.6965 16.7038C13.4473 16.4707 13.1242 16.3256 12.7792 16.2918C12.4342 16.258 12.0875 16.3375 11.795 16.5176C11.5026 16.6976 11.2813 16.9676 11.1669 17.2841C11.0526 17.6006 11.0518 17.9451 11.1647 18.2621C11.2776 18.5791 11.4976 18.8501 11.7893 19.0314C12.0809 19.2126 12.4272 19.2937 12.7723 19.2614C13.1174 19.2291 13.4412 19.0853 13.6915 18.8533C13.6915 18.8533 13.6915 18.8533 13.6915 18.9046C13.5863 19.3685 13.6576 19.8536 13.8923 20.2708C14.1271 20.688 14.5095 21.0094 14.9695 21.176C15.2182 21.2682 15.4876 21.2959 15.7509 21.2564C16.0141 21.2168 16.2621 21.1113 16.4702 20.9504C16.5974 20.8684 16.6133 20.8991 16.5974 21.0171C16.5444 21.3606 16.5974 22.1092 17.6898 22.5296C17.9568 22.6559 18.2588 22.6956 18.5511 22.643C18.8433 22.5903 19.1103 22.4481 19.3124 22.2374C19.4503 22.1143 19.4874 22.1348 19.4927 22.3245C19.5114 22.694 19.6417 23.0502 19.8675 23.3488C20.0933 23.6475 20.4047 23.8756 20.7632 24.0049C21.1216 24.1342 21.5114 24.1591 21.8844 24.0764C22.2573 23.9937 22.597 23.8071 22.8614 23.5397C23.1258 23.2723 23.3033 22.9358 23.372 22.5719C23.4407 22.2079 23.3975 21.8325 23.2478 21.492C23.0981 21.1515 22.8485 20.861 22.5298 20.6563C22.2111 20.4516 21.8373 20.3417 21.4547 20.3402V20.3146Z" fill="white"/>
<path d="M23.1623 0C10.3721 0 0 6.5784 0 14.6489V15.5C0 24.0627 9.06764 30.9949 23.1623 30.9949C37.347 30.9949 46.3245 24.0627 46.3245 15.5V14.6437C46.3245 6.5784 35.9524 0 23.1623 0ZM45.2799 13.0235C41.9414 13.7431 38.6827 14.7734 35.5494 16.0999C33.3488 14.2438 28.2741 9.97784 26.9007 8.97801C26.3671 8.53858 25.7589 8.19165 25.103 7.95254C24.8181 7.86607 24.5214 7.82114 24.2228 7.81922C23.8425 7.82327 23.4652 7.88379 23.1039 7.99868C22.1305 8.38301 21.2334 8.92776 20.4526 9.60868L20.4049 9.63944C19.6094 10.2547 18.7822 10.8854 18.1565 11.0238C17.885 11.0828 17.6075 11.112 17.3293 11.111C17.0463 11.131 16.7621 11.096 16.4934 11.0079C16.2247 10.9198 15.977 10.7805 15.765 10.5983C15.7279 10.547 15.765 10.4701 15.8445 10.3624L17.7747 8.34734C19.2913 6.88091 20.7177 5.50166 24.0107 5.42475H24.1751C25.6694 5.48547 27.138 5.82133 28.5021 6.41433C30.3422 7.31565 32.3731 7.79298 34.4358 7.80897C36.6754 7.77238 38.8797 7.26315 40.8945 6.31691C43.2489 8.21916 44.8026 10.5213 45.2799 13.0235ZM23.1623 0.861408C29.9497 0.861408 36.0266 2.74314 40.1309 5.70675C38.3474 6.49143 36.4162 6.91376 34.457 6.94758C32.5394 6.93232 30.651 6.49204 28.9369 5.66061C27.4556 5.00626 25.8556 4.64038 24.2281 4.58386H24.0425C22.0821 4.55369 20.1764 5.20919 18.6762 6.42971C17.7646 6.4756 16.8629 6.63413 15.993 6.90143C15.3826 7.09914 14.7478 7.2181 14.1052 7.25522C13.8613 7.25522 13.4318 7.25522 13.3894 7.25522C11.0795 6.86162 8.81375 6.25555 6.62308 5.44527C10.685 2.63035 16.5922 0.866525 23.1623 0.866525V0.861408ZM5.80648 5.98876C8.62752 7.1014 12.0584 7.97305 13.1454 8.03971C13.4477 8.03971 13.7711 8.0961 14.0946 8.0961C14.8166 8.0631 15.5304 7.93369 16.2157 7.71155C16.624 7.60387 17.08 7.48082 17.5573 7.39366C17.43 7.51671 17.3028 7.63464 17.1755 7.76283L15.2082 9.81377C15.0643 9.94037 14.9624 10.1053 14.9152 10.2877C14.8681 10.4702 14.8777 10.6621 14.943 10.8392C15.0614 11.069 15.2455 11.2612 15.4733 11.393C16.1086 11.7397 16.8279 11.9167 17.5573 11.9057C17.8353 11.9075 18.1127 11.8799 18.3845 11.8237C19.2064 11.6494 20.0708 10.9777 20.9881 10.2855C21.7454 9.654 22.6102 9.15438 23.544 8.80881C23.7776 8.74852 24.0182 8.71749 24.2599 8.71651C24.3199 8.71078 24.3803 8.71078 24.4402 8.71651C25.1589 8.83307 25.8295 9.14217 26.3757 9.60868C27.9665 10.7777 35.1252 16.8126 35.1888 16.8741C35.3315 17.0056 35.4432 17.1653 35.5164 17.3422C35.5896 17.5192 35.6226 17.7093 35.613 17.8996C35.5994 18.0794 35.5406 18.2532 35.4417 18.406C35.3428 18.5588 35.2069 18.6859 35.0456 18.7764C34.7673 18.9557 34.4415 19.0536 34.1071 19.0584C33.8142 19.0592 33.5272 18.9792 33.2798 18.8277C33.2533 18.8277 30.8088 16.6434 29.9126 15.9102C29.8011 15.795 29.6542 15.7177 29.4937 15.6897C29.4586 15.6903 29.424 15.6978 29.392 15.712C29.3601 15.7261 29.3315 15.7464 29.3081 15.7718C29.1649 15.941 29.3081 16.1717 29.5149 16.3255L32.3731 19.0994C32.5867 19.3002 32.7264 19.5632 32.7708 19.848C32.7794 20.0803 32.721 20.3103 32.6021 20.5122C32.4831 20.7142 32.3083 20.8801 32.0973 20.9914C31.8002 21.1937 31.4477 21.3061 31.0845 21.3144C30.795 21.3156 30.5121 21.2315 30.2732 21.0734L29.8649 20.6838C29.1172 19.9711 28.343 19.2327 27.7756 18.7764C27.662 18.6622 27.5132 18.5866 27.3514 18.561C27.3174 18.5604 27.2836 18.5669 27.2525 18.5802C27.2213 18.5935 27.1935 18.6132 27.1711 18.6379C27.1075 18.7097 27.0651 18.8277 27.2241 19.0379C27.2674 19.0929 27.3152 19.1444 27.3673 19.1917L29.4513 21.4529C29.5731 21.5845 29.6444 21.7527 29.6531 21.9292C29.6618 22.1057 29.6074 22.2797 29.499 22.4219L29.4248 22.5091C29.3611 22.5758 29.2922 22.6373 29.2339 22.6886C28.9385 22.8967 28.5812 23.0065 28.2157 23.0013C28.1205 23.0103 28.0246 23.0103 27.9294 23.0013C27.7786 22.9904 27.6355 22.9328 27.5211 22.8373L27.4946 22.8116C27.3832 22.6988 26.328 21.6631 25.4636 20.9606C25.357 20.8495 25.2153 20.7756 25.0606 20.7504C25.0254 20.7503 24.9906 20.7576 24.9585 20.7718C24.9265 20.7859 24.898 20.8066 24.875 20.8325C24.7053 21.0119 24.9599 21.2888 25.0712 21.3862L26.8476 23.2833C26.8329 23.3251 26.8094 23.3635 26.7787 23.3961C26.7151 23.4782 26.503 23.6884 25.8507 23.7704C25.7713 23.7759 25.6915 23.7759 25.6121 23.7704C24.9997 23.7288 24.4051 23.5535 23.8728 23.2577C24.0616 22.8677 24.1458 22.438 24.1176 22.0083C24.0894 21.5785 23.9497 21.1626 23.7114 20.7988C23.4731 20.4351 23.1439 20.1352 22.7541 19.9269C22.3644 19.7186 21.9266 19.6086 21.4813 19.607H21.3858C21.4505 19.1232 21.3525 18.6321 21.1061 18.2064C20.8597 17.7807 20.4781 17.443 20.0177 17.2433C19.6686 17.0932 19.2916 17.013 18.9095 17.0074C18.6323 17.0073 18.3574 17.056 18.0982 17.151C17.8292 16.6444 17.3642 16.2611 16.8043 16.0845C16.4978 15.9794 16.175 15.9257 15.8498 15.9256C15.3166 15.9218 14.7962 16.0836 14.3651 16.387C14.1555 16.134 13.8901 15.9294 13.5882 15.7884C13.2864 15.6473 12.9557 15.5733 12.6205 15.5718C12.0254 15.5732 11.4545 15.7996 11.0296 16.2024C10.4994 15.7974 8.28284 14.4438 2.40744 13.1517C2.1317 13.0902 1.49536 12.9158 1.08705 12.7979C1.64914 10.2496 3.32481 7.92177 5.80648 6.00926V5.98876ZM16.6982 20.7761L16.6346 20.7197H16.571C16.5048 20.7254 16.4419 20.7504 16.3907 20.7914C16.1375 20.9793 15.8295 21.0852 15.5104 21.094C15.3434 21.0919 15.1781 21.0606 15.0226 21.0017C14.5905 20.8462 14.2317 20.544 14.0131 20.1515C13.7945 19.759 13.7311 19.3031 13.8348 18.8687C13.8411 18.8372 13.839 18.8047 13.8288 18.7743C13.8186 18.7438 13.8006 18.7163 13.7765 18.6944L13.681 18.6174L13.5909 18.6995C13.3629 18.915 13.0663 19.0499 12.7492 19.0822C12.4321 19.1145 12.113 19.0423 11.8436 18.8774C11.5741 18.7124 11.3702 18.4644 11.2648 18.1734C11.1593 17.8824 11.1586 17.5655 11.2626 17.2741C11.3666 16.9826 11.5693 16.7337 11.838 16.5675C12.1066 16.4014 12.4253 16.3277 12.7426 16.3586C13.0599 16.3894 13.3571 16.5229 13.5861 16.7375C13.8151 16.952 13.9625 17.235 14.0045 17.5407L14.0575 17.9099L14.2696 17.5971C14.4541 17.3365 14.6996 17.1217 14.9862 16.9702C15.2728 16.8187 15.5923 16.7349 15.9187 16.7255C16.1273 16.7273 16.3345 16.7584 16.5339 16.8177C16.8189 16.9043 17.0688 17.075 17.2485 17.3057C17.4282 17.5365 17.5288 17.8159 17.5361 18.1047C17.5361 18.279 17.6846 18.2893 17.7058 18.2893C17.7375 18.2872 17.7684 18.2788 17.7967 18.2647C17.825 18.2506 17.85 18.231 17.8702 18.2072C18.0072 18.0701 18.1723 17.9619 18.3548 17.8895C18.5374 17.8171 18.7335 17.7822 18.9307 17.7868C19.1999 17.7899 19.4655 17.8475 19.7102 17.956C21.0412 18.5098 20.4367 20.1403 20.4314 20.1608C20.32 20.4274 20.3094 20.5504 20.4314 20.6222H20.4844H20.5215C20.6095 20.6136 20.6955 20.5911 20.776 20.5556C21.0029 20.4681 21.2428 20.4162 21.4866 20.4018C21.9673 20.4071 22.4267 20.5941 22.7666 20.9228C23.1065 21.2514 23.2999 21.6957 23.3054 22.1604C23.316 22.6255 23.135 23.0756 22.8024 23.4117C22.4697 23.7477 22.0127 23.9422 21.5317 23.9524C21.0507 23.9626 20.5852 23.7877 20.2377 23.466C19.8901 23.1444 19.6889 22.7024 19.6784 22.2374C19.6784 22.1553 19.6784 21.94 19.4822 21.94C19.3971 21.9491 19.3181 21.9873 19.2595 22.0476C19.0277 22.2866 18.7072 22.4267 18.3686 22.4373C18.1677 22.4338 17.9695 22.392 17.7853 22.3143C16.7513 21.9092 16.7248 21.2221 16.7778 20.9453C16.7768 20.9163 16.7691 20.888 16.7554 20.8622C16.7416 20.8365 16.7221 20.8141 16.6982 20.7966V20.7761ZM23.1623 28.4004C10.86 28.4004 0.890852 22.2476 0.890852 14.6181C0.890852 14.3105 0.890855 14.0079 0.943882 13.7054L2.22184 13.9977C8.21921 15.2898 10.1759 16.628 10.5365 16.8793C10.3916 17.2093 10.3333 17.5688 10.3665 17.9259C10.3998 18.283 10.5237 18.6267 10.7272 18.9264C10.9307 19.2261 11.2075 19.4727 11.5331 19.6442C11.8588 19.8156 12.2232 19.9068 12.5939 19.9095C12.7327 19.9111 12.8713 19.8991 13.0076 19.8736C13.0986 20.3039 13.3025 20.7044 13.5997 21.0366C13.8968 21.3688 14.2772 21.6216 14.7044 21.7708C14.9596 21.8676 15.231 21.9179 15.5051 21.9194C15.6838 21.9194 15.8618 21.8987 16.0354 21.8579C16.2413 22.2779 16.5632 22.6346 16.9656 22.8889C17.368 23.1431 17.8351 23.285 18.3156 23.2987C18.5512 23.2992 18.785 23.2575 19.0049 23.1757C19.1725 23.5673 19.4378 23.9127 19.7772 24.1809C20.1165 24.449 20.5194 24.6317 20.9497 24.7125C21.3799 24.7932 21.8242 24.7696 22.2427 24.6437C22.6612 24.5178 23.0409 24.2935 23.3478 23.9909C24.0314 24.3764 24.8006 24.598 25.5909 24.637C25.7039 24.6452 25.8173 24.6452 25.9303 24.637C26.222 24.6279 26.5084 24.5593 26.7707 24.4356C27.033 24.3118 27.2652 24.1358 27.4521 23.9191C27.4886 23.8725 27.5205 23.8227 27.5476 23.7704C27.7813 23.8399 28.0243 23.8762 28.2688 23.8781C28.7961 23.8638 29.3043 23.6838 29.7164 23.3654C30.1534 23.0865 30.4614 22.6545 30.5755 22.1604C30.734 22.1938 30.8957 22.211 31.058 22.2117C31.5904 22.2053 32.1089 22.0465 32.5481 21.7554C32.8821 21.5692 33.1574 21.2985 33.3443 20.9724C33.5311 20.6462 33.6225 20.277 33.6086 19.9044C33.7707 19.9377 33.936 19.9549 34.1018 19.9557C34.6003 19.9525 35.0871 19.8081 35.5017 19.5404C35.7787 19.3775 36.0113 19.1528 36.1801 18.8852C36.3489 18.6176 36.449 18.3148 36.4721 18.0022C36.5046 17.5694 36.3971 17.1376 36.1645 16.7665C39.1604 15.5826 42.2539 14.6444 45.4125 13.9618C45.4125 14.1874 45.439 14.4181 45.439 14.6489C45.439 22.2527 35.4646 28.4209 23.1623 28.4209V28.4004Z" fill="#2D3277"/>
<path d="M125.738 4.50183C124.895 3.47636 123.617 2.96362 121.909 2.96362C120.202 2.96362 118.924 3.47636 118.081 4.50183C117.263 5.54287 116.82 6.81431 116.82 8.12174C116.82 9.42917 117.263 10.7006 118.081 11.7417C118.922 12.7466 120.198 13.2474 121.909 13.244C123.622 13.244 124.895 12.7313 125.738 11.7417C126.556 10.7006 126.999 9.42917 126.999 8.12174C126.999 6.81431 126.556 5.54287 125.738 4.50183ZM123.654 10.3727C123.437 10.6191 123.168 10.817 122.864 10.9528C122.561 11.0886 122.23 11.1589 121.896 11.1589C121.562 11.1589 121.231 11.0886 120.928 10.9528C120.624 10.817 120.355 10.6191 120.138 10.3727C119.736 9.69275 119.524 8.92301 119.524 8.13969C119.524 7.35637 119.736 6.58665 120.138 5.90674C120.356 5.66184 120.625 5.4653 120.929 5.33055C121.232 5.19581 121.562 5.12604 121.896 5.12604C122.23 5.12604 122.56 5.19581 122.863 5.33055C123.167 5.4653 123.436 5.66184 123.654 5.90674C124.104 6.56569 124.32 7.34876 124.269 8.13714C124.318 8.92687 124.102 9.71075 123.654 10.3727Z" fill="#2D3277"/>
<path d="M104.241 3.65073C103.33 3.21979 102.327 3.00533 101.314 3.02519C99.6273 3.02519 98.4342 3.45588 97.7395 4.3019C97.2806 4.90911 97.0235 5.63693 97.0024 6.38873H99.5265C99.5685 6.06534 99.6964 5.75796 99.8977 5.49656C100.072 5.33267 100.282 5.2078 100.512 5.13073C100.742 5.05366 100.987 5.02626 101.229 5.05049C101.665 5.02819 102.101 5.10548 102.501 5.27609C102.647 5.35871 102.764 5.47994 102.841 5.62537C102.917 5.7708 102.948 5.93431 102.931 6.09647C102.928 6.25826 102.872 6.41495 102.771 6.54396C102.67 6.67297 102.529 6.76763 102.369 6.8143C102.027 6.93397 101.67 7.00814 101.308 7.03477L100.412 7.13732C99.6079 7.2016 98.8235 7.41208 98.1001 7.75773C97.6369 8.01235 97.2571 8.38772 97.0039 8.84102C96.7508 9.29432 96.6345 9.80728 96.6683 10.3214C96.6432 10.7179 96.7101 11.1148 96.8643 11.483C97.0184 11.8512 97.2559 12.1814 97.5592 12.4493C98.198 12.9444 98.9942 13.2107 99.8129 13.203C105.524 13.4491 105.455 10.2958 105.503 9.61383V5.98367C105.513 4.85223 105.093 4.07459 104.241 3.65073ZM102.91 9.1575C102.942 9.48581 102.891 9.81681 102.761 10.1216C102.63 10.4264 102.425 10.6957 102.162 10.9059C101.696 11.2209 101.14 11.3875 100.571 11.3828C100.238 11.3914 99.9119 11.2881 99.6485 11.0905C99.5149 10.973 99.4113 10.827 99.346 10.6642C99.2807 10.5014 99.2553 10.3261 99.272 10.1522C99.2599 9.93513 99.3118 9.71919 99.4216 9.52949C99.5314 9.33979 99.6947 9.18413 99.8924 9.0806C100.271 8.90284 100.678 8.78677 101.096 8.73706L101.69 8.6345C101.928 8.59408 102.162 8.5358 102.39 8.46018C102.575 8.39807 102.753 8.3173 102.92 8.21919L102.91 9.1575Z" fill="#2D3277"/>
<path d="M91.2277 5.18378C91.4971 5.1635 91.7676 5.20494 92.0172 5.30471C92.2669 5.40449 92.4888 5.55981 92.6647 5.75804C92.877 6.04678 93.0135 6.38112 93.0624 6.73223H95.8729C95.7191 5.3581 95.2206 4.39928 94.3828 3.86091C93.4101 3.28491 92.2825 3.00117 91.1429 3.04566C90.4681 3.01025 89.7934 3.11505 89.1641 3.35296C88.5348 3.59088 87.9655 3.95639 87.4946 4.42492C86.6143 5.34785 86.1724 6.63481 86.1689 8.28582C86.1048 9.58317 86.5308 10.8588 87.3673 11.875C88.1627 12.7928 89.4142 13.2542 91.0792 13.2542C92.7443 13.2542 94.0487 12.7056 94.9131 11.6032C95.4276 10.9793 95.7427 10.2238 95.8199 9.42923H93.0147C92.9807 9.88086 92.8091 10.3126 92.5216 10.67C92.345 10.8435 92.1304 10.9764 91.8936 11.0589C91.6568 11.1415 91.4039 11.1715 91.1535 11.1469C90.75 11.1718 90.3494 11.0672 90.0138 10.8493C89.6782 10.6314 89.4264 10.3124 89.2975 9.94196C89.0963 9.39631 89.0045 8.81857 89.0271 8.23968C89.0045 7.63396 89.0961 7.02933 89.2975 6.45535C89.4242 6.06423 89.6837 5.7259 90.034 5.49513C90.3843 5.26436 90.8049 5.15465 91.2277 5.18378Z" fill="#2D3277"/>
<path d="M85.4268 3.06104C79.6468 3.06104 79.9862 8.00895 79.9862 8.00895V13.0338H82.5898V8.32171C82.5556 7.73445 82.6589 7.1473 82.8921 6.60404C83.2456 5.94432 83.9526 5.61446 85.0131 5.61446H85.326C85.4586 5.61446 85.5964 5.61447 85.7714 5.65036V3.08668H85.5434L85.4268 3.06104Z" fill="#2D3277"/>
<path d="M77.8863 4.93253C77.4629 4.30805 76.8655 3.81211 76.163 3.50199C75.4247 3.19489 74.628 3.04116 73.8245 3.05078C73.167 3.02601 72.5113 3.1315 71.8976 3.36075C71.2839 3.59001 70.7252 3.93819 70.2557 4.38389C69.3401 5.27264 68.8823 6.55276 68.8823 8.22428C68.8823 10.0086 69.3896 11.2956 70.4042 12.0852C71.3937 12.8671 72.6368 13.2865 73.9146 13.2696C74.6072 13.3095 75.3005 13.2046 75.9475 12.9622C76.5944 12.7198 77.1797 12.3455 77.6636 11.8647C78.0895 11.4601 78.4016 10.9571 78.5704 10.4034H75.7865C75.6876 10.5473 75.5679 10.6768 75.4312 10.788C75.0049 11.0778 74.487 11.2138 73.9676 11.1725C73.4783 11.2003 72.9913 11.0879 72.5677 10.8495C72.2259 10.6309 71.9485 10.3304 71.7626 9.97722C71.5767 9.62405 71.4887 9.23031 71.5072 8.83444H78.7666C78.788 8.19578 78.7596 7.55647 78.6817 6.92193C78.5755 6.20918 78.3036 5.529 77.8863 4.93253ZM71.5708 7.17318C71.6328 6.61716 71.8761 6.09461 72.2655 5.68112C72.4713 5.49096 72.7156 5.34404 72.9829 5.24962C73.2503 5.1552 73.535 5.11532 73.8191 5.13248C74.3816 5.11153 74.9319 5.29438 75.3622 5.64522C75.5811 5.84173 75.7557 6.07973 75.8752 6.34438C75.9947 6.60903 76.0566 6.89465 76.0569 7.18343L71.5708 7.17318Z" fill="#2D3277"/>
<path d="M63.6696 3.02509C63.1015 3.02021 62.5395 3.13832 62.0248 3.37077C61.51 3.60322 61.0556 3.94411 60.6948 4.36845C60.3381 3.93824 59.8838 3.59327 59.367 3.3603C58.8501 3.12733 58.2848 3.01263 57.7147 3.02509C55.1535 3.02509 53.499 4.8453 53.499 7.25516V13.0337H55.8958V7.19875C55.8809 6.96212 55.9173 6.72509 56.0028 6.50292C56.0884 6.28075 56.2211 6.07835 56.3924 5.9088C56.5638 5.73925 56.77 5.60629 56.9977 5.51849C57.2254 5.43069 57.4697 5.39 57.7147 5.39904C59.3055 5.39904 59.4593 6.6655 59.4593 7.19875V13.0337H61.8561V7.19875C61.8427 6.9625 61.8803 6.72615 61.9664 6.50469C62.0526 6.28323 62.1853 6.08149 62.3563 5.91228C62.5274 5.74306 62.7329 5.61007 62.9599 5.52172C63.1869 5.43336 63.4304 5.39158 63.6749 5.39904C63.9185 5.38661 64.1619 5.42542 64.3885 5.51278C64.615 5.60014 64.8193 5.73398 64.9871 5.90506C65.155 6.07615 65.2825 6.28042 65.3608 6.50377C65.4391 6.72711 65.4664 6.96422 65.4407 7.19875V13.0337H67.8376V7.25516C67.8269 4.76839 66.2839 3.02509 63.6696 3.02509Z" fill="#2D3277"/>
<path d="M113.345 1.7894V4.50689C113.068 4.06112 112.675 3.6934 112.205 3.44041C111.719 3.18003 111.17 3.04744 110.614 3.05586C110.013 3.03598 109.416 3.15327 108.871 3.39824C108.325 3.64321 107.847 4.00898 107.475 4.46588C106.632 5.61531 106.217 7.00706 106.298 8.41394C106.253 9.68314 106.684 10.9253 107.512 11.9108C108.308 12.8183 109.872 13.2183 111.256 13.2183C116.092 13.2183 116.028 9.2138 116.028 9.2138V-0.0154395C116.028 -0.0154395 113.345 -0.261543 113.345 1.7894ZM112.815 10.3726C112.628 10.6327 112.376 10.8423 112.081 10.9814C111.787 11.1205 111.461 11.1845 111.134 11.1673C110.818 11.179 110.505 11.112 110.223 10.9728C109.942 10.8337 109.702 10.627 109.527 10.3726C109.139 9.70092 108.955 8.93645 108.997 8.16783C108.974 7.44991 109.158 6.73993 109.527 6.11689C109.702 5.84401 109.951 5.62214 110.246 5.47495C110.541 5.32777 110.872 5.26079 111.203 5.28113C111.686 5.2746 112.156 5.43865 112.523 5.74259C113.138 6.25532 113.451 7.15774 113.451 8.34216C113.476 9.06217 113.268 9.77177 112.857 10.3726H112.815Z" fill="#2D3277"/>
<path d="M59.0406 16.91C56.8824 16.8126 55.7848 17.3099 55.0742 17.8329C54.0932 18.5559 53.4834 19.6275 53.4834 21.34V30.1591H54.7561C55.099 30.1632 55.4315 30.0445 55.6893 29.8258C55.8226 29.7115 55.9289 29.5709 56.0012 29.4134C56.0734 29.256 56.1099 29.0854 56.1082 28.9131V25.6163C56.3889 26.1092 56.818 26.508 57.3385 26.7597C57.8723 26.9881 58.4517 27.1002 59.0353 27.0878C59.6095 27.0981 60.178 26.9766 60.6942 26.7332C61.2104 26.4899 61.6596 26.1317 62.0049 25.688C62.8185 24.5996 63.226 23.2763 63.1609 21.9348C63.2299 20.6034 62.788 19.2942 61.92 18.2585C61.5619 17.8542 61.1214 17.5257 60.6259 17.2936C60.1304 17.0616 59.5907 16.931 59.0406 16.91ZM59.9315 24.1447C59.7551 24.3927 59.5168 24.5937 59.2388 24.729C58.9607 24.8644 58.6518 24.9297 58.3407 24.9189C58.0191 24.9349 57.6985 24.8723 57.4085 24.737C57.1184 24.6017 56.8682 24.398 56.681 24.1447C56.2502 23.5283 56.0466 22.7896 56.1029 22.0476C56.0383 21.2756 56.2236 20.5033 56.6332 19.8377C56.8142 19.588 57.0571 19.3863 57.3397 19.251C57.6223 19.1157 57.9355 19.0512 58.2505 19.0635C58.5722 19.0476 58.8927 19.1101 59.1828 19.2454C59.4728 19.3807 59.723 19.5844 59.9103 19.8377C60.3369 20.4979 60.539 21.2707 60.4883 22.0476C60.5376 22.7861 60.3425 23.5205 59.9315 24.1447Z" fill="#2D3277"/>
<path d="M81.5718 17.8227C80.6137 17.1061 79.4112 16.7656 78.2046 16.869C76.6138 16.9152 75.4578 17.3407 74.7419 18.2842C73.9848 19.3714 73.6127 20.6668 73.6814 21.9759C73.629 23.0793 73.9109 24.1734 74.4927 25.124C74.9524 25.8502 75.6344 26.4201 76.4441 26.7546C77.1683 27.0489 77.9703 27.1135 78.7349 26.9391C79.1148 26.8558 79.4733 26.6988 79.7887 26.4776C80.1041 26.2564 80.3697 25.9755 80.5696 25.6522V26.2675C80.5725 26.9017 80.3683 27.5208 79.9863 28.0364C79.7025 28.3915 79.3024 28.6428 78.8515 28.7491C78.4288 28.834 77.989 28.7817 77.6001 28.6004C77.1998 28.4469 76.8652 28.1667 76.6509 27.8057H73.8829C74.5987 29.8874 75.882 30.8052 78.1993 30.9692C81.9112 31.2256 83.1255 28.1697 83.1255 26.5187V21.3503C83.1202 19.6378 82.5475 18.5354 81.5718 17.8227ZM80.4689 22.9142C80.4158 23.3694 80.2463 23.8046 79.9757 24.1806C79.4985 24.8164 78.7508 25.042 77.7433 24.8626C76.7357 24.6831 76.2267 23.7397 76.2267 22.0528C76.212 21.3293 76.3679 20.6121 76.6827 19.9557C76.8425 19.6493 77.0951 19.3973 77.4068 19.2333C77.7185 19.0693 78.0745 19.0011 78.4273 19.0379C78.705 19.0224 78.9823 19.0749 79.2335 19.1905C79.4847 19.3061 79.7016 19.4811 79.8643 19.6993C80.1979 20.1463 80.4128 20.6657 80.4901 21.2119C80.5788 21.7767 80.5716 22.3516 80.4689 22.9142Z" fill="#2D3277"/>
<path d="M71.4172 17.551C70.5066 17.121 69.5033 16.9066 68.4901 16.9255C66.8038 16.9255 65.6125 17.351 64.916 18.2022C64.4581 18.808 64.2011 19.5338 64.179 20.2839H66.6818C66.7234 19.9635 66.8515 19.6594 67.053 19.402C67.2277 19.2381 67.4374 19.1132 67.6673 19.0361C67.8973 18.9591 68.1419 18.9317 68.384 18.9559C68.8207 18.933 69.2568 19.0103 69.6567 19.1815C69.802 19.2641 69.9197 19.3853 69.9959 19.5308C70.072 19.6762 70.1034 19.8397 70.0862 20.0019C70.0832 20.1637 70.0271 20.3204 69.9261 20.4494C69.8251 20.5784 69.6843 20.673 69.5241 20.7197C69.1818 20.8368 68.8254 20.9109 68.4635 20.9402L67.5727 21.0427C66.769 21.1097 65.9852 21.3201 65.2607 21.6631C64.7976 21.9178 64.4177 22.2931 64.1646 22.7464C63.9114 23.1997 63.7951 23.7127 63.829 24.2268C63.8038 24.6233 63.8708 25.0202 64.0249 25.3884C64.1791 25.7566 64.4165 26.0868 64.7198 26.3547C65.3586 26.8498 66.1548 27.1161 66.9735 27.1084C72.6739 27.3545 72.6156 24.2012 72.6633 23.5193V19.8891C72.681 18.7611 72.2656 17.9817 71.4172 17.551ZM70.0862 23.0578C70.1186 23.3861 70.0675 23.7171 69.9371 24.0219C69.8068 24.3266 69.6013 24.5959 69.3385 24.8062C68.8724 25.1211 68.3163 25.2878 67.7477 25.283C67.4144 25.2917 67.0884 25.1884 66.825 24.9908C66.6904 24.874 66.5862 24.7282 66.5208 24.5652C66.4554 24.4021 66.4306 24.2265 66.4485 24.0525C66.4364 23.8354 66.4883 23.6195 66.5982 23.4298C66.708 23.2401 66.8712 23.0844 67.0689 22.9809C67.4463 22.8037 67.8511 22.6876 68.2674 22.6373L68.8613 22.5348C69.0995 22.497 69.3337 22.4387 69.5612 22.3605C69.7462 22.2983 69.9239 22.2176 70.0915 22.1195V23.0629L70.0862 23.0578Z" fill="#2D3277"/>
<path d="M93.0519 18.3662C92.2088 17.3407 90.9308 16.828 89.2181 16.828C87.5053 16.828 86.2326 17.3407 85.3895 18.3662C84.5711 19.4061 84.1279 20.6768 84.1279 21.9836C84.1279 23.2903 84.5711 24.561 85.3895 25.6009C86.2326 26.6008 87.5106 27.1032 89.2181 27.1032C90.9255 27.1032 92.2035 26.5905 93.0519 25.6009C93.8703 24.561 94.3135 23.2903 94.3135 21.9836C94.3135 20.6768 93.8703 19.4061 93.0519 18.3662ZM90.968 24.2165C90.7514 24.463 90.4821 24.6609 90.1785 24.7967C89.875 24.9324 89.5445 25.0027 89.2101 25.0027C88.8757 25.0027 88.5452 24.9324 88.2417 24.7967C87.9382 24.6609 87.6688 24.463 87.4523 24.2165C87.0463 23.5387 86.8325 22.7694 86.8325 21.9861C86.8325 21.2029 87.0463 20.4335 87.4523 19.7557C87.6698 19.5108 87.9395 19.3143 88.2429 19.1795C88.5463 19.0448 88.8762 18.975 89.2101 18.975C89.544 18.975 89.8739 19.0448 90.1773 19.1795C90.4807 19.3143 90.7504 19.5108 90.968 19.7557C91.4185 20.4147 91.6345 21.1977 91.5831 21.9861C91.6284 22.7739 91.4129 23.5552 90.968 24.2165Z" fill="#2D3277"/>
</g>
<defs>
<clipPath id="clip0_677_3913">
<rect width="127" height="31" fill="white"/>
</clipPath>
</defs>
</svg>
