<svg width="57" height="36" viewBox="0 0 57 36" fill="none" xmlns="http://www.w3.org/2000/svg">
<rect width="57" height="36" fill="#F5F5F5"/>
<g clip-path="url(#clip0_47_990)">
<rect width="1440" height="879" transform="translate(-1286 -362)" fill="#EFF0F0"/>
<rect x="-1286" y="-362" width="1440" height="879" fill="#EFF0F0"/>
<rect x="-218" y="-29" width="304" height="95" rx="10" fill="#DEE5ED"/>
<g clip-path="url(#clip1_47_990)">
<path d="M57 3.23999H0V32.04H57V3.23999Z" fill="#F6F6F6"/>
<path fill-rule="evenodd" clip-rule="evenodd" d="M52.725 3.64128e-07C49.875 6.35921e-07 19.7009 -5.77146e-07 2.85 3.64128e-07C1.425 4.43727e-07 0 1.44 0 2.88V7.2H57C57 7.2 57 13.8859 57 4.32C57 1.44 55.575 3.64128e-07 52.725 3.64128e-07Z" fill="#265697"/>
<path fill-rule="evenodd" clip-rule="evenodd" d="M0 28.8C0 28.8 3.4427e-07 28.8 0 31.68C-1.64887e-07 34.56 1.425 36 4.275 36C20.172 36 49.875 36 52.725 36C55.575 36 57 34.56 57 31.68V28.8H0Z" fill="#D97B16"/>
<path fill-rule="evenodd" clip-rule="evenodd" d="M39.7629 10.7215C38.964 10.412 37.7123 10.08 36.149 10.08C32.1647 10.08 29.3582 12.1518 29.3342 15.121C29.3118 17.3159 31.3379 18.5402 32.8674 19.271C34.4369 20.0197 34.9645 20.4972 34.957 21.1658C34.9471 22.1897 33.7036 22.6575 32.5447 22.6575C30.9308 22.6575 30.0734 22.4259 28.7491 21.8556L28.2295 21.6129L27.6636 25.0324C28.6053 25.4587 30.3469 25.8282 32.1552 25.8473C36.3937 25.8473 39.1453 23.7993 39.1766 20.6285C39.1918 18.8908 38.1174 17.5685 35.7912 16.4783C34.3818 15.7717 33.5187 15.3001 33.5278 14.5846C33.5278 13.9497 34.2584 13.2707 35.837 13.2707C37.1555 13.2496 38.1106 13.5465 38.8549 13.856L39.2162 14.0322L39.7629 10.7215Z" fill="#265697"/>
<path fill-rule="evenodd" clip-rule="evenodd" d="M50.1023 10.3601H46.9866C46.0214 10.3601 45.2991 10.6321 44.8752 11.6268L38.8867 25.6256H43.1209C43.1209 25.6256 43.8132 23.7433 43.9697 23.3301C44.4324 23.3301 48.5458 23.3367 49.1338 23.3367C49.2544 23.8714 49.6244 25.6256 49.6244 25.6256H53.3659L50.1023 10.3601ZM45.1302 20.2057C45.4636 19.3256 46.7367 15.9356 46.7367 15.9356C46.7129 15.9763 47.0677 15.0512 47.2713 14.4777L47.5438 15.7947C47.5438 15.7947 48.3159 19.441 48.4773 20.2056L45.1302 20.2057Z" fill="#265697"/>
<path fill-rule="evenodd" clip-rule="evenodd" d="M21.1079 25.6207L23.6289 10.3455H27.6612L25.1384 25.6207H21.1079Z" fill="#265697"/>
<path fill-rule="evenodd" clip-rule="evenodd" d="M17.7257 10.3566L13.778 20.7731L13.3574 18.6563C12.6225 16.216 10.3327 13.5722 7.77295 12.2485L11.3826 25.6074L15.6488 25.6025L21.9968 10.3566H17.7257Z" fill="#265697"/>
<path fill-rule="evenodd" clip-rule="evenodd" d="M10.1159 10.3472H3.61396L3.5625 10.665C8.62096 11.9294 11.9681 14.9849 13.3575 18.6563L11.9437 11.6368C11.6996 10.6695 10.9917 10.3809 10.1159 10.3472Z" fill="#D97B16"/>
</g>
</g>
<rect x="-1487" y="-627" width="1838" height="1293" stroke="#27C277" stroke-width="10"/>
<defs>
<clipPath id="clip0_47_990">
<rect width="1440" height="879" fill="white" transform="translate(-1286 -362)"/>
</clipPath>
<clipPath id="clip1_47_990">
<rect width="57" height="36" fill="white"/>
</clipPath>
</defs>
</svg>
