<svg width="61" height="80" viewBox="0 0 61 80" fill="none" xmlns="http://www.w3.org/2000/svg">
<path d="M33.6342 6.75432H44.592C45.0128 6.72698 45.4342 6.79574 45.8282 6.95604C46.2222 7.11633 46.5797 7.36448 46.877 7.68397C47.1743 8.00346 47.4046 8.38697 47.5525 8.80898C47.7003 9.23099 47.7625 9.68182 47.7347 10.1315C47.7347 12.713 47.7347 15.2945 47.7347 17.876C47.7347 18.4241 47.867 18.6363 48.4045 18.6186C49.0245 18.5787 49.6398 18.7555 50.1575 19.1223C50.6752 19.4891 51.0672 20.026 51.2743 20.652C51.5372 21.2412 51.713 21.8705 51.7953 22.5174C51.9192 23.3247 51.7656 24.1527 51.3627 24.8483C50.9598 25.5438 50.335 26.06 49.6037 26.3012L49.1902 26.4692C47.5362 27.1853 47.8339 26.6549 47.7677 28.6706C47.7677 29.254 47.958 29.4309 48.4624 29.3867C49.0752 29.2864 49.7017 29.4055 50.2446 29.7252C50.7875 30.045 51.2164 30.5476 51.4645 31.1548C51.7486 31.8084 51.8958 32.5205 51.8958 33.2412C51.8958 33.962 51.7486 34.674 51.4645 35.3276C51.3725 35.5048 51.3243 35.7041 51.3243 35.9067C51.3243 36.1093 51.3725 36.3086 51.4645 36.4858C51.7604 37.1546 51.9139 37.8853 51.9139 38.6252C51.9139 39.3652 51.7604 40.0959 51.4645 40.7647C51.3693 40.9294 51.3189 41.1192 51.3189 41.3128C51.3189 41.5064 51.3693 41.6962 51.4645 41.861C51.858 42.7068 51.9992 43.6614 51.8691 44.5957C51.7389 45.5301 51.3437 46.3993 50.7367 47.0859C50.4324 47.3637 50.0778 47.5714 49.695 47.6961C49.3123 47.8209 48.9096 47.8599 48.5121 47.8108C47.9745 47.7578 47.7512 47.9434 47.7843 48.5534C47.7843 49.4375 47.7843 50.3216 47.7843 51.2056C47.7694 52.0228 47.4585 52.802 46.9171 53.3791C46.3757 53.9562 45.646 54.2863 44.8815 54.2999H22.329C21.9424 54.293 21.5608 54.2047 21.2061 54.0402C20.8513 53.8756 20.5304 53.6379 20.2616 53.3407C19.9928 53.0435 19.7814 52.6926 19.6395 52.3081C19.4976 51.9235 19.4279 51.5129 19.4345 51.0996C19.4345 37.3728 19.4345 23.6372 19.4345 9.89279C19.4378 9.47715 19.5175 9.06627 19.6693 8.6836C19.8211 8.30093 20.042 7.95398 20.3192 7.66254C20.5964 7.3711 20.9246 7.14089 21.2851 6.98506C21.6456 6.82923 22.0312 6.75082 22.42 6.75432H33.6342ZM21.502 30.5183V50.2508C21.502 51.683 21.7997 52.019 23.1147 52.019H40.3164C41.6562 52.019 43.0042 52.019 44.3439 52.019C44.5126 52.0436 44.6843 52.0263 44.8457 51.9685C45.0072 51.9107 45.154 51.8139 45.2747 51.6857C45.3955 51.5574 45.487 51.4011 45.5422 51.229C45.5973 51.0568 45.6146 50.8734 45.5927 50.6929C45.5927 49.9945 45.5927 49.296 45.5927 48.6065C45.6455 48.3319 45.6056 48.0461 45.4799 47.8001C45.3542 47.554 45.151 47.3636 44.9063 47.2627C44.5564 47.0845 44.2673 46.794 44.0793 46.4316C43.7061 45.7282 43.4976 44.9387 43.4717 44.1305C43.4458 43.3223 43.6032 42.5193 43.9304 41.7902C44.0379 41.4985 44.1785 41.2952 44.0131 40.9062C43.6505 40.1845 43.4607 39.3781 43.4607 38.5589C43.4607 37.7398 43.6505 36.9333 44.0131 36.2117C44.1041 36.0172 44.1951 35.8404 44.0545 35.6459C43.4177 34.7618 43.5417 33.7009 43.5252 32.6754C43.4965 32.0989 43.6201 31.5254 43.8818 31.0204C44.1436 30.5154 44.533 30.0994 45.0055 29.8199C45.1898 29.7226 45.3412 29.5666 45.439 29.3734C45.5368 29.1802 45.576 28.9593 45.5514 28.7413C45.5514 22.7296 45.5514 16.7149 45.5514 10.6973C45.5514 9.32698 45.2454 8.99103 43.947 8.99103H23.156C21.8742 8.99103 21.5682 9.32698 21.5682 10.7592L21.502 30.5183ZM47.652 34.7707C47.9249 34.7707 48.1978 34.7707 48.479 34.7707C49.306 34.7088 49.6368 34.2668 49.6451 33.2147C49.6533 32.1627 49.3225 31.6941 48.4955 31.6499C48.0324 31.6499 47.5693 31.6499 47.1144 31.6499C46.0724 31.6499 45.7085 32.0477 45.7002 33.144C45.7002 34.4082 46.031 34.7795 47.2219 34.7884L47.652 34.7707ZM47.652 40.1547C47.9414 40.1547 48.2391 40.1547 48.5286 40.1547C49.3556 40.084 49.6285 39.6331 49.6368 38.6076C49.6451 37.582 49.3308 37.0958 48.5534 37.0428C47.9475 37.003 47.3399 37.003 46.734 37.0428C46.4871 37.0423 46.2494 37.1427 46.0695 37.3235C45.8896 37.5043 45.7812 37.7518 45.7664 38.0152C45.5927 39.4474 45.7664 40.305 47.3708 40.1989C47.47 40.1459 47.5775 40.1547 47.685 40.1547H47.652ZM47.7843 42.4356C47.4452 42.4356 47.1061 42.4356 46.7753 42.4356C46.0062 42.5152 45.7168 42.9749 45.725 44.027C45.7333 45.079 46.031 45.4857 46.7919 45.5387C47.3976 45.5829 48.0055 45.5829 48.6113 45.5387C48.8862 45.5295 49.1466 45.4044 49.3356 45.1907C49.5246 44.9771 49.6269 44.6922 49.6202 44.3983C49.7856 42.9219 49.3721 42.4091 47.9662 42.4003L47.7843 42.4356ZM47.7429 22.7915C47.7429 23.2158 47.7429 23.6755 47.7429 24.0645C47.7429 24.2148 47.6933 24.3916 47.8918 24.4624C48.4872 24.6745 49.7112 23.6578 49.6202 22.9771C49.5528 22.4216 49.3812 21.8864 49.1158 21.4035C49.022 21.2257 48.8736 21.088 48.6957 21.0139C48.5179 20.9398 48.3215 20.9337 48.1399 20.9968C47.7181 21.1117 47.7347 21.4477 47.7347 21.7836C47.7347 22.1196 47.7347 22.4201 47.7429 22.7561V22.7915Z" fill="#486284"/>
<path d="M9.17141 65.4216L10.2382 61.4256L11.5036 56.7046C11.5863 56.3775 11.6442 56.015 12.1073 56.1476C12.3058 56.2007 12.3637 56.0504 12.3719 55.8736C12.3802 55.6968 12.3719 55.5111 12.3719 55.3343C12.3719 49.632 12.3719 43.9386 12.3719 38.2363C12.3522 37.2572 12.5037 36.2827 12.8185 35.363L15.713 26.9555C15.7231 26.91 15.7369 26.8656 15.7544 26.8229C15.9942 26.257 16.2092 25.426 16.7551 25.373C17.3009 25.3199 17.64 26.151 18.0865 26.5753C18.1456 26.6243 18.1846 26.6959 18.1954 26.775C18.2062 26.8541 18.1879 26.9346 18.1444 26.9997C17.3273 28.963 16.6042 30.9695 15.9777 33.0114C15.7213 33.701 15.5394 34.4171 15.2582 35.0978C14.7093 36.5569 14.4556 38.1236 14.5139 39.695C14.5139 45.1409 14.5139 50.5927 14.5139 56.0504C14.495 56.1735 14.4991 56.2994 14.5259 56.4208C14.5528 56.5422 14.6018 56.6567 14.6702 56.7578C14.7386 56.8589 14.8251 56.9445 14.9246 57.0097C15.024 57.0749 15.1346 57.1185 15.2499 57.1378C21.3201 59.124 27.4014 61.1044 33.4937 63.0788C33.9518 63.2399 34.4509 63.2018 34.883 62.9727C37.2219 61.8998 39.1193 59.9594 40.2255 57.5091C40.4653 56.9964 40.6886 56.9433 41.1435 57.1732C42.6652 57.9511 42.69 57.5798 41.7885 59.3126C40.7618 61.2847 39.2745 62.9387 37.4716 64.1132C37.2651 64.2373 37.085 64.4059 36.9427 64.6083C36.8003 64.8107 36.6988 65.0425 36.6446 65.289C35.9581 67.9412 35.2304 70.5934 34.5522 73.1838C34.3951 73.8115 34.1718 73.9441 33.5846 73.7496C25.6454 71.1445 17.7034 68.5542 9.75858 65.9786C9.48567 65.8901 9.09698 65.9078 9.17141 65.4216ZM34.1635 66.1554C34.1635 65.7222 33.9072 65.6868 33.6756 65.6072L29.706 64.3253C24.3856 62.5925 19.0707 60.8598 13.7613 59.127C13.3147 58.9767 13.108 59.0739 12.9922 59.5513C12.6448 60.9128 12.2892 62.2743 11.9088 63.6269C11.7847 64.0601 11.8509 64.29 12.281 64.4226C18.9797 66.562 25.6564 68.7192 32.311 70.894C32.7742 71.0443 32.9065 70.894 33.014 70.4608C33.3613 69.0993 33.7335 67.7379 34.0891 66.3852C34.1222 66.3057 34.147 66.1731 34.1635 66.1112V66.1554Z" fill="#486284"/>
<path d="M33.5849 13.3142C30.4588 13.3142 27.3327 13.3142 24.2066 13.3142C23.6443 13.3142 23.4292 13.1462 23.4541 12.5185C23.5037 10.8211 23.2804 11.0598 24.8352 11.0598H42.7729C43.7074 11.0598 43.7074 11.0598 43.7074 12.0411C43.7074 13.4468 43.8398 13.2965 42.5248 13.3053L33.5849 13.3142Z" fill="#486284"/>
<path d="M32.5344 47.7931C29.764 47.7931 26.9935 47.7931 24.223 47.7931C23.611 47.7931 23.396 47.5809 23.4539 46.909C23.5035 45.2912 23.2885 45.5034 24.7523 45.5034H40.8045C41.6894 45.5034 41.6977 45.5034 41.6894 46.4758C41.6894 47.8992 41.83 47.7489 40.5233 47.7489L32.5344 47.7931Z" fill="#486284"/>
<path d="M25.4802 21.8278C25.4802 21.2886 25.4802 20.7493 25.4802 20.21C25.4802 19.8475 25.6125 19.6795 25.9599 19.6884C27.0102 19.6884 28.0605 19.6884 29.1025 19.6884C29.4498 19.6884 29.5739 19.8298 29.5987 20.2011C29.7228 21.8809 29.731 21.8986 28.168 21.9251C27.7379 21.9251 27.5808 22.0665 27.5725 22.5439C27.5725 24.1618 27.5312 24.153 26.0343 24.0911C25.6456 24.0911 25.4637 23.9496 25.4719 23.5076C25.4802 23.0655 25.4802 22.3848 25.4802 21.8278Z" fill="#486284"/>
<path d="M39.6465 19.6884C40.1427 19.6884 40.6471 19.6884 41.1516 19.6884C41.5072 19.6884 41.6974 19.8121 41.6892 20.2277C41.6892 21.3504 41.6892 22.4644 41.6892 23.5871C41.7064 23.6537 41.7064 23.724 41.6892 23.7905C41.2509 24.427 40.6141 23.9761 40.0352 24.0822C39.7374 24.1441 39.5638 23.9673 39.572 23.6225C39.5803 23.2777 39.572 22.9418 39.572 22.6147C39.6217 22.0577 39.3901 21.9339 38.9104 21.9339C37.3805 21.9339 37.5789 22.2433 37.5376 20.4045C37.5376 19.8387 37.7278 19.653 38.2323 19.6884C38.7368 19.7237 39.1833 19.6884 39.6465 19.6884Z" fill="#486284"/>
<path d="M27.5312 37.0162H26.0261C25.6704 37.0162 25.472 36.9102 25.4802 36.4858C25.4802 35.363 25.4802 34.2491 25.4802 33.1263C25.4802 33.0556 25.4802 32.976 25.4802 32.9318C25.9185 32.2776 26.5471 32.7285 27.0846 32.6224C27.432 32.5517 27.5643 32.7904 27.556 33.144C27.5477 33.4976 27.556 33.8689 27.556 34.2226C27.556 34.5762 27.7049 34.8061 28.077 34.7707H28.2672C28.6725 34.8149 29.2431 34.5585 29.4581 34.921C29.7559 35.4249 29.5656 36.0968 29.5491 36.6891C29.5491 36.9986 29.2927 36.9986 29.0777 36.9986L27.5312 37.0162Z" fill="#486284"/>
<path d="M39.6384 37.0162H38.0423C37.6949 37.0162 37.5709 36.8659 37.5461 36.4946C37.422 34.8149 37.4137 34.8061 38.9851 34.7795C39.4068 34.7795 39.564 34.6292 39.5722 34.1607C39.5722 32.534 39.5722 32.5428 41.1105 32.6047C41.4992 32.6047 41.6728 32.755 41.6728 33.197C41.6728 34.2668 41.6728 35.3453 41.6728 36.4239C41.6728 36.8483 41.5322 37.0339 41.1187 37.0162C40.7052 36.9986 40.1429 37.0162 39.6384 37.0162Z" fill="#486284"/>
<path d="M33.5763 48.7745C34.2462 48.7745 34.9161 48.7745 35.5859 48.7745C35.7311 48.7606 35.8774 48.7793 36.0155 48.8292C36.1536 48.8792 36.2805 48.9593 36.388 49.0645C36.4956 49.1697 36.5815 49.2976 36.6402 49.4402C36.699 49.5829 36.7293 49.737 36.7293 49.8928C36.7293 50.0487 36.699 50.2028 36.6402 50.3454C36.5815 50.488 36.4956 50.616 36.388 50.7212C36.2805 50.8264 36.1536 50.9065 36.0155 50.9564C35.8774 51.0063 35.7311 51.025 35.5859 51.0112H31.6163C31.4751 51.0265 31.3324 51.0092 31.1979 50.9605C31.0635 50.9118 30.9403 50.8328 30.8369 50.7289C30.7334 50.625 30.652 50.4986 30.5981 50.3581C30.5443 50.2177 30.5192 50.0666 30.5247 49.9149C30.5247 49.2077 30.9134 48.7921 31.6328 48.7656H33.5763V48.7745Z" fill="#486284"/>
<path d="M32.6174 25.7001C32.6174 27.3179 32.6174 27.3179 31.0874 27.3179C29.5574 27.3179 29.5078 27.3179 29.5078 25.6117C29.5078 23.9054 29.5078 23.9938 31.046 23.9938C32.5843 23.9938 32.6174 23.9938 32.6174 25.7001Z" fill="#486284"/>
<path d="M36.0574 27.3179C34.5522 27.3179 34.5522 27.3179 34.5522 25.7354C34.5522 23.9673 34.5522 23.9673 36.1566 23.9673C37.761 23.9673 37.6618 23.9673 37.6618 25.5498C37.6618 27.3179 37.6618 27.3179 36.0574 27.3179Z" fill="#486284"/>
<path d="M32.6174 31.0487C32.6174 32.7019 32.6174 32.7019 31.0626 32.7019C29.5078 32.7019 29.5078 32.7019 29.5078 31.0399C29.5078 29.3778 29.5078 29.3778 31.0709 29.3778C32.6339 29.3778 32.6256 29.3778 32.6174 31.0487Z" fill="#486284"/>
</svg>
