<svg width="72" height="69" viewBox="0 0 72 69" fill="none" xmlns="http://www.w3.org/2000/svg">
<path d="M20.1575 64.971H14.365C12.495 64.1852 11.8468 63.2122 11.8426 61.179C11.8426 60.4015 11.8426 59.624 11.8426 58.8464C11.8561 58.6697 11.8229 58.4925 11.7463 58.3327C11.6697 58.1729 11.5525 58.036 11.4063 57.9359C10.7104 57.436 10.147 56.7736 9.76536 56.0062C9.38369 55.2387 9.19525 54.3896 9.21645 53.5327C9.21645 42.0541 9.21645 30.5756 9.21645 19.0971C9.21322 18.5664 9.28172 18.0378 9.42007 17.5254C9.70627 16.3643 10.3827 15.3369 11.3359 14.6155C12.2892 13.8941 13.4613 13.5225 14.6558 13.563C22.8696 13.5962 31.0834 13.6392 39.2971 13.6919C39.5279 13.7127 39.7597 13.6675 39.9657 13.5615C40.1718 13.4555 40.3434 13.293 40.4606 13.0931C42.2868 10.4148 44.9503 8.41928 48.0328 7.41992C51.1153 6.42055 54.4423 6.47396 57.4912 7.57177C60.5401 8.66958 63.1382 10.7496 64.8775 13.4852C66.6168 16.2207 67.3988 19.4569 67.1007 22.6854C66.5231 28.4523 63.4814 32.5146 58.2082 34.8887C57.9966 34.9553 57.8153 35.0943 57.696 35.2814C57.5767 35.4684 57.527 35.6915 57.5558 35.9116C57.5724 41.8019 57.5724 47.6922 57.5558 53.5826C57.5886 54.4493 57.4011 55.3101 57.0108 56.0846C56.6206 56.859 56.0403 57.5217 55.3244 58.0107C55.1964 58.0894 55.0921 58.2013 55.0226 58.3345C54.953 58.4678 54.9209 58.6174 54.9296 58.7674C54.9296 59.6739 54.9296 60.583 54.9296 61.495C54.9047 63.312 54.0985 64.4055 52.4073 64.971H46.623C44.8113 64.2018 44.2005 63.2746 44.1963 61.3037C44.1963 60.7923 44.1963 60.2809 44.1963 59.7695C44.1963 59.0044 44.1963 58.992 43.4483 58.992H23.4652C22.7131 58.992 22.7006 58.992 22.7006 59.757C22.7006 60.2476 22.6715 60.7424 22.7006 61.2331C22.8544 63.2704 21.7906 64.4471 20.1575 64.971ZM33.4339 56.3101C39.6808 56.3101 45.9263 56.3101 52.1705 56.3101C52.5315 56.3353 52.8937 56.2828 53.2327 56.1562C53.5717 56.0296 53.8797 55.8318 54.136 55.5761C54.3923 55.3205 54.5909 55.0129 54.7185 54.6741C54.846 54.3352 54.8996 53.973 54.8756 53.6117C54.8756 49.4538 54.8756 45.2959 54.8756 41.1671C54.8756 40.6141 54.6886 40.452 54.1526 40.452C47.6203 40.452 41.0923 40.3855 34.5642 40.3605C33.7954 40.3605 33.0267 40.3855 32.2579 40.3605C25.7257 40.3023 19.1976 40.3605 12.6696 40.2275C11.9091 40.2275 11.8925 40.2275 11.8925 40.9759C11.8925 45.1615 11.8925 49.3471 11.8925 53.5327C11.8867 53.7785 11.9105 54.0242 11.9632 54.2645C12.2831 55.5534 13.2596 56.2893 14.6808 56.2893L33.4339 56.3101ZM22.1563 22.8683C18.832 22.7852 15.6864 22.7353 12.5657 22.7436C12.0795 22.7436 11.8967 22.8933 11.8967 23.3964C11.8967 27.9035 11.8967 32.412 11.8967 36.9219C11.8967 37.4084 12.0587 37.5955 12.5532 37.5955C13.8788 37.5955 15.2043 37.6579 16.5257 37.662C21.4291 37.662 26.3324 37.662 31.2357 37.662C31.9172 37.662 31.9754 37.608 31.9754 36.9095C31.9754 32.4744 31.9754 28.0393 31.9754 23.6043C31.9754 22.8849 31.9255 22.8434 31.19 22.8434L22.1563 22.8683ZM52.5112 33.3462C54.8796 33.3494 57.1958 32.65 59.1669 31.3362C61.1381 30.0224 62.6756 28.1533 63.5852 25.9652C64.4948 23.7771 64.7355 21.3682 64.277 19.0432C63.8185 16.7182 62.6812 14.5815 61.0092 12.9031C59.3371 11.2248 57.2052 10.0802 54.883 9.61418C52.5609 9.14812 50.1527 9.38148 47.9631 10.2848C45.7735 11.1881 43.9007 12.7207 42.5816 14.6889C41.2624 16.6571 40.5562 18.9725 40.5521 21.3424C40.5471 22.917 40.8528 24.477 41.4516 25.9332C42.0504 27.3893 42.9306 28.7129 44.0416 29.8281C45.1526 30.9432 46.4726 31.828 47.926 32.4317C49.3794 33.0354 50.9375 33.3462 52.5112 33.3462ZM44.7698 37.6662V37.7701H53.7329C54.8964 37.7701 54.8964 37.7701 54.8798 36.5935C54.8798 35.9573 54.7593 35.8534 54.1443 35.9407C52.6598 36.1339 51.1533 36.072 49.6897 35.7577C46.7255 35.1749 44.0148 33.6867 41.9311 31.4982C39.8473 29.3096 38.493 26.5285 38.0547 23.5377C37.984 23.1219 37.7887 22.914 37.3441 22.9224C36.7374 22.9224 36.1308 22.9224 35.5282 22.8725C34.7387 22.8267 34.6971 22.8725 34.6971 23.6583C34.6971 28.049 34.6971 32.4397 34.6971 36.8305C34.6971 37.6205 34.7387 37.662 35.5282 37.662L44.7698 37.6662ZM24.8946 20.0451V20.1657C26.8435 20.1657 28.7924 20.1657 30.7371 20.1657C32.9145 20.1657 35.0878 20.2197 37.261 20.2655C37.7347 20.2655 37.93 20.12 37.9674 19.6252C38.0552 18.7468 38.2449 17.8817 38.5326 17.0473C38.7403 16.3945 38.7362 16.3903 38.0422 16.3862C35.0545 16.3862 32.0626 16.3862 29.0749 16.328C24.2173 16.2282 19.3555 16.303 14.4938 16.2614C14.0174 16.2511 13.5488 16.3829 13.1474 16.6398C12.1418 17.2801 11.8551 18.2364 11.9008 19.3799C11.9008 19.8913 12.067 20.0742 12.5906 20.0701C16.6836 20.041 20.7767 20.0451 24.8946 20.0451ZM17.2945 62.3682C17.9718 62.3682 18.6533 62.3682 19.3348 62.3682C19.4298 62.379 19.5261 62.3677 19.6161 62.3351C19.706 62.3025 19.7872 62.2495 19.8533 62.1802C19.9193 62.1109 19.9684 62.0272 19.9967 61.9357C20.0249 61.8443 20.0316 61.7475 20.0162 61.653C20.0162 60.9545 20.0162 60.256 20.0162 59.5741C20.0162 59.1874 19.8542 59.0335 19.4719 59.0335C17.9981 59.0335 16.523 59.0335 15.0464 59.0335C14.6558 59.0335 14.5062 59.1999 14.5145 59.5824C14.5145 60.2435 14.5145 60.9087 14.5145 61.5698C14.5145 62.1603 14.7431 62.3765 15.3456 62.4014C15.9481 62.4264 16.6504 62.3682 17.2945 62.3682ZM49.5193 62.3682H51.4973C51.6012 62.3853 51.7077 62.3774 51.8079 62.3453C51.9082 62.3132 51.9995 62.2577 52.0741 62.1834C52.1488 62.1091 52.2047 62.0181 52.2374 61.918C52.27 61.8178 52.2784 61.7113 52.2619 61.6073C52.2619 60.9295 52.2619 60.2476 52.2619 59.5699C52.2619 59.1541 52.0873 59.0044 51.6843 59.0086C50.2673 59.0086 48.8545 59.0086 47.4375 59.0086C47.022 59.0086 46.8682 59.1832 46.8765 59.5865C46.8765 60.2476 46.8765 60.9087 46.8765 61.5698C46.8765 62.2309 47.0303 62.3557 47.7076 62.3682C48.3101 62.3682 48.9127 62.3682 49.5193 62.3682Z" fill="#5F7693"/>
<path d="M18.2838 45.1546C19.36 45.1546 20.4363 45.1546 21.5167 45.1546C22.3976 45.1546 22.9087 45.6036 22.9586 46.4851C23.0542 48.0512 23.0542 49.6216 22.9586 51.1877C22.9539 51.4943 22.8365 51.7885 22.6287 52.0139C22.421 52.2394 22.1375 52.3805 21.8325 52.4101C21.63 52.4521 21.4242 52.4757 21.2175 52.4808C19.252 52.4808 17.2865 52.4808 15.321 52.4808C15.1328 52.4795 14.9451 52.4614 14.7601 52.4267C14.589 52.4146 14.4221 52.3687 14.269 52.2915C14.116 52.2142 13.9798 52.1073 13.8684 51.9769C13.757 51.8465 13.6727 51.6952 13.6203 51.5319C13.5679 51.3685 13.5485 51.1964 13.5633 51.0255C13.5633 49.5494 13.5633 48.0776 13.5633 46.6015C13.5448 46.4114 13.5679 46.2195 13.6309 46.0392C13.6939 45.8589 13.7953 45.6944 13.9281 45.5571C14.0609 45.4199 14.2219 45.3132 14.4 45.2444C14.5781 45.1756 14.769 45.1464 14.9595 45.1587C16.069 45.1463 17.166 45.1546 18.2838 45.1546ZM18.2838 47.8364H17.5441C16.0815 47.8364 16.2061 47.6077 16.202 49.2792C16.202 49.6617 16.364 49.8239 16.7463 49.8156C17.4818 49.8156 18.2173 49.8156 18.9528 49.8156C20.3698 49.8156 20.403 49.7698 20.2784 48.3478C20.2493 48.0027 20.1038 47.8322 19.7506 47.8364C19.2603 47.8447 18.77 47.8364 18.2838 47.8364Z" fill="#5F7693"/>
<path d="M48.5515 52.4891C47.5667 52.4891 46.5819 52.4891 45.5971 52.4891C44.3172 52.4891 43.856 51.9985 43.856 50.7345C43.856 49.3707 43.856 48.0069 43.856 46.6431C43.856 45.6702 44.3504 45.1671 45.3186 45.1629C47.4739 45.1629 49.6319 45.1629 51.7927 45.1629C52.7526 45.1629 53.2471 45.6743 53.2512 46.6514C53.2512 48.0526 53.2512 49.4538 53.2512 50.855C53.2512 51.9444 52.7817 52.4475 51.668 52.4808C50.6292 52.514 49.5904 52.4808 48.5474 52.4808L48.5515 52.4891ZM48.6097 49.8156H49.4034C50.7663 49.8156 50.7248 50.0567 50.7206 48.4476C50.7206 47.9778 50.5087 47.8198 50.0641 47.8323C49.3286 47.8323 48.5889 47.8323 47.8534 47.8323C46.4115 47.8323 46.4157 47.8323 46.5154 49.2917C46.5403 49.6825 46.7065 49.828 47.0805 49.8156C47.5916 49.8031 48.1027 49.8114 48.618 49.8156H48.6097Z" fill="#5F7693"/>
<path d="M33.4091 48.3062C31.427 48.3062 29.4408 48.3062 27.4545 48.3062C27.2091 48.3149 26.9635 48.294 26.7232 48.2439C26.438 48.1794 26.1824 48.0218 25.9965 47.796C25.8107 47.5702 25.7053 47.2889 25.6968 46.9965C25.7085 46.7057 25.8146 46.4266 25.9991 46.2015C26.1835 45.9764 26.4363 45.8176 26.719 45.7491C26.9769 45.6843 27.2427 45.6563 27.5085 45.666H39.3097C39.6115 45.6574 39.9129 45.6952 40.2032 45.7782C40.4762 45.8486 40.7189 46.0062 40.8944 46.2271C41.0699 46.4479 41.1687 46.72 41.1758 47.0021C41.1828 47.2841 41.0978 47.5608 40.9335 47.7902C40.7692 48.0195 40.5347 48.189 40.2655 48.273C39.9967 48.3561 39.7154 48.3912 39.4344 48.3769L33.4091 48.3062Z" fill="#5F7693"/>
<path d="M33.4256 50.0442C35.5033 50.0442 37.5477 50.0442 39.6088 50.0442C40.685 50.0442 41.3166 50.776 41.0923 51.7074C40.951 52.3103 40.4523 52.6803 39.6877 52.7261C39.2722 52.751 38.8193 52.7261 38.383 52.7261C34.7816 52.7261 31.1886 52.7261 27.6039 52.7261C27.2644 52.7425 26.9244 52.7017 26.5983 52.6055C26.3424 52.5254 26.1177 52.3676 25.9554 52.1539C25.7931 51.9403 25.7012 51.6814 25.6926 51.4132C25.6839 51.145 25.7588 50.8807 25.907 50.6571C26.0551 50.4334 26.2692 50.2613 26.5194 50.1648C26.8055 50.0621 27.1094 50.0182 27.4128 50.0359L33.4256 50.0442Z" fill="#5F7693"/>
<path d="M60.1697 24.6188C60.1697 26.519 58.8608 27.7414 56.8454 27.8121C56.0892 27.837 55.3329 27.8121 54.5766 27.8121C54.1611 27.8121 53.9325 27.916 53.8868 28.4067C53.8079 29.3006 53.276 29.7954 52.5239 29.7746C51.7717 29.7538 51.2772 29.2507 51.2398 28.3859C51.2108 27.9243 51.003 27.8162 50.5958 27.8121C49.5564 27.8474 48.5158 27.8224 47.4792 27.7372C46.8988 27.6625 46.3533 27.4179 45.9112 27.0342C45.4691 26.6504 45.1502 26.1445 44.9944 25.58C44.8386 25.0155 44.8529 24.4176 45.0355 23.8612C45.2181 23.3048 45.5608 22.8148 46.0207 22.4526C46.1779 22.3513 46.3036 22.2081 46.3836 22.0391C46.4637 21.8701 46.4949 21.6821 46.4736 21.4963C46.4238 20.1491 46.4736 18.8103 47.0845 17.5629C47.4302 16.8233 47.9244 16.1629 48.5364 15.6228C49.1484 15.0827 49.8649 14.6745 50.6415 14.4237C50.813 14.3831 50.97 14.2961 51.0953 14.1722C51.2207 14.0482 51.3095 13.8921 51.352 13.721C51.4275 13.4489 51.591 13.2096 51.8169 13.0404C52.0428 12.8712 52.3185 12.7817 52.6006 12.786C52.8828 12.7903 53.1556 12.888 53.3763 13.064C53.597 13.24 53.7532 13.4842 53.8203 13.7584C53.8658 13.9281 53.9555 14.0827 54.0804 14.2062C54.2053 14.3297 54.3608 14.4177 54.5309 14.4611C55.6021 14.8313 56.5447 15.5014 57.2466 16.3917C57.9486 17.282 58.3805 18.3552 58.491 19.4838C58.5731 20.1736 58.6022 20.8686 58.5782 21.5628C58.5605 21.7362 58.5911 21.9111 58.6666 22.0682C58.7422 22.2252 58.8597 22.3583 59.0062 22.4526C59.3446 22.7086 59.6237 23.0346 59.8245 23.4085C60.0253 23.7824 60.1431 24.1952 60.1697 24.6188ZM52.4823 21.858C53.0682 21.858 53.6541 21.858 54.24 21.858C56.1764 21.8123 55.9271 22.2738 55.8731 20.0618C55.8515 19.244 55.5321 18.4623 54.9749 17.8636C54.4177 17.265 53.6612 16.8906 52.8475 16.8109C52.0338 16.7312 51.2191 16.9517 50.5565 17.431C49.8939 17.9102 49.4291 18.6151 49.2494 19.4132C49.1533 20.0291 49.1213 20.6533 49.1539 21.2759C49.1248 21.7249 49.3284 21.8746 49.7605 21.8663C50.6664 21.8414 51.5764 21.858 52.4823 21.858ZM52.5239 24.544H48.3685C48.1981 24.544 48.0278 24.544 47.8574 24.544C47.7901 24.545 47.7258 24.5719 47.6778 24.6192C47.6298 24.6664 47.6019 24.7303 47.5998 24.7976C47.5987 24.8552 47.617 24.9114 47.6516 24.9574C47.6863 25.0034 47.7353 25.0364 47.7909 25.0512C47.9336 25.0963 48.0818 25.1214 48.2314 25.1261C51.0847 25.1261 53.9381 25.1261 56.7914 25.1261C57.049 25.1261 57.4023 25.1261 57.3981 24.7893C57.3939 24.4525 57.0407 24.5274 56.8122 24.5274C55.3952 24.5315 53.9616 24.5315 52.5239 24.5315V24.544Z" fill="#5F7693"/>
</svg>
