<svg width="68" height="75" viewBox="0 0 68 75" fill="none" xmlns="http://www.w3.org/2000/svg">
<path d="M36.4656 30.5786C36.0817 31.9815 35.7002 33.3819 35.3089 34.7824C35.1119 35.495 34.9399 36.2176 34.4513 36.8085C34.1494 37.1838 33.7654 37.4853 33.3286 37.6902C32.8918 37.895 32.4138 37.9977 31.9311 37.9904C31.7642 37.9746 31.5971 38.0187 31.4599 38.1148C31.3228 38.2108 31.2247 38.3526 31.1832 38.5144C28.358 45.1821 25.5269 51.8458 22.6901 58.5053C21.7744 60.644 20.8586 62.7835 19.9429 64.9239C19.4194 66.1505 18.2952 66.8185 17.0911 66.6397C16.4765 66.5674 15.9076 66.2801 15.4857 65.829C15.0639 65.3779 14.8165 64.7923 14.7877 64.1765C14.7932 63.9869 14.7345 63.8011 14.621 63.6488C14.5075 63.4966 14.3458 63.3868 14.162 63.3372C12.7261 62.7637 11.3052 62.1479 9.88179 61.542C9.01926 61.177 8.91955 60.9312 9.27602 60.0919C11.5844 54.669 13.8936 49.246 16.2037 43.8231C16.615 42.8572 16.8019 42.7877 17.7941 43.2073C20.4066 44.3048 23.0291 45.3924 25.6291 46.5097C26.0953 46.7109 26.3072 46.6513 26.5091 46.1646C27.6409 43.4333 28.8 40.7019 29.9667 37.9979C30.0575 37.8546 30.0903 37.6823 30.0583 37.5159C30.0264 37.3495 29.9322 37.2013 29.7947 37.1015C29.3555 36.7192 29.0365 36.2187 28.876 35.6602C28.7155 35.1017 28.7203 34.5089 28.8898 33.953C29.513 31.6662 30.1512 29.3867 30.7843 27.1024C31.0193 26.2746 31.5587 25.5654 32.295 25.1159C34.1547 23.8992 36.0119 22.6784 37.8665 21.4535C38.2828 21.1778 38.9085 20.9072 38.9958 20.5322C39.103 20.0779 38.3576 19.9661 37.9987 19.6806C37.2058 19.0609 36.5708 18.2636 36.1455 17.3535C35.7201 16.4433 35.5163 15.4461 35.5506 14.4428C35.585 13.4395 35.8565 12.4584 36.3431 11.5793C36.8296 10.7001 37.5176 9.94776 38.351 9.38326C39.1845 8.81876 40.1398 8.45808 41.1395 8.33053C42.1392 8.20298 43.155 8.31215 44.1044 8.64918C45.0538 8.98621 45.9099 9.54158 46.6032 10.2702C47.2966 10.9988 47.8076 11.88 48.0947 12.8423C48.4998 14.1776 48.4525 15.6086 47.96 16.9144C47.4676 18.2203 46.5575 19.3284 45.37 20.0679C45.1706 20.1946 44.9687 20.3162 44.7144 20.4702C45.8212 21.2672 46.6538 22.2083 47.0328 23.4995C47.1933 24.0866 47.2681 24.6938 47.2546 25.3022C47.2546 30.452 47.2546 35.6043 47.2322 40.7541C47.2149 41.0331 47.2618 41.3124 47.3694 41.5706C47.477 41.8288 47.6423 42.0591 47.8529 42.2439C50.0067 44.2452 52.1331 46.2763 54.2695 48.2926C54.8125 48.7724 55.1959 49.4055 55.3688 50.1076C56.2738 54.1823 57.1936 58.252 58.0536 62.3341C58.2213 63.2646 58.0173 64.2236 57.4853 65.0065C56.9533 65.7894 56.1353 66.3343 55.2057 66.525C54.2761 66.7158 53.3084 66.5373 52.5091 66.0276C51.7097 65.5179 51.1419 64.7174 50.9266 63.7966C50.2352 60.7888 49.5588 57.7786 48.8974 54.7658C48.754 54.0599 48.3668 53.4265 47.803 52.9756C45.1731 50.8228 42.5506 48.665 39.9506 46.475C38.7041 45.4321 37.6098 44.2601 36.9591 42.733C36.6984 42.1103 36.5678 41.4412 36.5752 40.7665C36.5752 37.3771 36.5752 33.9878 36.5752 30.5985L36.4656 30.5786ZM45.9135 32.9325C45.9135 30.2583 45.9284 27.5865 45.9135 24.9148C45.9306 24.2125 45.7437 23.5203 45.3753 22.9212C45.007 22.3222 44.4728 21.8418 43.8369 21.5379C42.4758 20.8153 41.0948 20.8948 39.7935 21.6993C39.3298 21.9823 38.916 22.3424 38.4623 22.6428C36.6974 23.8016 34.93 24.9603 33.16 26.1191C32.6764 26.4344 32.2452 26.7945 32.0831 27.378C31.435 29.7021 30.7644 32.0188 30.1561 34.3528C30.0834 34.6171 30.0712 34.8944 30.1204 35.1641C30.1696 35.4337 30.279 35.6889 30.4406 35.9108C30.6021 36.1328 30.8116 36.3157 31.0536 36.4461C31.2956 36.5766 31.564 36.6512 31.8388 36.6645C32.7687 36.7266 33.534 36.1679 33.8331 35.1225C34.2843 33.5558 34.7056 31.9815 35.1344 30.4048C35.266 29.7592 35.6184 29.1791 36.1315 28.7635C37.692 27.6511 39.2875 26.5859 40.8679 25.5182C40.9321 25.4649 41.0068 25.4258 41.0873 25.4035C41.1677 25.3812 41.252 25.3763 41.3346 25.3889C41.4171 25.4016 41.496 25.4317 41.566 25.4771C41.6359 25.5225 41.6954 25.5822 41.7404 25.6523C41.9897 25.9875 41.8975 26.3103 41.5983 26.5759C41.4644 26.6871 41.3237 26.7899 41.177 26.8838C40.3444 27.445 39.5293 28.0285 38.6842 28.5524C38.4278 28.687 38.2171 28.8942 38.0787 29.1478C37.9403 29.4014 37.8804 29.6902 37.9064 29.9777C37.9438 33.2603 38.0111 36.5428 37.8915 39.8204C37.8339 40.7327 37.9915 41.6458 38.3516 42.4866C38.7118 43.3273 39.2645 44.0725 39.9655 44.6624C42.7849 47.1926 45.7614 49.539 48.6681 51.9674C49.4096 52.5492 49.9279 53.3671 50.1364 54.2841C50.8011 57.234 51.4659 60.1813 52.1306 63.1262C52.1986 63.5788 52.3636 64.0115 52.6142 64.395C52.9259 64.8197 53.3742 65.1252 53.8844 65.2607C54.3947 65.3963 54.9362 65.3536 55.4187 65.1399C56.4607 64.6979 56.9967 63.7147 56.7275 62.4483C55.8774 58.4308 54.9825 54.4232 54.09 50.4131C53.9797 49.9662 53.7354 49.5635 53.3895 49.2585C51.2207 47.2124 49.0694 45.1441 46.8782 43.1204C46.5527 42.833 46.2959 42.4767 46.1268 42.0775C45.9577 41.6783 45.8806 41.2464 45.901 40.8137C45.9284 38.1916 45.9135 35.562 45.9135 32.9325ZM19.5142 62.272C19.7635 62.1528 19.7909 61.917 19.8731 61.7233C21.7378 57.3432 23.6024 52.9631 25.4671 48.5831C25.6665 48.1187 25.6092 47.9077 25.1206 47.7066C22.7009 46.7133 20.2911 45.6986 17.8913 44.6624C17.4476 44.4712 17.288 44.5829 17.121 44.9901C16.5128 46.4799 15.8746 47.9573 15.2464 49.4372C13.774 52.8969 12.3015 56.3591 10.8291 59.8238C10.6895 60.149 10.5798 60.4147 11.036 60.6009C12.3298 61.1273 13.6136 61.6736 14.8924 62.2298C15.0173 62.2876 15.1577 62.3036 15.2925 62.2754C15.4272 62.2472 15.5493 62.1763 15.6403 62.0734C16.777 61.1149 18.0135 61.1149 19.2075 62.0411L19.5142 62.272ZM41.9698 19.7302C42.9753 19.7312 43.9586 19.4349 44.795 18.8789C45.6314 18.3229 46.2833 17.5322 46.6682 16.6069C47.0531 15.6816 47.1537 14.6633 46.9572 13.681C46.7608 12.6988 46.2761 11.7966 45.5645 11.0889C44.8529 10.3812 43.9465 9.89973 42.9601 9.70548C41.9736 9.51122 40.9515 9.61292 40.0231 9.99769C39.0947 10.3825 38.3018 11.033 37.7448 11.8669C37.1879 12.7008 36.8919 13.6806 36.8943 14.6822C36.8903 15.3469 37.019 16.0057 37.2727 16.6204C37.5265 17.2351 37.9003 17.7935 38.3725 18.2632C38.8447 18.7328 39.4058 19.1043 40.0234 19.3562C40.6409 19.608 41.3025 19.7352 41.9698 19.7302ZM18.7813 64.0623C18.7947 63.7107 18.6678 63.3681 18.4284 63.1094C18.1889 62.8507 17.8563 62.697 17.5034 62.6819C17.1505 62.6668 16.8059 62.7916 16.5451 63.0288C16.2842 63.2661 16.1283 63.5966 16.1114 63.9481C16.1067 64.2992 16.2366 64.6388 16.4747 64.8977C16.7129 65.1566 17.0412 65.3151 17.3927 65.3411C17.7451 65.3475 18.0863 65.218 18.3451 64.9797C18.6038 64.7414 18.7601 64.4127 18.7813 64.0623Z" fill="#486284" stroke="#486284" stroke-miterlimit="10"/>
<path d="M27.7056 63.069C27.7151 62.5457 27.8357 62.0304 28.0596 61.5569C30.5175 55.7499 32.9763 49.9437 35.4359 44.1384C35.6353 43.6741 35.8073 43.0111 36.5078 43.3066C37.2083 43.602 36.8493 44.1756 36.6499 44.6499C34.2086 50.4155 31.7656 56.1803 29.3209 61.9442C29.0554 62.4736 28.984 63.0787 29.119 63.655C29.2274 64.103 29.4722 64.5066 29.8198 64.8107C30.1675 65.1147 30.601 65.3043 31.0609 65.3534C31.555 65.3868 32.0478 65.2719 32.4757 65.0236C32.9036 64.7753 33.247 64.405 33.4616 63.9604C34.192 62.3365 34.8675 60.6853 35.5506 59.0391C36.9948 55.5628 38.4331 52.0866 39.8657 48.6103C39.9214 48.4684 39.989 48.3313 40.0676 48.2006C40.2471 47.9176 40.4939 47.7512 40.8379 47.8803C40.9171 47.9039 40.9907 47.9433 41.0543 47.9959C41.1179 48.0486 41.1701 48.1135 41.2078 48.1868C41.2456 48.2601 41.268 48.3403 41.2738 48.4224C41.2797 48.5046 41.2688 48.5871 41.2417 48.665C41.2103 48.7917 41.1678 48.9155 41.1146 49.0349C39.0082 54.1152 36.9142 59.2029 34.7902 64.2758C34.4562 65.1019 33.8421 65.7852 33.0546 66.2071C32.2672 66.629 31.3562 66.7627 30.4801 66.585C28.9171 66.2548 27.7056 64.7227 27.7056 63.069Z" fill="#486284" stroke="#486284" stroke-miterlimit="10"/>
<path d="M55.3813 33.5905C55.3987 35.9295 53.5091 37.469 51.4974 36.9972C50.4604 36.7489 49.4408 36.4212 48.4162 36.1232C48.0049 36.0015 47.6684 35.7781 47.7905 35.2914C47.9127 34.8047 48.3489 34.7426 48.7877 34.8668C49.6901 35.1151 50.5875 35.3932 51.4899 35.6465C52.6316 35.9668 53.6936 35.4602 53.9828 34.4745C54.2919 33.3794 53.7335 32.4061 52.5793 32.0535C51.2855 31.6612 49.9842 31.3086 48.6855 30.9237C48.5583 30.8865 48.4362 30.8592 48.309 30.812C47.9476 30.6754 47.6908 30.4395 47.793 30.0273C47.8097 29.9345 47.8472 29.8466 47.9028 29.7702C47.9584 29.6938 48.0306 29.6309 48.1141 29.5863C48.1975 29.5416 48.29 29.5163 48.3846 29.5123C48.4793 29.5083 48.5736 29.5256 48.6605 29.563C50.2335 30.005 51.8289 30.3998 53.362 30.9535C53.9272 31.1375 54.4229 31.4882 54.7835 31.9591C55.1441 32.43 55.3526 32.9989 55.3813 33.5905Z" fill="#486284" stroke="#486284" stroke-miterlimit="10"/>
</svg>
