<svg width="47" height="56" viewBox="0 0 47 56" fill="none" xmlns="http://www.w3.org/2000/svg">
<path d="M46.2251 2.24236C45.5342 1.13319 44.475 0.374033 43.2425 0.10488C42.0105 -0.164164 40.752 0.0883834 39.7 0.816832C38.6479 1.54517 37.9278 2.66183 37.6725 3.96114L37.563 4.51866C36.7637 2.04386 34.5389 0.258015 31.9245 0.258015C28.6403 0.258015 25.9685 3.07478 25.9685 6.53698V7.48129C25.9685 9.28787 26.697 10.9177 27.8593 12.0642C27.4316 12.2394 27.0178 12.462 26.6251 12.7339C25.1619 13.7469 24.1604 15.3 23.8038 17.1135L22.9639 21.5252L21.0336 23.5717H12.9981C11.1614 23.5717 9.66712 25.1471 9.66712 27.0834C9.66712 27.5582 9.7574 28.011 9.92016 28.4245H9.08568C7.15111 28.4245 5.45919 29.8029 4.97143 31.7768L3.75636 36.6929C3.61295 37.273 3.94279 37.8657 4.49294 38.0168C4.58003 38.0408 4.66723 38.0522 4.75319 38.0522C5.21037 38.052 5.62802 37.7285 5.74868 37.2402L6.96375 32.3241C7.21535 31.3061 8.08803 30.5951 9.08568 30.5951H24.1664C24.4412 30.5951 24.7047 30.4793 24.8979 30.2733L30.1094 24.7229C30.5095 24.2969 30.5062 23.6097 30.1021 23.1881C29.698 22.7662 29.0462 22.7698 28.6463 23.1958L23.7369 28.4244H12.9981C12.2968 28.4244 11.726 27.8227 11.726 27.0833C11.726 26.3439 12.2968 25.7422 12.9981 25.7422H21.4618C21.7358 25.7422 21.9985 25.627 22.1918 25.4222L28.0845 19.1741C28.4855 18.7491 28.4835 18.0619 28.0804 17.6392C27.6771 17.2167 27.0254 17.2184 26.6245 17.6437L25.5947 18.7356L25.821 17.5473C26.0646 16.308 26.7516 15.2429 27.7552 14.5481C28.7587 13.8534 29.9588 13.6121 31.1339 13.8691C32.3094 14.1259 33.3197 14.85 33.9787 15.9078C34.6376 16.9658 34.8664 18.2308 34.6228 19.4701C34.6212 19.4782 34.6207 19.4863 34.6192 19.4944L32.0383 32.6234C31.7427 34.1271 30.4708 35.2186 29.0142 35.2186H14.3792C11.9654 35.2186 9.94353 37.1785 9.69419 39.6672C9.67422 39.7166 9.65631 39.7672 9.64313 39.8207L6.48989 52.5796C6.37109 53.0605 5.95879 53.3962 5.4874 53.3962H3.09647C2.77312 53.3962 2.47437 53.2416 2.27671 52.9719C2.07895 52.7023 2.01245 52.3585 2.09388 52.0288L3.81318 45.0719C3.95659 44.4918 3.62665 43.8992 3.0766 43.7481C2.52625 43.5966 1.96417 43.9446 1.82087 44.5246L0.101562 51.4815C-0.141905 52.4667 0.0570894 53.4938 0.647692 54.2993C1.23819 55.1049 2.13084 55.5669 3.09658 55.5669H5.4874C6.8958 55.5669 8.12735 54.5635 8.48231 53.1269L10.8702 43.4645C10.9175 43.5199 10.9656 43.5747 11.0154 43.6283C11.9176 44.5978 13.1703 45.1538 14.4521 45.1538H19.4633L15.9426 54.0645C15.8103 54.3994 15.8455 54.7818 16.0364 55.0839C16.2273 55.3857 16.5488 55.567 16.8929 55.567H32.7737C33.118 55.567 33.4394 55.3857 33.6302 55.0839C33.8211 54.7819 33.8563 54.3994 33.724 54.0645L30.2033 45.1538H35.3639C37.5865 45.1538 39.5269 43.4885 39.9778 41.1943L42.2314 29.73C42.3468 29.1431 41.989 28.5688 41.4322 28.4471C40.8759 28.3261 40.3307 28.7026 40.2153 29.2896L37.9617 40.754C37.7078 42.0457 36.6152 42.9833 35.3638 42.9833H14.452C13.7195 42.9833 13.0026 42.6644 12.4851 42.1082C11.9826 41.5683 11.7133 40.8663 11.7266 40.1314C11.754 38.6193 12.944 37.3891 14.3793 37.3891H29.0144C31.4422 37.3891 33.5619 35.5701 34.0546 33.0639L39.6887 4.40145C39.8324 3.66985 40.2379 3.04114 40.8303 2.63101C41.4227 2.22109 42.1312 2.07881 42.8249 2.23032C43.5189 2.38182 44.1153 2.80932 44.5043 3.4338C44.8932 4.05828 45.0283 4.80518 44.8844 5.53666L41.8255 21.0976C41.7101 21.6845 42.0679 22.2589 42.6247 22.3805C43.1812 22.5022 43.7263 22.125 43.8416 21.538L46.9005 5.97708C47.1558 4.67776 46.916 3.35153 46.2251 2.24236ZM27.9728 45.1537L31.2296 53.3964H18.4368L21.6936 45.1537H27.9728ZM31.9244 11.5896C29.7755 11.5896 28.0274 9.74652 28.0274 7.48118V6.53687C28.0274 4.27143 29.7756 2.42838 31.9244 2.42838C34.0733 2.42838 35.8214 4.27143 35.8214 6.53687V7.48118C35.8215 9.74652 34.0733 11.5896 31.9244 11.5896ZM35.5909 14.551C35.2503 14.0367 34.8524 13.5788 34.4055 13.1873C35.0382 12.8803 35.6117 12.4606 36.1019 11.9514L35.5909 14.551Z" fill="#486284"/>
</svg>
