<svg width="31" height="38" viewBox="0 0 31 38" fill="none" xmlns="http://www.w3.org/2000/svg">
<path d="M9.6875 33.1295H21.3125V37.0259H9.6875C4.34 37.0259 0 32.6619 0 27.2848V9.75083H3.875V27.2848C3.875 30.5188 6.47125 33.1295 9.6875 33.1295ZM12.4388 6.65317C13.95 5.13356 13.95 2.65932 12.4388 1.13971C10.9275 -0.379903 8.46688 -0.379903 6.95563 1.13971C5.44438 2.65932 5.44438 5.13356 6.95563 6.65317C8.46688 8.19226 10.9081 8.19226 12.4388 6.65317ZM14.5312 13.6473C14.5312 11.5042 12.7875 9.75083 10.6562 9.75083H9.6875C7.55625 9.75083 5.8125 11.5042 5.8125 13.6473V25.3366C5.8125 28.5706 8.40875 31.1812 11.625 31.1812H21.4481L28.2294 38L31 35.214L21.1769 25.3366H14.5312V13.6473Z" fill="#3A556A"/>
</svg>
