<svg width="29" height="43" viewBox="0 0 29 43" fill="none" xmlns="http://www.w3.org/2000/svg">
<path d="M26.6206 38.2968H26.4258C26.2242 31.5579 23.0866 25.9814 20.1371 22.9578C19.3442 22.1382 19.3442 20.8616 20.1371 20.0486C23.0866 17.0252 26.2242 11.442 26.4258 4.703H26.6206C27.9174 4.703 28.9722 3.64816 28.9722 2.35144C28.9722 1.05472 27.9174 -0.00012207 26.6206 -0.00012207H2.37939C1.08268 -0.00012207 0.027832 1.05472 0.027832 2.35144C0.027832 3.64816 1.08268 4.703 2.37939 4.703H2.57424C2.7758 11.4419 5.91346 17.0252 8.86299 20.0486C9.6558 20.8616 9.6558 22.1382 8.86299 22.9578C5.91346 25.9813 2.7758 31.5578 2.57424 38.2968H2.37939C1.08268 38.2968 0.027832 39.3517 0.027832 40.6484C0.027832 41.9451 1.08268 43 2.37939 43H26.6206C27.9174 43 28.9722 41.9451 28.9722 40.6484C28.9722 39.3517 27.9173 38.2968 26.6206 38.2968ZM2.37939 3.35934C1.82174 3.35934 1.37158 2.90246 1.37158 2.35152C1.37158 1.79387 1.82174 1.34371 2.37939 1.34371H26.6206C27.1783 1.34371 27.6285 1.79387 27.6285 2.35152C27.6285 2.90246 27.1783 3.35934 26.6206 3.35934H2.37939ZM9.82369 23.8918C11.1338 22.5548 11.1338 20.4518 9.82369 19.1081C7.05564 16.2728 4.10611 11.0389 3.91127 4.70309H25.0888C24.8939 11.0388 21.9444 16.2727 19.1763 19.1081C17.8661 20.4518 17.8661 22.5548 19.1763 23.8918C21.3733 26.1426 23.6778 29.9051 24.6387 34.5276C21.8571 31.1413 16.6904 28.7091 15.172 28.0373V19.2156C15.2996 19.0947 18.7598 17.5896 21.2121 11.5629C21.3935 11.1262 21.071 10.6425 20.594 10.6425H8.40611C7.92908 10.6425 7.60658 11.1263 7.78799 11.5629C10.2202 17.5426 13.7341 19.1214 13.8281 19.2156V28.0373C12.3097 28.7092 7.1429 31.1414 4.36143 34.5276C5.32221 29.9051 7.62674 26.1426 9.82369 23.8918ZM26.6206 41.6562H2.37939C1.82174 41.6562 1.37158 41.2061 1.37158 40.6484C1.37158 40.0975 1.82174 39.6407 2.37939 39.6407C2.43986 39.6407 25.1223 39.6474 26.6206 39.6407C27.1782 39.6407 27.6284 40.0975 27.6284 40.6484C27.6285 41.206 27.1783 41.6562 26.6206 41.6562Z" fill="#576F8E"/>
</svg>
