<svg width="19" height="20" viewBox="0 0 19 20" fill="none" xmlns="http://www.w3.org/2000/svg">
<path d="M0.0500984 9.09646H14.3867L8.12329 2.6646C7.62272 2.15058 7.62272 1.30706 8.12329 0.793035C8.24203 0.670851 8.38307 0.573915 8.53834 0.507776C8.69361 0.441636 8.86005 0.407593 9.02815 0.407593C9.19625 0.407593 9.36269 0.441636 9.51796 0.507776C9.67323 0.573915 9.81427 0.670851 9.93301 0.793035L18.3913 9.47868C18.5102 9.60061 18.6046 9.74545 18.669 9.90489C18.7334 10.0643 18.7666 10.2353 18.7666 10.4079C18.7666 10.5805 18.7334 10.7514 18.669 10.9109C18.6046 11.0703 18.5102 11.2151 18.3913 11.3371L9.93301 20.0227C9.81419 20.1447 9.67312 20.2415 9.51786 20.3076C9.3626 20.3736 9.1962 20.4076 9.02815 20.4076C8.8601 20.4076 8.6937 20.3736 8.53844 20.3076C8.38318 20.2415 8.24211 20.1447 8.12329 20.0227C8.00446 19.9007 7.9102 19.7558 7.84589 19.5964C7.78158 19.437 7.74848 19.2661 7.74848 19.0935C7.74848 18.9209 7.78158 18.7501 7.84589 18.5906C7.9102 18.4312 8.00446 18.2863 8.12329 18.1643L14.3867 11.7325H0.0500984C-0.655825 11.7325 -1.2334 11.1394 -1.2334 10.4145C-1.2334 9.68956 -0.655825 9.09646 0.0500984 9.09646Z" fill="#3A556A"/>
</svg>
