<svg width="34" height="40" viewBox="0 0 34 40" fill="none" xmlns="http://www.w3.org/2000/svg">
<path d="M29.4999 18.9166H4.49992V8.49996H29.4999M26.3749 31.4166C25.5461 31.4166 24.7513 31.0874 24.1652 30.5013C23.5792 29.9153 23.2499 29.1204 23.2499 28.2916C23.2499 27.4628 23.5792 26.668 24.1652 26.0819C24.7513 25.4959 25.5461 25.1666 26.3749 25.1666C27.2037 25.1666 27.9986 25.4959 28.5846 26.0819C29.1707 26.668 29.4999 27.4628 29.4999 28.2916C29.4999 29.1204 29.1707 29.9153 28.5846 30.5013C27.9986 31.0874 27.2037 31.4166 26.3749 31.4166ZM7.62492 31.4166C6.79612 31.4166 6.00126 31.0874 5.41521 30.5013C4.82916 29.9153 4.49992 29.1204 4.49992 28.2916C4.49992 27.4628 4.82916 26.668 5.41521 26.0819C6.00126 25.4959 6.79612 25.1666 7.62492 25.1666C8.45372 25.1666 9.24858 25.4959 9.83463 26.0819C10.4207 26.668 10.7499 27.4628 10.7499 28.2916C10.7499 29.1204 10.4207 29.9153 9.83463 30.5013C9.24858 31.0874 8.45372 31.4166 7.62492 31.4166ZM0.333252 29.3333C0.333252 31.1666 1.14575 32.8125 2.41659 33.9583V37.6666C2.41659 38.2192 2.63608 38.7491 3.02678 39.1398C3.41748 39.5305 3.94738 39.75 4.49992 39.75H6.58325C7.13579 39.75 7.66569 39.5305 8.05639 39.1398C8.44709 38.7491 8.66658 38.2192 8.66658 37.6666V35.5833H25.3333V37.6666C25.3333 38.2192 25.5527 38.7491 25.9434 39.1398C26.3341 39.5305 26.864 39.75 27.4166 39.75H29.4999C30.0525 39.75 30.5824 39.5305 30.9731 39.1398C31.3638 38.7491 31.5833 38.2192 31.5833 37.6666V33.9583C32.8541 32.8125 33.6666 31.1666 33.6666 29.3333V8.49996C33.6666 1.20829 26.2083 0.166626 16.9999 0.166626C7.79158 0.166626 0.333252 1.20829 0.333252 8.49996V29.3333Z" fill="#3A556A"/>
</svg>
