<svg width="23" height="23" viewBox="0 0 23 23" fill="none" xmlns="http://www.w3.org/2000/svg">
<path fill-rule="evenodd" clip-rule="evenodd" d="M19.7485 19.5503H18.6141V21.2832C18.6146 21.4458 18.5822 21.6069 18.5185 21.7574C18.4549 21.9078 18.3615 22.0446 18.2434 22.1599C18.1254 22.2752 17.9851 22.3668 17.8307 22.4295C17.6762 22.4922 17.5105 22.5247 17.3431 22.5251H16.5944C16.2577 22.5237 15.9353 22.3932 15.6973 22.1619C15.4592 21.9307 15.3248 21.6175 15.3233 21.2905V19.5576H7.64108V21.2905C7.6396 21.6184 7.50444 21.9325 7.26519 22.1639C7.02593 22.3952 6.70206 22.5252 6.36445 22.5251H5.61569C5.27922 22.5237 4.95699 22.3931 4.71924 22.1618C4.4815 21.9305 4.34753 21.6173 4.34655 21.2905V19.5576H3.38813C2.72548 19.5467 2.40726 19.1939 2.35859 18.5957V4.43622C1.98421 4.47258 1.80638 4.55623 1.71653 4.7417V8.78752H0.911614C0.669991 8.78704 0.438406 8.69359 0.267552 8.52763C0.0966982 8.36166 0.000494624 8.1367 0 7.90199L0 5.51268C0.000842547 5.28244 0.0935901 5.06149 0.258727 4.89633C0.423864 4.73117 0.648514 4.63467 0.885407 4.62714C0.962155 3.93253 1.27102 3.7307 2.38292 3.67978C2.54141 2.46755 3.39188 1.5711 4.93432 0.990445C8.25319 0.399482 14.5503 0.341294 18.0675 0.990445C19.6175 1.5705 20.4636 2.46694 20.6171 3.67978C21.7402 3.73433 22.0416 3.93799 22.1146 4.62714C22.3515 4.63467 22.5761 4.73117 22.7413 4.89633C22.9064 5.06149 22.9992 5.28244 23 5.51268V7.90199C22.9995 8.1367 22.9033 8.36166 22.7324 8.52763C22.5616 8.69359 22.33 8.78704 22.0884 8.78752H21.2835V4.73079C21.1936 4.54895 21.0083 4.46895 20.6414 4.4344V18.4502C20.6414 19.2612 20.3719 19.5412 19.7466 19.5412L19.7485 19.5503ZM3.01937 15.9555L3.07178 14.739C3.10173 14.5262 3.21779 14.4317 3.42557 14.4662C4.47474 15.0103 5.4814 15.6283 6.43745 16.3155C6.64149 16.4464 6.561 16.6992 6.29145 16.6519L3.45927 16.4519C3.33657 16.4347 3.22441 16.375 3.14354 16.2837C3.06267 16.1925 3.01856 16.0759 3.01937 15.9555ZM9.73386 17.5156H13.3466C13.3933 17.5156 13.438 17.5336 13.471 17.5657C13.504 17.5977 13.5226 17.6412 13.5226 17.6865V18.2757C13.5226 18.321 13.504 18.3645 13.471 18.3965C13.438 18.4286 13.3933 18.4466 13.3466 18.4466H9.73386C9.6872 18.4466 9.64244 18.4286 9.60944 18.3965C9.57644 18.3645 9.55791 18.321 9.55791 18.2757V17.6865C9.55791 17.6412 9.57644 17.5977 9.60944 17.5657C9.64244 17.5336 9.6872 17.5156 9.73386 17.5156ZM19.1589 17.5156C19.2513 17.5163 19.3415 17.5435 19.4181 17.5938C19.4947 17.6441 19.5543 17.7152 19.5895 17.7982C19.6247 17.8812 19.6339 17.9725 19.616 18.0606C19.598 18.1487 19.5537 18.2297 19.4886 18.2934C19.4235 18.3572 19.3405 18.4009 19.2499 18.419C19.1594 18.4371 19.0653 18.4289 18.9796 18.3954C18.8938 18.3618 18.8202 18.3045 18.7678 18.2304C18.7155 18.1564 18.6868 18.0691 18.6853 17.9793C18.6853 17.8585 18.7345 17.7427 18.8222 17.6572C18.9099 17.5716 19.029 17.5233 19.1532 17.5229L19.1589 17.5156ZM3.68764 17.5156C3.78 17.5167 3.86998 17.5442 3.94633 17.5947C4.02269 17.6452 4.08203 17.7164 4.11695 17.7994C4.15186 17.8825 4.1608 17.9737 4.14264 18.0617C4.12448 18.1497 4.08003 18.2305 4.01484 18.2941C3.94966 18.3576 3.86664 18.4011 3.77615 18.4191C3.68566 18.4371 3.59172 18.4288 3.50607 18.3952C3.42042 18.3616 3.34686 18.3042 3.29459 18.2303C3.24232 18.1563 3.21365 18.069 3.21218 17.9793C3.21218 17.8582 3.26168 17.7421 3.34979 17.6565C3.4379 17.571 3.55741 17.5229 3.68202 17.5229L3.68764 17.5156ZM19.9881 15.9464L19.9357 14.7299C19.9058 14.5171 19.7897 14.4226 19.5838 14.4571C18.5338 15.0007 17.5265 15.6188 16.57 16.3064C16.366 16.4373 16.4465 16.6901 16.716 16.6428L19.5482 16.4428C19.6711 16.426 19.7835 16.3664 19.8644 16.275C19.9454 16.1837 19.9893 16.0669 19.9881 15.9464ZM9.02067 1.63414H13.9812C14.0615 1.63462 14.1383 1.66581 14.1951 1.72095C14.2518 1.77609 14.284 1.85073 14.2844 1.92871V2.70515C14.284 2.78313 14.2518 2.85777 14.1951 2.91291C14.1383 2.96805 14.0615 2.99924 13.9812 2.99972H9.02067C8.9404 2.99924 8.86355 2.96805 8.80679 2.91291C8.75002 2.85777 8.71792 2.78313 8.71742 2.70515V1.92871C8.71792 1.85073 8.75002 1.77609 8.80679 1.72095C8.86355 1.66581 8.9404 1.63462 9.02067 1.63414ZM3.80369 3.96163H19.1308C19.2301 3.96163 19.3253 3.99994 19.3955 4.06814C19.4657 4.13634 19.5052 4.22884 19.5052 4.3253V12.1769C19.5052 12.3733 19.3386 12.4842 19.1308 12.5406C13.8726 14.0916 9.05998 14.028 3.80369 12.5406C3.59591 12.486 3.42932 12.3769 3.42932 12.1769V4.32166C3.42932 4.22521 3.46876 4.13271 3.53897 4.06451C3.60918 3.9963 3.7044 3.95799 3.80369 3.95799V3.96163Z" fill="#486284"/>
</svg>
