<svg width="20" height="13" viewBox="0 0 20 13" fill="none" xmlns="http://www.w3.org/2000/svg">
<g clip-path="url(#clip0_1171_2493)">
<path d="M13.9423 2.61932C13.9423 4.01922 14.9032 5.15411 16.0885 5.15411C17.2737 5.15411 18.2344 4.01922 18.2344 2.61932C18.2344 1.21952 17.2737 0.0847168 16.0885 0.0847168C14.9032 0.0847168 13.9423 1.21952 13.9423 2.61932Z" fill="#486284"/>
<path d="M13.6414 7.08923C13.4864 6.99473 13.3149 6.93313 13.1373 6.90373C13.4979 6.39493 13.7534 5.84913 13.901 5.19593C13.9414 4.95723 14.2682 4.92923 14.5112 5.12723C14.9658 5.49783 15.4961 5.74583 16.0877 5.74583C16.6907 5.74583 17.2454 5.50594 17.6901 5.10444C17.832 4.97624 18.0411 4.95684 18.2044 5.05654C19.0487 5.57234 19.6878 6.39093 19.9666 7.36323C20.0415 7.62373 19.9889 7.90523 19.8255 8.12203C19.6619 8.33863 19.4063 8.46633 19.1349 8.46633H15.2681C14.8052 7.93233 14.2589 7.46613 13.6414 7.08923Z" fill="#486284"/>
<path d="M6.05859 2.61932C6.05859 4.01922 5.0978 5.15411 3.9125 5.15411C2.7271 5.15411 1.76649 4.01922 1.76649 2.61932C1.76649 1.21952 2.7271 0.0847168 3.9125 0.0847168C5.0978 0.0847168 6.05859 1.21952 6.05859 2.61932Z" fill="#486284"/>
<path d="M6.35918 7.08923C6.51418 6.99473 6.68578 6.93313 6.86328 6.90373C6.50268 6.39493 6.24718 5.84913 6.09958 5.19593C6.05909 4.95723 5.73228 4.92923 5.48928 5.12723C5.03468 5.49783 4.50448 5.74583 3.91288 5.74583C3.30998 5.74583 2.75519 5.50594 2.31039 5.10444C2.16849 4.97624 1.95948 4.95684 1.79618 5.05654C0.951779 5.57234 0.312585 6.39093 0.0339847 7.36323C-0.0408154 7.62373 0.0116882 7.90523 0.174988 8.12203C0.338688 8.33863 0.594179 8.46633 0.865479 8.46633H4.73248C5.19538 7.93233 5.74158 7.46613 6.35918 7.08923Z" fill="#486284"/>
<path d="M4.15181 11.2701C4.57161 9.80474 5.5238 8.56564 6.7844 7.77094C7.0331 7.61434 7.35591 7.63965 7.5765 7.83405C8.25311 8.42995 9.09031 8.78465 9.99931 8.78465C10.9262 8.78465 11.7784 8.41605 12.4619 7.79915C12.6801 7.60205 13.0012 7.57235 13.2521 7.72575C14.5498 8.51815 15.532 9.77615 15.9603 11.2702C16.0754 11.671 15.9947 12.103 15.7437 12.4364C15.4921 12.7694 15.0994 12.9655 14.6822 12.9655H5.42991C5.01261 12.9655 4.61961 12.77 4.36811 12.4364C4.11701 12.1029 4.03671 11.6713 4.15181 11.2701Z" fill="#486284"/>
<path d="M6.70088 3.97982C6.70088 6.13112 8.17747 7.87532 9.99897 7.87532C11.8204 7.87532 13.2969 6.13112 13.2969 3.97982C13.2969 1.82832 11.8204 0.0847168 9.99897 0.0847168C8.17737 0.0847168 6.70088 1.82842 6.70088 3.97982Z" fill="#486284"/>
</g>
<defs>
<clipPath id="clip0_1171_2493">
<rect width="20.0002" height="13" fill="white" transform="matrix(-1 0 0 1 20 0)"/>
</clipPath>
</defs>
</svg>
