<svg width="21" height="24" viewBox="0 0 21 24" fill="none" xmlns="http://www.w3.org/2000/svg">
<path fill-rule="evenodd" clip-rule="evenodd" d="M19.4144 7.09325C19.0411 7.50295 18.6065 7.86861 18.1183 8.16536C18.0589 8.20939 17.9766 8.21513 17.9096 8.1711C17.1898 7.71354 16.5829 7.16217 16.1081 6.56294C15.4514 5.73971 15.0379 4.8265 14.8962 3.94775C14.7526 3.0556 14.8866 2.19792 15.3308 1.49913C15.5069 1.22536 15.7309 0.972649 16.0028 0.756312C16.6288 0.258547 17.3429 -0.00565175 18.057 9.16946e-05C18.7424 0.00583514 19.4201 0.260461 20.006 0.794602C20.2127 0.982221 20.385 1.19473 20.5267 1.4283C21.0034 2.21515 21.1068 3.21642 20.8962 4.23301C20.6894 5.23811 20.1764 6.25853 19.4144 7.09325ZM4.57141 17.6248C4.19809 18.0345 3.7635 18.4002 3.27531 18.6969C3.21596 18.741 3.13364 18.7467 3.06663 18.7027C2.34679 18.2432 1.73989 17.6937 1.2651 17.0945C0.610351 16.2732 0.196823 15.36 0.055151 14.4793C-0.0884352 13.5872 0.0455786 12.7295 0.489738 12.0326C0.663956 11.7569 0.887951 11.5061 1.16172 11.2898C1.78776 10.792 2.50186 10.5278 3.21405 10.5336C3.89943 10.5393 4.57716 10.7939 5.16299 11.3281C5.36975 11.5157 5.54206 11.7282 5.68373 11.9618C6.16043 12.7486 6.26382 13.7499 6.05322 14.7665C5.84646 15.7697 5.33338 16.7901 4.57141 17.6248ZM3.26765 19.7269C4.13108 19.7269 4.8605 20.3051 5.09024 21.0939H16.5714C17.1381 21.0939 17.655 20.8622 18.0302 20.487C18.4055 20.1117 18.6371 19.5967 18.6371 19.0281C18.6371 18.4614 18.4055 17.9445 18.0302 17.5693C17.655 17.1941 17.14 16.9624 16.5714 16.9624H12.5548C11.6531 16.9624 10.8337 16.5948 10.2402 16.0013C9.64671 15.4078 9.27913 14.5884 9.27913 13.6867C9.27913 12.785 9.64671 11.9656 10.2402 11.3721C10.8337 10.7786 11.6531 10.411 12.5548 10.411H16.1866C16.4355 9.65291 17.1496 9.10537 17.99 9.10537C19.0392 9.10537 19.8892 9.9554 19.8892 11.0045C19.8892 12.0537 19.0392 12.9037 17.99 12.9037C17.1572 12.9037 16.4508 12.3676 16.1942 11.6229H12.5548C11.9881 11.6229 11.4712 11.8546 11.096 12.2298C10.7207 12.605 10.4891 13.12 10.4891 13.6886C10.4891 14.2553 10.7207 14.7722 11.096 15.1475C11.4674 15.5189 11.9785 15.7505 12.5414 15.7544H16.5733C17.475 15.7544 18.2944 16.1219 18.8879 16.7154C19.4814 17.3089 19.849 18.1283 19.849 19.03C19.849 19.9318 19.4814 20.7512 18.8879 21.3447C18.2944 21.9381 17.475 22.3057 16.5733 22.3057H5.04238C4.76861 23.0198 4.07748 23.5252 3.26765 23.5252C2.21852 23.5252 1.36849 22.6752 1.36849 21.6261C1.36849 20.5769 2.21852 19.7269 3.26765 19.7269ZM3.07812 12.1188C3.92432 12.1188 4.6097 12.8041 4.6097 13.6503C4.6097 14.4965 3.92432 15.1819 3.07812 15.1819C2.23192 15.1819 1.54653 14.4965 1.54653 13.6503C1.54653 12.8041 2.23192 12.1188 3.07812 12.1188ZM17.9211 1.58528C18.7673 1.58528 19.4527 2.27067 19.4527 3.11687C19.4527 3.96307 18.7673 4.64845 17.9211 4.64845C17.0749 4.64845 16.3895 3.96307 16.3895 3.11687C16.3895 2.27067 17.0749 1.58528 17.9211 1.58528Z" fill="#486284"/>
</svg>
