<svg width="27" height="27" viewBox="0 0 27 27" fill="none" xmlns="http://www.w3.org/2000/svg">
<path d="M13 3C8.60343 3 5 6.61482 5 11.027C5 12.7366 5.54248 14.3255 6.46095 15.6316L12.024 25.3084C12.803 26.3327 13.3211 26.1383 13.9691 25.2547L20.1048 14.7476C20.2286 14.5214 20.3257 14.2815 20.4107 14.0361C20.8 13.0813 21.0002 12.0591 21 11.027C21 6.61482 17.3977 3 13 3ZM13 6.76125C15.368 6.76125 17.2514 8.65146 17.2514 11.0274C17.2514 13.4032 15.368 15.2927 13 15.2927C10.6324 15.2927 8.74857 13.4029 8.74857 11.0274C8.74857 8.65146 10.6324 6.76125 13 6.76125Z" fill="#486284"/>
<path d="M13.4615 9.46154C13.4615 9.20664 13.2549 9 13 9C12.7451 9 12.5385 9.20664 12.5385 9.46154V10.5385H11.4615C11.2066 10.5385 11 10.7451 11 11C11 11.2549 11.2066 11.4615 11.4615 11.4615H12.5385V12.5385C12.5385 12.7934 12.7451 13 13 13C13.2549 13 13.4615 12.7934 13.4615 12.5385V11.4615H14.5385C14.7934 11.4615 15 11.2549 15 11C15 10.7451 14.7934 10.5385 14.5385 10.5385H13.4615V9.46154Z" fill="#486284"/>
</svg>
