<svg width="23" height="24" viewBox="0 0 23 24" fill="none" xmlns="http://www.w3.org/2000/svg">
<g clip-path="url(#clip0_165_290)">
<path d="M0.0500984 13.0964H14.3867L8.12329 6.66454C7.62272 6.15052 7.62272 5.307 8.12329 4.79297C8.24203 4.67079 8.38307 4.57385 8.53834 4.50771C8.69361 4.44158 8.86005 4.40753 9.02815 4.40753C9.19625 4.40753 9.36269 4.44158 9.51796 4.50771C9.67323 4.57385 9.81427 4.67079 9.93301 4.79297L18.3913 13.4786C18.5102 13.6006 18.6046 13.7454 18.669 13.9048C18.7334 14.0643 18.7666 14.2352 18.7666 14.4078C18.7666 14.5804 18.7334 14.7514 18.669 14.9108C18.6046 15.0702 18.5102 15.2151 18.3913 15.337L9.93301 24.0226C9.81419 24.1447 9.67312 24.2415 9.51786 24.3075C9.3626 24.3735 9.1962 24.4075 9.02815 24.4075C8.8601 24.4075 8.6937 24.3735 8.53844 24.3075C8.38318 24.2415 8.24211 24.1447 8.12329 24.0226C8.00446 23.9006 7.9102 23.7558 7.84589 23.5963C7.78158 23.4369 7.74848 23.266 7.74848 23.0935C7.74848 22.9209 7.78158 22.75 7.84589 22.5906C7.9102 22.4311 8.00446 22.2863 8.12329 22.1643L14.3867 15.7324H0.0500984C-0.655825 15.7324 -1.2334 15.1393 -1.2334 14.4144C-1.2334 13.6895 -0.655825 13.0964 0.0500984 13.0964Z" fill="#3A556A"/>
</g>
<defs>
<clipPath id="clip0_165_290">
<rect width="23" height="24" fill="white" transform="matrix(-1 0 0 1 23 0)"/>
</clipPath>
</defs>
</svg>
