<svg width="40" height="40" viewBox="0 0 40 40" fill="none"
    xmlns="http://www.w3.org/2000/svg">
    <g opacity="0.2">
        <path fill-rule="evenodd" clip-rule="evenodd" d="M17.412 31.304C17.7147 31.5564 18.0641 31.7466 18.4403 31.8639C18.8165 31.9811 19.2122 32.0231 19.6046 31.9875C19.997 31.9518 20.3786 31.8392 20.7275 31.656C21.0764 31.4729 21.3858 31.2228 21.638 30.92L28.304 22.92C28.5674 22.6189 28.768 22.2682 28.8938 21.8885C29.0197 21.5088 29.0683 21.1078 29.0369 20.709C29.0054 20.3102 28.8946 19.9217 28.7108 19.5664C28.527 19.2111 28.274 18.8961 27.9667 18.64C27.6594 18.3839 27.304 18.1919 26.9213 18.0752C26.5387 17.9585 26.1366 17.9195 25.7387 17.9605C25.3408 18.0015 24.9551 18.1217 24.6043 18.3139C24.2535 18.5062 23.9447 18.7666 23.696 19.08L17.028 27.08C16.5191 27.6912 16.2736 28.4794 16.3456 29.2715C16.4176 30.0636 16.8012 30.7947 17.412 31.304Z" fill="#FFFFFF"/>
        <path fill-rule="evenodd" clip-rule="evenodd" d="M17.4119 10.696C16.8011 11.2054 16.4175 11.9364 16.3455 12.7285C16.2735 13.5206 16.5189 14.3089 17.0279 14.92L23.6959 22.92C24.2116 23.5095 24.9374 23.8739 25.7181 23.9354C26.4989 23.997 27.2727 23.7507 27.8744 23.2494C28.4761 22.748 28.8578 22.0312 28.9381 21.2521C29.0183 20.4731 28.7907 19.6935 28.3039 19.08L21.6379 11.08C21.3857 10.7773 21.0763 10.5272 20.7274 10.344C20.3785 10.1608 19.9969 10.0482 19.6045 10.0126C19.2121 9.97689 18.8164 10.0189 18.4402 10.1362C18.064 10.2534 17.7146 10.4437 17.4119 10.696Z" fill="#FFFFFF"/>
        <path fill-rule="evenodd" clip-rule="evenodd" d="M25 21C25 20.2044 24.6839 19.4413 24.1213 18.8787C23.5587 18.3161 22.7956 18 22 18H6C5.20435 18 4.44129 18.3161 3.87868 18.8787C3.31607 19.4413 3 20.2044 3 21C3 21.7956 3.31607 22.5587 3.87868 23.1213C4.44129 23.6839 5.20435 24 6 24H22C22.7956 24 23.5587 23.6839 24.1213 23.1213C24.6839 22.5587 25 21.7956 25 21Z" fill="#FFFFFF"/>
    </g>
    <path fill-rule="evenodd" clip-rule="evenodd" d="M22.694 28.768C22.8977 28.9377 23.1605 29.0195 23.4245 28.9955C23.6885 28.9715 23.9322 28.8436 24.102 28.64L30.768 20.64C30.9302 20.4355 31.0061 20.1756 30.9794 19.916C30.9526 19.6563 30.8254 19.4173 30.6248 19.2502C30.4242 19.0831 30.1663 19.001 29.906 19.0215C29.6458 19.042 29.4039 19.1635 29.232 19.36L22.566 27.36C22.3963 27.5637 22.3145 27.8265 22.3385 28.0905C22.3625 28.3545 22.4904 28.5982 22.694 28.768Z" fill="#FFFFFF"/>
    <path fill-rule="evenodd" clip-rule="evenodd" d="M22.694 11.232C22.4904 11.4018 22.3625 11.6455 22.3385 11.9095C22.3145 12.1736 22.3963 12.4363 22.566 12.64L29.232 20.64C29.4039 20.8365 29.6458 20.958 29.906 20.9785C30.1663 20.999 30.4242 20.9169 30.6248 20.7498C30.8254 20.5827 30.9526 20.3438 30.9794 20.0841C31.0061 19.8244 30.9302 19.5645 30.768 19.36L24.102 11.36C23.9322 11.1564 23.6885 11.0285 23.4245 11.0045C23.1605 10.9805 22.8977 11.0624 22.694 11.232Z" fill="#FFFFFF"/>
    <path fill-rule="evenodd" clip-rule="evenodd" d="M30 20C30 19.7348 29.8946 19.4804 29.7071 19.2929C29.5196 19.1054 29.2652 19 29 19H10C9.73478 19 9.48043 19.1054 9.29289 19.2929C9.10536 19.4804 9 19.7348 9 20C9 20.2652 9.10536 20.5196 9.29289 20.7071C9.48043 20.8946 9.73478 21 10 21H29C29.2652 21 29.5196 20.8946 29.7071 20.7071C29.8946 20.5196 30 20.2652 30 20Z" fill="#FFFFFF"/>
</svg>
