<svg width="34" height="40" viewBox="0 0 34 40" fill="none" xmlns="http://www.w3.org/2000/svg">
<path d="M29.4997 18.9167H4.49967V8.50008H29.4997M26.3747 31.4167C25.5459 31.4167 24.751 31.0875 24.165 30.5015C23.5789 29.9154 23.2497 29.1205 23.2497 28.2917C23.2497 27.4629 23.5789 26.6681 24.165 26.082C24.751 25.496 25.5459 25.1667 26.3747 25.1667C27.2035 25.1667 27.9983 25.496 28.5844 26.082C29.1704 26.6681 29.4997 27.4629 29.4997 28.2917C29.4997 29.1205 29.1704 29.9154 28.5844 30.5015C27.9983 31.0875 27.2035 31.4167 26.3747 31.4167ZM7.62467 31.4167C6.79587 31.4167 6.00102 31.0875 5.41497 30.5015C4.82891 29.9154 4.49967 29.1205 4.49967 28.2917C4.49967 27.4629 4.82891 26.6681 5.41497 26.082C6.00102 25.496 6.79587 25.1667 7.62467 25.1667C8.45348 25.1667 9.24833 25.496 9.83438 26.082C10.4204 26.6681 10.7497 27.4629 10.7497 28.2917C10.7497 29.1205 10.4204 29.9154 9.83438 30.5015C9.24833 31.0875 8.45348 31.4167 7.62467 31.4167ZM0.333008 29.3334C0.333008 31.1667 1.14551 32.8126 2.41634 33.9584V37.6667C2.41634 38.2193 2.63583 38.7492 3.02654 39.1399C3.41724 39.5306 3.94714 39.7501 4.49967 39.7501H6.58301C7.13554 39.7501 7.66545 39.5306 8.05615 39.1399C8.44685 38.7492 8.66634 38.2193 8.66634 37.6667V35.5834H25.333V37.6667C25.333 38.2193 25.5525 38.7492 25.9432 39.1399C26.3339 39.5306 26.8638 39.7501 27.4163 39.7501H29.4997C30.0522 39.7501 30.5821 39.5306 30.9728 39.1399C31.3635 38.7492 31.583 38.2193 31.583 37.6667V33.9584C32.8538 32.8126 33.6663 31.1667 33.6663 29.3334V8.50008C33.6663 1.20841 26.208 0.166748 16.9997 0.166748C7.79134 0.166748 0.333008 1.20841 0.333008 8.50008V29.3334Z" fill="#3A556A"/>
</svg>
