<svg width="50" height="50" viewBox="0 0 50 50" fill="none" xmlns="http://www.w3.org/2000/svg">
<path d="M37.5 22.9167H12.5V12.5H37.5M34.375 35.4167C33.5462 35.4167 32.7514 35.0874 32.1653 34.5014C31.5793 33.9153 31.25 33.1205 31.25 32.2917C31.25 31.4629 31.5793 30.668 32.1653 30.082C32.7514 29.4959 33.5462 29.1667 34.375 29.1667C35.2038 29.1667 35.9987 29.4959 36.5847 30.082C37.1708 30.668 37.5 31.4629 37.5 32.2917C37.5 33.1205 37.1708 33.9153 36.5847 34.5014C35.9987 35.0874 35.2038 35.4167 34.375 35.4167ZM15.625 35.4167C14.7962 35.4167 14.0014 35.0874 13.4153 34.5014C12.8293 33.9153 12.5 33.1205 12.5 32.2917C12.5 31.4629 12.8293 30.668 13.4153 30.082C14.0014 29.4959 14.7962 29.1667 15.625 29.1667C16.4538 29.1667 17.2487 29.4959 17.8347 30.082C18.4208 30.668 18.75 31.4629 18.75 32.2917C18.75 33.1205 18.4208 33.9153 17.8347 34.5014C17.2487 35.0874 16.4538 35.4167 15.625 35.4167ZM8.33337 33.3334C8.33337 35.1667 9.14587 36.8125 10.4167 37.9584V41.6667C10.4167 42.2192 10.6362 42.7491 11.0269 43.1398C11.4176 43.5305 11.9475 43.75 12.5 43.75H14.5834C15.1359 43.75 15.6658 43.5305 16.0565 43.1398C16.4472 42.7491 16.6667 42.2192 16.6667 41.6667V39.5834H33.3334V41.6667C33.3334 42.2192 33.5529 42.7491 33.9436 43.1398C34.3343 43.5305 34.8642 43.75 35.4167 43.75H37.5C38.0526 43.75 38.5825 43.5305 38.9732 43.1398C39.3639 42.7491 39.5834 42.2192 39.5834 41.6667V37.9584C40.8542 36.8125 41.6667 35.1667 41.6667 33.3334V12.5C41.6667 5.20835 34.2084 4.16669 25 4.16669C15.7917 4.16669 8.33337 5.20835 8.33337 12.5V33.3334Z" fill="#3A556A"/>
</svg>
