<svg width="19" height="20" viewBox="0 0 19 20" fill="none" xmlns="http://www.w3.org/2000/svg">
<path d="M9.86736 9.61061C8.53625 9.61061 7.40271 9.14262 6.46673 8.20665C5.53078 7.27068 5.0628 6.13713 5.0628 4.80602C5.0628 3.47492 5.53078 2.34392 6.46673 1.413C7.40271 0.482068 8.53625 0.0166016 9.86736 0.0166016C11.1985 0.0166016 12.332 0.482068 13.268 1.413C14.2039 2.34392 14.6719 3.47492 14.6719 4.80602C14.6719 6.13713 14.2039 7.27068 13.268 8.20665C12.332 9.14262 11.1985 9.61061 9.86736 9.61061ZM0.773438 19.2198V15.6717C0.773438 14.9701 0.956057 14.3252 1.3213 13.737C1.68655 13.1489 2.17181 12.7001 2.77708 12.3905C3.91547 11.8264 5.07659 11.4007 6.26041 11.1136C7.44422 10.8265 8.64654 10.683 9.86736 10.683C11.1075 10.683 12.3197 10.824 13.504 11.106C14.6882 11.3881 15.8394 11.8112 16.9576 12.3754C17.5629 12.6835 18.0482 13.1302 18.4134 13.7155C18.7787 14.3008 18.9613 14.9526 18.9613 15.6709V19.2198H0.773438Z" fill="white"/>
</svg>
