<svg width="63" height="63" viewBox="0 0 63 63" fill="none" xmlns="http://www.w3.org/2000/svg">
<g clip-path="url(#clip0_73_2739)">
<path d="M49.751 60.8643C50.1999 59.6102 49.5471 58.2298 48.2931 57.7809C47.0391 57.332 45.6586 57.9847 45.2097 59.2388C44.7609 60.4928 45.4136 61.8733 46.6676 62.3221C47.9216 62.771 49.3021 62.1183 49.751 60.8643Z" fill="#486284"/>
<path d="M21.5826 10.8773C24.4126 10.6558 26.529 8.17028 26.3076 5.36481C26.0615 2.53474 23.6005 0.418331 20.7705 0.639815C17.9404 0.885909 15.824 3.32224 16.0455 6.17692C16.2915 8.98239 18.7525 11.0988 21.5826 10.8773Z" fill="#486284"/>
<path d="M57.6844 53.8699L51.0399 37.6523C50.7692 37.0124 50.3016 36.5203 49.6864 36.3234C49.2434 36.1757 48.8004 36.1757 48.3821 36.348L40.827 39.4488C40.8024 39.4488 40.8024 39.4734 40.7778 39.4734L38.4645 33.8132C39.5965 33.5917 40.4332 32.5582 40.3348 31.3523C40.3102 31.2539 40.3102 31.1554 40.2856 31.057L36.9633 22.4929C36.8403 22.0499 36.5942 21.6562 36.2497 21.3855L25.9383 12.9937C24.9293 12.28 23.6743 11.8124 22.3454 11.9109C20.5735 12.0585 19.1215 13.1414 18.2356 14.4949L13.043 24.7816L5.98012 29.6296C5.38949 30.0972 5.02035 30.8601 5.06957 31.6476C5.16801 32.9273 6.30004 33.8871 7.57973 33.7886C7.94887 33.764 8.26879 33.6164 8.63793 33.4441L16.3407 28.1285C16.5868 27.9316 16.7836 27.7101 16.9067 27.4394L18.8508 23.6003L21.1641 33.8624L12.0586 44.6167C11.8618 44.9613 11.7141 45.3304 11.6403 45.7242L9.17934 58.7425C9.20394 59.0378 9.15473 59.2101 9.15473 59.4562C9.30238 61.3757 10.9758 62.8031 12.8954 62.6308C14.4704 62.5078 15.6516 61.3265 16.0207 59.8746L18.3586 47.6929L25.7661 39.5718L27.4887 47.4714C27.5379 47.8406 28.0301 48.6281 28.1778 48.948L35.2899 60.9328C36.0036 62.0402 37.1848 62.7292 38.5383 62.6308C40.4579 62.4832 41.8852 60.8097 41.7375 58.8902C41.6883 58.3488 41.4668 57.7828 41.27 57.389L34.65 46.2902L29.1868 21.9023L32.7797 24.8062L35.2899 30.8847L35.7329 31.9921C35.7821 32.189 35.8559 32.3859 35.9789 32.5828L45.6504 56.4539C46.6102 55.9617 47.7422 55.8632 48.825 56.257C50.0555 56.6999 50.9414 57.6843 51.3106 58.8656L56.7247 56.6507C57.709 56.257 58.152 55.0019 57.6844 53.8699Z" fill="#486284"/>
</g>
<defs>
<clipPath id="clip0_73_2739">
<rect width="63" height="63" fill="white"/>
</clipPath>
</defs>
</svg>
