<svg width="57" height="67" viewBox="0 0 57 67" fill="none" xmlns="http://www.w3.org/2000/svg">
<path fill-rule="evenodd" clip-rule="evenodd" d="M51.8926 19.9877C50.8948 21.1422 49.7331 22.1726 48.4283 23.0088C48.2696 23.1329 48.0496 23.149 47.8705 23.025C45.9464 21.7356 44.3243 20.1819 43.0552 18.4934C41.3 16.1737 40.1947 13.6004 39.816 11.1242C39.4322 8.61025 39.7904 6.19341 40.9776 4.22433C41.4484 3.45289 42.0471 2.74078 42.7737 2.13118C44.4471 0.728547 46.3558 -0.0159258 48.2645 0.000258382C50.0965 0.0164426 51.908 0.733942 53.4738 2.23907C54.0265 2.76775 54.487 3.36657 54.8657 4.02473C56.1399 6.24196 56.4162 9.0634 55.8533 11.928C55.3007 14.7602 53.9293 17.6356 51.8926 19.9877ZM12.2189 49.6641C11.221 50.8186 10.0594 51.849 8.75455 52.6852C8.59592 52.8093 8.37588 52.8255 8.19678 52.7014C6.27271 51.4066 4.65055 49.8583 3.38149 48.1698C1.6314 45.8555 0.526086 43.2822 0.147413 40.8006C-0.236378 38.2867 0.121827 35.8698 1.30902 33.9061C1.77468 33.1293 2.3734 32.4226 3.10516 31.813C4.77848 30.4103 6.6872 29.6659 8.5908 29.6821C10.4228 29.6982 12.2343 30.4157 13.8001 31.9209C14.3528 32.4496 14.8133 33.0484 15.192 33.7065C16.4662 35.9238 16.7425 38.7452 16.1796 41.6098C15.627 44.4366 14.2556 47.312 12.2189 49.6641ZM8.73409 55.5876C11.0419 55.5876 12.9916 57.2168 13.6057 59.4394H44.2936C45.8082 59.4394 47.1899 58.7866 48.1929 57.7293C49.1958 56.6719 49.815 55.2207 49.815 53.6185C49.815 52.0216 49.1958 50.5651 48.1929 49.5077C47.1899 48.4503 45.8134 47.7976 44.2936 47.7976H33.5577C31.1474 47.7976 28.9573 46.7618 27.371 45.0894C25.7846 43.417 24.8021 41.1081 24.8021 38.5672C24.8021 36.0263 25.7846 33.7173 27.371 32.045C28.9573 30.3726 31.1474 29.3368 33.5577 29.3368H43.265C43.9302 27.2005 45.839 25.6576 48.0854 25.6576C50.8896 25.6576 53.1617 28.0529 53.1617 31.0092C53.1617 33.9655 50.8896 36.3607 48.0854 36.3607C45.8594 36.3607 43.9712 34.8502 43.2855 32.7517H33.5577C32.043 32.7517 30.6613 33.4044 29.6583 34.4618C28.6554 35.5192 28.0362 36.9703 28.0362 38.5726C28.0362 40.1694 28.6554 41.626 29.6583 42.6834C30.6511 43.7299 32.0174 44.3827 33.5218 44.3935H44.2987C46.7089 44.3935 48.899 45.4293 50.4854 47.1016C52.0717 48.774 53.0542 51.083 53.0542 53.6239C53.0542 56.1648 52.0717 58.4737 50.4854 60.1461C48.899 61.8185 46.7089 62.8543 44.2987 62.8543H13.4777C12.746 64.8665 10.8987 66.2907 8.73409 66.2907C5.92986 66.2907 3.65782 63.8954 3.65782 60.9391C3.65782 57.9828 5.92986 55.5876 8.73409 55.5876ZM8.22748 34.1489C10.4893 34.1489 12.3212 36.0802 12.3212 38.4647C12.3212 40.8492 10.4893 42.7805 8.22748 42.7805C5.96568 42.7805 4.13372 40.8492 4.13372 38.4647C4.13372 36.0802 5.96568 34.1489 8.22748 34.1489ZM47.9012 4.46709C50.163 4.46709 51.9949 6.39841 51.9949 8.78288C51.9949 11.1673 50.163 13.0987 47.9012 13.0987C45.6394 13.0987 43.8074 11.1673 43.8074 8.78288C43.8074 6.39841 45.6394 4.46709 47.9012 4.46709Z" fill="#486284"/>
</svg>
