<svg width="356" height="86" viewBox="0 0 356 86" fill="none" xmlns="http://www.w3.org/2000/svg">
<path d="M355.138 6.40637C355.411 6.44557 355.664 6.25576 355.703 5.98241C355.743 5.70907 355.553 5.4557 355.279 5.41649L355.138 6.40637ZM0.528988 80.8734C42.5984 88.2405 72.5195 85.3534 97.0701 77.3322C121.604 69.3166 140.747 56.1793 161.223 43.133C181.708 30.081 203.564 17.0933 233.599 9.26705C263.633 1.44071 301.88 -1.23176 355.138 6.40637L355.279 5.41649C301.921 -2.2361 263.537 0.432499 233.346 8.29936C203.156 16.1663 181.193 29.2239 160.686 42.2897C140.169 55.3613 121.146 68.4142 96.7595 76.3817C72.3903 84.3436 42.6382 87.2323 0.701481 79.8884L0.528988 80.8734Z" fill="#1A202C"/>
</svg>
