<svg width="58" height="55" viewBox="0 0 58 55" fill="none" xmlns="http://www.w3.org/2000/svg">
<path fill-rule="evenodd" clip-rule="evenodd" d="M49.8006 46.7574H46.94V51.0162C46.9413 51.4159 46.8593 51.8118 46.6989 52.1815C46.5385 52.5512 46.3028 52.8873 46.0052 53.1708C45.7075 53.4542 45.3538 53.6794 44.9643 53.8334C44.5748 53.9874 44.157 54.0673 43.7348 54.0685H41.8467C40.9977 54.0649 40.1847 53.7441 39.5844 53.1758C38.9841 52.6075 38.6452 51.8378 38.6415 51.0341V46.7752H19.2688V51.0341C19.2651 51.8401 18.9242 52.6119 18.3209 53.1805C17.7176 53.7492 16.9009 54.0685 16.0495 54.0685H14.1613C13.3128 54.0649 12.5002 53.7439 11.9007 53.1755C11.3012 52.6071 10.9633 51.8374 10.9609 51.0341V46.7752H8.54399C6.87295 46.7484 6.07048 45.8815 5.94775 44.4112V9.61207C5.00366 9.70144 4.55522 9.90701 4.32864 10.3628V20.3061H2.29885C1.68954 20.3049 1.10554 20.0752 0.674696 19.6673C0.243848 19.2595 0.00124731 18.7066 0 18.1297L0 12.2576C0.00212468 11.6918 0.23601 11.1488 0.652442 10.7429C1.06887 10.337 1.63538 10.0998 2.23277 10.0813C2.4263 8.37419 3.20518 7.87814 6.00911 7.75301C6.40878 4.77376 8.55343 2.57061 12.4431 1.14354C20.8124 -0.308841 36.6919 -0.451845 45.5616 1.14354C49.4702 2.56912 51.6038 4.77227 51.9909 7.75301C54.8231 7.88708 55.5831 8.38759 55.7672 10.0813C56.3646 10.0998 56.9311 10.337 57.3476 10.7429C57.764 11.1488 57.9979 11.6918 58 12.2576V18.1297C57.9988 18.7066 57.7561 19.2595 57.3253 19.6673C56.8945 20.0752 56.3105 20.3049 55.7011 20.3061H53.6714V10.336C53.4448 9.88914 52.9775 9.69251 52.0522 9.6076V44.0537C52.0522 46.0468 51.3725 46.735 49.7959 46.735L49.8006 46.7574ZM7.61406 37.9224L7.74624 34.9327C7.82176 34.4099 8.11443 34.1775 8.6384 34.2624C11.2841 35.5995 13.8227 37.1185 16.2336 38.8072C16.7481 39.129 16.5451 39.7502 15.8654 39.634L8.72337 39.1424C8.41395 39.1003 8.13112 38.9535 7.92719 38.7292C7.72326 38.5049 7.61202 38.2183 7.61406 37.9224ZM24.5463 41.7567H33.6567C33.7744 41.7567 33.8873 41.801 33.9705 41.8797C34.0537 41.9585 34.1004 42.0654 34.1004 42.1768V43.6247C34.1004 43.7361 34.0537 43.8429 33.9705 43.9217C33.8873 44.0005 33.7744 44.0448 33.6567 44.0448H24.5463C24.4286 44.0448 24.3157 44.0005 24.2325 43.9217C24.1493 43.8429 24.1025 43.7361 24.1025 43.6247V42.1768C24.1025 42.0654 24.1493 41.9585 24.2325 41.8797C24.3157 41.801 24.4286 41.7567 24.5463 41.7567ZM48.3137 41.7567C48.5468 41.7585 48.7742 41.8253 48.9673 41.9489C49.1605 42.0724 49.3109 42.2472 49.3997 42.4513C49.4884 42.6553 49.5116 42.8797 49.4664 43.0962C49.4211 43.3127 49.3094 43.5117 49.1452 43.6684C48.981 43.825 48.7716 43.9324 48.5433 43.9769C48.315 44.0215 48.0778 44.0013 47.8616 43.9189C47.6453 43.8365 47.4596 43.6955 47.3275 43.5136C47.1955 43.3317 47.1231 43.1169 47.1194 42.8963C47.1194 42.5995 47.2436 42.3149 47.4647 42.1047C47.6859 41.8945 47.9861 41.7758 48.2995 41.7746L48.3137 41.7567ZM9.29926 41.7567C9.53216 41.7594 9.75907 41.827 9.95162 41.951C10.1442 42.0751 10.2938 42.2502 10.3819 42.4543C10.4699 42.6584 10.4924 42.8826 10.4467 43.0988C10.4009 43.315 10.2888 43.5137 10.1244 43.6699C9.96002 43.8261 9.75065 43.933 9.52246 43.9772C9.29426 44.0214 9.05737 44.001 8.84139 43.9184C8.62541 43.8359 8.43991 43.6949 8.3081 43.5131C8.17629 43.3313 8.104 43.1167 8.10027 42.8963C8.10027 42.5988 8.2251 42.3135 8.4473 42.1031C8.6695 41.8927 8.97086 41.7746 9.2851 41.7746L9.29926 41.7567ZM50.4048 37.9001L50.2726 34.9104C50.1971 34.3875 49.9045 34.1551 49.3852 34.24C46.7373 35.5761 44.1971 37.0951 41.7853 38.7849C41.2708 39.1067 41.4738 39.7278 42.1535 39.6116L49.2955 39.1201C49.6053 39.0788 49.8888 38.9323 50.0929 38.7078C50.297 38.4834 50.4079 38.1962 50.4048 37.9001ZM22.7478 2.72553H35.2569C35.4594 2.7267 35.6532 2.80335 35.7963 2.93886C35.9394 3.07438 36.0204 3.25784 36.0216 3.44948V5.35769C36.0204 5.54934 35.9394 5.7328 35.7963 5.86831C35.6532 6.00383 35.4594 6.08048 35.2569 6.08165H22.7478C22.5453 6.08048 22.3516 6.00383 22.2084 5.86831C22.0653 5.7328 21.9843 5.54934 21.9831 5.35769V3.44948C21.9843 3.25784 22.0653 3.07438 22.2084 2.93886C22.3516 2.80335 22.5453 2.7267 22.7478 2.72553ZM9.59193 8.44569H48.2429C48.4932 8.44569 48.7334 8.53986 48.9104 8.70747C49.0875 8.87508 49.1869 9.10242 49.1869 9.33946V28.6361C49.1869 29.1187 48.7668 29.3913 48.2429 29.5299C34.9832 33.3418 22.8469 33.1854 9.59193 29.5299C9.06796 29.3958 8.64784 29.1277 8.64784 28.6361V9.33053C8.64784 9.09348 8.7473 8.86615 8.92436 8.69853C9.10141 8.53092 9.34154 8.43675 9.59193 8.43675V8.44569Z" fill="#486284"/>
</svg>
