<svg width="24" height="24" viewBox="0 0 24 24" fill="none" xmlns="http://www.w3.org/2000/svg">
<path d="M10.6183 17.5016H12.9127V12.913H17.5013V10.6187H12.9127V6.03009H10.6183V10.6187H6.02972V12.913H10.6183V17.5016ZM11.7655 23.2374C10.1786 23.2374 8.6873 22.9363 7.2916 22.334C5.89589 21.7318 4.68182 20.9144 3.64938 19.882C2.61694 18.8496 1.79959 17.6355 1.19733 16.2398C0.595074 14.8441 0.293945 13.3528 0.293945 11.7659C0.293945 10.179 0.595074 8.68767 1.19733 7.29196C1.79959 5.89626 2.61694 4.68218 3.64938 3.64974C4.68182 2.6173 5.89589 1.79995 7.2916 1.1977C8.6873 0.59544 10.1786 0.294312 11.7655 0.294312C13.3524 0.294312 14.8437 0.59544 16.2394 1.1977C17.6351 1.79995 18.8492 2.6173 19.8816 3.64974C20.9141 4.68218 21.7314 5.89626 22.3337 7.29196C22.9359 8.68767 23.2371 10.179 23.2371 11.7659C23.2371 13.3528 22.9359 14.8441 22.3337 16.2398C21.7314 17.6355 20.9141 18.8496 19.8816 19.882C18.8492 20.9144 17.6351 21.7318 16.2394 22.334C14.8437 22.9363 13.3524 23.2374 11.7655 23.2374ZM11.7655 20.9431C14.3275 20.9431 16.4975 20.0541 18.2756 18.276C20.0537 16.4979 20.9427 14.3279 20.9427 11.7659C20.9427 9.20389 20.0537 7.03385 18.2756 5.25576C16.4975 3.47767 14.3275 2.58862 11.7655 2.58862C9.20352 2.58862 7.03349 3.47767 5.25539 5.25576C3.4773 7.03385 2.58826 9.20389 2.58826 11.7659C2.58826 14.3279 3.4773 16.4979 5.25539 18.276C7.03349 20.0541 9.20352 20.9431 11.7655 20.9431Z" fill="#3A556A"/>
</svg>
