<svg width="19" height="19" viewBox="0 0 19 19" fill="none" xmlns="http://www.w3.org/2000/svg">
<path d="M8.275 13.525L14.4438 7.35625L13.2188 6.13125L8.275 11.075L5.78125 8.58125L4.55625 9.80625L8.275 13.525ZM9.5 18.25C8.28958 18.25 7.15208 18.0203 6.0875 17.5609C5.02292 17.1016 4.09687 16.4781 3.30938 15.6906C2.52187 14.9031 1.89844 13.9771 1.43906 12.9125C0.979687 11.8479 0.75 10.7104 0.75 9.5C0.75 8.28958 0.979687 7.15208 1.43906 6.0875C1.89844 5.02292 2.52187 4.09687 3.30938 3.30938C4.09687 2.52187 5.02292 1.89844 6.0875 1.43906C7.15208 0.979687 8.28958 0.75 9.5 0.75C10.7104 0.75 11.8479 0.979687 12.9125 1.43906C13.9771 1.89844 14.9031 2.52187 15.6906 3.30938C16.4781 4.09687 17.1016 5.02292 17.5609 6.0875C18.0203 7.15208 18.25 8.28958 18.25 9.5C18.25 10.7104 18.0203 11.8479 17.5609 12.9125C17.1016 13.9771 16.4781 14.9031 15.6906 15.6906C14.9031 16.4781 13.9771 17.1016 12.9125 17.5609C11.8479 18.0203 10.7104 18.25 9.5 18.25ZM9.5 16.5C11.4542 16.5 13.1094 15.8219 14.4656 14.4656C15.8219 13.1094 16.5 11.4542 16.5 9.5C16.5 7.54583 15.8219 5.89063 14.4656 4.53438C13.1094 3.17813 11.4542 2.5 9.5 2.5C7.54583 2.5 5.89063 3.17813 4.53438 4.53438C3.17813 5.89063 2.5 7.54583 2.5 9.5C2.5 11.4542 3.17813 13.1094 4.53438 14.4656C5.89063 15.8219 7.54583 16.5 9.5 16.5Z" fill="#0F8622"/>
</svg>
