<svg width="335" height="207" viewBox="0 0 335 207" fill="none" xmlns="http://www.w3.org/2000/svg">
<rect width="335" height="207" fill="#F5F5F5"/>
<g clip-path="url(#clip0_47_990)">
<rect width="1440" height="879" transform="translate(-563 -260)" fill="white"/>
<rect x="-563" y="-260" width="1440" height="879" fill="#EFF0F0"/>
<g opacity="0.06" filter="url(#filter0_f_47_990)">
<rect x="-38.2793" y="152" width="406.558" height="390.882" rx="10" fill="#486284"/>
</g>
<rect x="-91" y="152" width="512" height="426" rx="10" fill="#D3DCE7"/>
<path d="M334.138 189.707C334.138 199.258 326.442 207 316.947 207H17.1903C7.69895 207 0 199.258 0 189.707V17.2976C0 7.7439 7.69895 0 17.1903 0H316.947C326.442 0 334.138 7.7439 334.138 17.2976V189.707Z" fill="#576F8E"/>
<path d="M30.416 95.0267C30.416 99.3279 33.8964 102.807 38.1933 102.807H46.4331V94.1029H30.416V95.0267Z" fill="#DEE5ED"/>
<path d="M30.416 91.3407H46.4331V82.4613H30.416V91.3407Z" fill="#DEE5ED"/>
<path d="M30.416 67.1286V68.061H46.4331V59.3513H38.1933C33.8979 59.3499 30.416 62.8332 30.416 67.1286Z" fill="#DEE5ED"/>
<path d="M70.9198 59.3496H63.0033H60.2451H49.1963V68.0593V70.819V79.6984V82.4595V91.3389V94.1014V102.805H60.2451V94.1014V91.3389V82.4595V79.6984V70.819V68.0593H63.0033H78.7V67.1269C78.7 62.8329 75.2167 59.3496 70.9198 59.3496Z" fill="#DEE5ED"/>
<path d="M30.416 79.6998H46.4331V70.8204H30.416V79.6998Z" fill="#DEE5ED"/>
<path d="M63.0049 79.6998H78.7015V70.8204H63.0049V79.6998Z" fill="#DEE5ED"/>
<path d="M63.0049 91.3407H78.7015V82.4613H63.0049V91.3407Z" fill="#DEE5ED"/>
<path d="M63.0049 102.807H70.9214C75.2182 102.807 78.7015 99.3279 78.7015 95.0267V94.1029H63.0049V102.807Z" fill="#DEE5ED"/>
<path d="M44.402 37.3467C43.7059 37.6962 42.1339 38.0688 40.0877 38.0688C34.2783 38.0688 31.2881 34.455 31.2881 29.6666C31.2881 23.9355 35.3747 20.7466 40.4619 20.7466C42.4326 20.7466 43.9292 21.141 44.6006 21.4963L43.8306 24.5083C43.0548 24.1878 41.9845 23.8847 40.6388 23.8847C37.6195 23.8847 35.2775 25.7062 35.2775 29.4447C35.2775 32.8105 37.2715 34.9307 40.6649 34.9307C41.812 34.9307 43.0838 34.6798 43.832 34.3825L44.402 37.3467Z" fill="#DEE5ED"/>
<path d="M46.6621 29.6417C46.6621 27.8493 46.6113 26.6761 46.5635 25.6305H49.8264L49.9511 27.871H50.0526C50.6733 26.1004 52.1713 25.3564 53.3416 25.3564C53.6896 25.3564 53.8651 25.3564 54.1406 25.4014V28.9703C53.8665 28.9195 53.5431 28.8731 53.1211 28.8731C51.7217 28.8731 50.7762 29.6199 50.5268 30.7888C50.476 31.0397 50.4499 31.3355 50.4499 31.6386V37.8192H46.6621V29.6417Z" fill="#DEE5ED"/>
<path d="M63.307 30.3421C63.307 29.4213 62.9082 27.8725 61.1651 27.8725C59.567 27.8725 58.9188 29.3169 58.8201 30.3421H63.307ZM58.8462 32.9379C58.971 34.5056 60.5139 35.251 62.2846 35.251C63.584 35.251 64.6295 35.0755 65.6519 34.755L66.1478 37.3233C64.9021 37.8192 63.3838 38.0686 61.735 38.0686C57.5991 38.0686 55.2324 35.6759 55.2324 31.8634C55.2324 28.7702 57.1495 25.3579 61.3898 25.3579C65.327 25.3579 66.8222 28.4221 66.8222 31.4385C66.8222 32.0881 66.7482 32.6595 66.6975 32.9379H58.8462Z" fill="#DEE5ED"/>
<path d="M77.1116 30.7888C77.1116 30.5872 77.0855 30.3175 77.0608 30.1173C76.8375 29.095 76.0152 28.2452 74.8435 28.2452C73.1236 28.2452 72.223 29.7925 72.223 31.7154C72.223 33.7834 73.2483 35.074 74.8174 35.074C75.9137 35.074 76.7853 34.3286 77.0101 33.2584C77.0869 32.9843 77.1116 32.7117 77.1116 32.384V30.7888ZM80.9023 20.1213V34.1793C80.9023 35.5526 80.9531 36.9969 81.0009 37.8192H77.6365L77.4611 36.0268H77.4132C76.6403 37.3943 75.1698 38.0918 73.5978 38.0918C70.7062 38.0918 68.3859 35.628 68.3859 31.8372C68.3627 27.726 70.9295 25.3564 73.8472 25.3564C75.3453 25.3564 76.5155 25.8799 77.0623 26.7239H77.113V20.1199L80.9023 20.1213Z" fill="#DEE5ED"/>
<path d="M83.9357 37.819V25.6318H87.722V37.819H83.9357ZM87.8468 22.2413C87.8468 23.2898 87.0477 24.1338 85.8049 24.1338C84.6071 24.1338 83.8109 23.2898 83.837 22.2413C83.8109 21.1406 84.6071 20.3213 85.831 20.3213C87.0477 20.3198 87.8236 21.1406 87.8468 22.2413Z" fill="#DEE5ED"/>
<path d="M94.9954 22.1414V25.6305H97.7144V28.4206H94.9954V32.8334C94.9954 34.3068 95.3463 34.9768 96.4934 34.9768C96.969 34.9768 97.3432 34.9304 97.6144 34.8796L97.6434 37.7437C97.1416 37.9482 96.244 38.07 95.1737 38.07C93.9498 38.07 92.9303 37.6509 92.3329 37.0215C91.6339 36.2994 91.2815 35.1291 91.2815 33.4063V28.4206H89.6646V25.6305H91.2815V22.9854L94.9954 22.1414Z" fill="#DEE5ED"/>
<path d="M110.771 37.271C109.825 37.6959 108.304 38.0686 106.409 38.0686C102.171 38.0686 99.603 35.4017 99.603 31.115C99.603 27.9479 100.875 24.9315 103.192 23.01C104.915 21.541 107.058 20.7449 109.525 20.7449C111.394 20.7449 112.717 21.2147 113.165 21.5642L112.491 23.2334C111.867 22.8621 110.669 22.5373 109.174 22.5373C107.432 22.5373 105.659 23.2116 104.362 24.4298C102.796 25.9031 101.796 28.2669 101.796 30.8119C101.796 33.8283 103.169 36.2965 106.908 36.2965C108.176 36.2965 109.573 36.0514 110.497 35.5743L110.771 37.271Z" fill="#DEE5ED"/>
<path d="M122.059 27.3009C121.759 27.2255 121.308 27.1269 120.612 27.1269C117.497 27.1269 114.957 30.3927 114.93 33.7324C114.93 35.0753 115.403 36.3978 116.998 36.3978C118.718 36.3978 120.763 34.1573 121.36 30.9408L122.059 27.3009ZM120.711 37.819C120.711 37.0968 120.836 35.9497 120.988 34.704H120.937C119.614 37.1969 117.969 38.0916 116.25 38.0916C114.131 38.0916 112.786 36.3978 112.786 34.1036C112.786 29.917 115.873 25.4795 121.136 25.4795C122.283 25.4795 123.552 25.684 124.375 25.9522L123.154 32.2344C122.756 34.3299 122.582 36.4747 122.631 37.8204L120.711 37.819Z" fill="#DEE5ED"/>
<path d="M125.715 37.819L127.186 30.0446C127.483 28.4726 127.688 26.876 127.809 25.7536H129.628C129.529 26.6034 129.429 27.4474 129.304 28.374H129.378C130.154 26.7252 131.449 25.4795 133.069 25.4795C133.245 25.4795 133.494 25.5041 133.643 25.5302L133.245 27.575C133.12 27.546 132.918 27.5242 132.695 27.5242C130.903 27.5242 129.304 29.6937 128.781 32.5128L127.783 37.819H125.715Z" fill="#DEE5ED"/>
<path d="M142.861 27.6504C142.436 27.3719 141.737 27.1486 140.864 27.1486C137.976 27.1486 135.729 30.2172 135.729 33.4336C135.729 34.878 136.228 36.3963 138 36.3963C139.595 36.3963 141.513 34.5807 142.036 31.8617L142.861 27.6504ZM146.326 20.1211L143.683 34.0036C143.434 35.2493 143.235 36.6458 143.16 37.819H141.268L141.591 35.4262H141.543C140.447 37.149 138.923 38.0916 137.201 38.0916C134.859 38.0916 133.587 36.1716 133.587 33.7077C133.587 29.4225 136.779 25.4795 141.046 25.4795C141.816 25.4795 142.663 25.6549 143.188 25.9044L144.258 20.1225L146.326 20.1211Z" fill="#DEE5ED"/>
<path d="M255.635 36.015C255.899 36.0483 256.227 36.0483 256.689 36.0483C257.916 36.0483 258.998 35.6118 258.998 34.4285C258.998 33.2916 257.916 32.842 256.562 32.842H255.635V36.015ZM255.635 31.0206H256.527C257.948 31.0206 258.714 30.4739 258.714 29.6357C258.714 28.783 258.019 28.3349 256.791 28.3349C256.208 28.3349 255.867 28.3668 255.635 28.4016V31.0206ZM252.949 26.7165C253.66 26.5787 255.101 26.4816 256.453 26.4816C258.107 26.4816 259.124 26.6324 259.99 27.1138C260.825 27.5329 261.434 28.303 261.434 29.3181C261.434 30.3187 260.813 31.2584 259.458 31.7254V31.7587C260.825 32.1126 261.843 33.0784 261.843 34.5286C261.843 35.548 261.347 36.35 260.597 36.917C259.727 37.5681 258.27 37.9364 255.884 37.9364C254.553 37.9364 253.554 37.8494 252.951 37.7668V26.7165H252.949Z" fill="#DEE5ED"/>
<path d="M269.467 33.0264L268.719 30.6394C268.507 29.9738 268.294 29.1385 268.116 28.4671H268.079C267.898 29.1385 267.723 29.9883 267.53 30.6394L266.811 33.0264H269.467ZM266.425 34.9363L265.569 37.8192H262.757L266.425 26.5645H269.979L273.697 37.8192H270.783L269.853 34.9363H266.425Z" fill="#DEE5ED"/>
<path d="M275.303 37.8192V26.5645H278.47L280.957 30.6902C281.674 31.8735 282.384 33.2773 282.921 34.5476H282.969C282.79 33.0612 282.74 31.54 282.74 29.8505V26.5645H285.233V37.8192H282.386L279.822 33.476C279.114 32.2767 278.333 30.8236 277.74 29.5068L277.686 29.5213C277.757 31.0078 277.796 32.5943 277.796 34.4302V37.8207L275.303 37.8192Z" fill="#DEE5ED"/>
<path d="M287.581 26.5645H290.271V31.54H290.321C290.585 31.1064 290.874 30.7047 291.139 30.3015L293.864 26.5645H297.186L293.219 31.3558L297.403 37.8192H294.235L291.299 32.9611L290.271 34.1445V37.8178H287.581V26.5645Z" fill="#DEE5ED"/>
<path d="M32.616 134L33.088 130.904H31.224L31.44 129.6H33.28L33.672 126.976H31.888L32.088 125.696H33.872L34.312 122.8H35.672L35.24 125.696H37.384L37.84 122.8H39.192L38.752 125.696H40.624L40.432 126.976H38.56L38.152 129.6H39.96L39.76 130.904H37.96L37.488 134H36.128L36.6 130.904H34.448L33.976 134H32.616ZM34.64 129.6H36.792L37.192 126.976H35.048L34.64 129.6ZM42.4754 134L42.9474 130.904H41.0834L41.2994 129.6H43.1394L43.5314 126.976H41.7474L41.9474 125.696H43.7314L44.1714 122.8H45.5314L45.0994 125.696H47.2434L47.6994 122.8H49.0514L48.6114 125.696H50.4834L50.2914 126.976H48.4194L48.0114 129.6H49.8194L49.6194 130.904H47.8194L47.3474 134H45.9874L46.4594 130.904H44.3074L43.8354 134H42.4754ZM44.4994 129.6H46.6514L47.0514 126.976H44.9074L44.4994 129.6ZM52.3348 134L52.8068 130.904H50.9428L51.1588 129.6H52.9988L53.3908 126.976H51.6068L51.8068 125.696H53.5908L54.0308 122.8H55.3908L54.9588 125.696H57.1028L57.5588 122.8H58.9108L58.4708 125.696H60.3428L60.1508 126.976H58.2788L57.8708 129.6H59.6788L59.4788 130.904H57.6788L57.2068 134H55.8468L56.3188 130.904H54.1668L53.6948 134H52.3348ZM54.3588 129.6H56.5108L56.9108 126.976H54.7668L54.3588 129.6ZM62.1941 134L62.6661 130.904H60.8021L61.0181 129.6H62.8581L63.2501 126.976H61.4661L61.6661 125.696H63.4501L63.8901 122.8H65.2501L64.8181 125.696H66.9621L67.4181 122.8H68.7701L68.3301 125.696H70.2021L70.0101 126.976H68.1381L67.7301 129.6H69.5381L69.3381 130.904H67.5381L67.0661 134H65.7061L66.1781 130.904H64.0261L63.5541 134H62.1941ZM64.2181 129.6H66.3701L66.7701 126.976H64.6261L64.2181 129.6ZM91.7723 134L92.2443 130.904H90.3803L90.5963 129.6H92.4363L92.8283 126.976H91.0443L91.2443 125.696H93.0283L93.4683 122.8H94.8283L94.3963 125.696H96.5403L96.9963 122.8H98.3483L97.9083 125.696H99.7803L99.5883 126.976H97.7163L97.3083 129.6H99.1163L98.9163 130.904H97.1163L96.6443 134H95.2843L95.7563 130.904H93.6043L93.1323 134H91.7723ZM93.7963 129.6H95.9483L96.3483 126.976H94.2043L93.7963 129.6ZM101.632 134L102.104 130.904H100.24L100.456 129.6H102.296L102.688 126.976H100.904L101.104 125.696H102.888L103.328 122.8H104.688L104.256 125.696H106.4L106.856 122.8H108.208L107.768 125.696H109.64L109.448 126.976H107.576L107.168 129.6H108.976L108.776 130.904H106.976L106.504 134H105.144L105.616 130.904H103.464L102.992 134H101.632ZM103.656 129.6H105.808L106.208 126.976H104.064L103.656 129.6ZM111.491 134L111.963 130.904H110.099L110.315 129.6H112.155L112.547 126.976H110.763L110.963 125.696H112.747L113.187 122.8H114.547L114.115 125.696H116.259L116.715 122.8H118.067L117.627 125.696H119.499L119.307 126.976H117.435L117.027 129.6H118.835L118.635 130.904H116.835L116.363 134H115.003L115.475 130.904H113.323L112.851 134H111.491ZM113.515 129.6H115.667L116.067 126.976H113.923L113.515 129.6ZM121.35 134L121.822 130.904H119.958L120.174 129.6H122.014L122.406 126.976H120.622L120.822 125.696H122.606L123.046 122.8H124.406L123.974 125.696H126.118L126.574 122.8H127.926L127.486 125.696H129.358L129.166 126.976H127.294L126.886 129.6H128.694L128.494 130.904H126.694L126.222 134H124.862L125.334 130.904H123.182L122.71 134H121.35ZM123.374 129.6H125.526L125.926 126.976H123.782L123.374 129.6ZM150.929 134L151.401 130.904H149.537L149.753 129.6H151.593L151.985 126.976H150.201L150.401 125.696H152.185L152.625 122.8H153.985L153.553 125.696H155.697L156.153 122.8H157.505L157.065 125.696H158.937L158.745 126.976H156.873L156.465 129.6H158.273L158.073 130.904H156.273L155.801 134H154.441L154.913 130.904H152.761L152.289 134H150.929ZM152.953 129.6H155.105L155.505 126.976H153.361L152.953 129.6ZM160.788 134L161.26 130.904H159.396L159.612 129.6H161.452L161.844 126.976H160.06L160.26 125.696H162.044L162.484 122.8H163.844L163.412 125.696H165.556L166.012 122.8H167.364L166.924 125.696H168.796L168.604 126.976H166.732L166.324 129.6H168.132L167.932 130.904H166.132L165.66 134H164.3L164.772 130.904H162.62L162.148 134H160.788ZM162.812 129.6H164.964L165.364 126.976H163.22L162.812 129.6ZM170.647 134L171.119 130.904H169.255L169.471 129.6H171.311L171.703 126.976H169.919L170.119 125.696H171.903L172.343 122.8H173.703L173.271 125.696H175.415L175.871 122.8H177.223L176.783 125.696H178.655L178.463 126.976H176.591L176.183 129.6H177.991L177.791 130.904H175.991L175.519 134H174.159L174.631 130.904H172.479L172.007 134H170.647ZM172.671 129.6H174.823L175.223 126.976H173.079L172.671 129.6ZM180.507 134L180.979 130.904H179.115L179.331 129.6H181.171L181.563 126.976H179.779L179.979 125.696H181.763L182.203 122.8H183.563L183.131 125.696H185.275L185.731 122.8H187.083L186.643 125.696H188.515L188.323 126.976H186.451L186.043 129.6H187.851L187.651 130.904H185.851L185.379 134H184.019L184.491 130.904H182.339L181.867 134H180.507ZM182.531 129.6H184.683L185.083 126.976H182.939L182.531 129.6ZM210.085 134L210.557 130.904H208.693L208.909 129.6H210.749L211.141 126.976H209.357L209.557 125.696H211.341L211.781 122.8H213.141L212.709 125.696H214.853L215.309 122.8H216.661L216.221 125.696H218.093L217.901 126.976H216.029L215.621 129.6H217.429L217.229 130.904H215.429L214.957 134H213.597L214.069 130.904H211.917L211.445 134H210.085ZM212.109 129.6H214.261L214.661 126.976H212.517L212.109 129.6ZM219.944 134L220.416 130.904H218.552L218.768 129.6H220.608L221 126.976H219.216L219.416 125.696H221.2L221.64 122.8H223L222.568 125.696H224.712L225.168 122.8H226.52L226.08 125.696H227.952L227.76 126.976H225.888L225.48 129.6H227.288L227.088 130.904H225.288L224.816 134H223.456L223.928 130.904H221.776L221.304 134H219.944ZM221.968 129.6H224.12L224.52 126.976H222.376L221.968 129.6ZM229.804 134L230.276 130.904H228.412L228.628 129.6H230.468L230.86 126.976H229.076L229.276 125.696H231.06L231.5 122.8H232.86L232.428 125.696H234.572L235.028 122.8H236.38L235.94 125.696H237.812L237.62 126.976H235.748L235.34 129.6H237.148L236.948 130.904H235.148L234.676 134H233.316L233.788 130.904H231.636L231.164 134H229.804ZM231.828 129.6H233.98L234.38 126.976H232.236L231.828 129.6ZM239.663 134L240.135 130.904H238.271L238.487 129.6H240.327L240.719 126.976H238.935L239.135 125.696H240.919L241.359 122.8H242.719L242.287 125.696H244.431L244.887 122.8H246.239L245.799 125.696H247.671L247.479 126.976H245.607L245.199 129.6H247.007L246.807 130.904H245.007L244.535 134H243.175L243.647 130.904H241.495L241.023 134H239.663ZM241.687 129.6H243.839L244.239 126.976H242.095L241.687 129.6Z" fill="white"/>
<path d="M34.9075 157V147.857H31.885V146.5H39.355V147.857H36.325V157H34.9075ZM44.3232 156.85V149.335H45.7107V156.85H44.3232ZM42.2082 157V155.77H47.8257V157H42.2082ZM42.2082 150.565V149.335H45.1482V150.565H42.2082ZM45.0132 148.015C44.7732 148.015 44.5707 147.932 44.4057 147.767C44.2407 147.597 44.1582 147.392 44.1582 147.152C44.1582 146.907 44.2407 146.702 44.4057 146.537C44.5707 146.367 44.7732 146.282 45.0132 146.282C45.2632 146.282 45.4682 146.367 45.6282 146.537C45.7932 146.702 45.8757 146.907 45.8757 147.152C45.8757 147.392 45.7932 147.597 45.6282 147.767C45.4682 147.932 45.2632 148.015 45.0132 148.015ZM54.8038 157.18C54.0788 157.18 53.5588 157.005 53.2438 156.655C52.9288 156.3 52.7713 155.822 52.7713 155.222V150.565H51.0613V149.335H52.7713V146.845L54.1588 146.17V149.335H56.7463V150.565H54.1588V154.832C54.1588 155.047 54.1888 155.237 54.2488 155.402C54.3088 155.567 54.4188 155.695 54.5788 155.785C54.7388 155.875 54.9663 155.92 55.2613 155.92C55.5913 155.92 55.8613 155.877 56.0713 155.792C56.2863 155.707 56.4788 155.615 56.6488 155.515L56.4838 156.835C56.2788 156.94 56.0463 157.023 55.7863 157.083C55.5313 157.148 55.2038 157.18 54.8038 157.18ZM63.057 157.18C62.457 157.18 61.942 157.067 61.512 156.842C61.082 156.612 60.752 156.247 60.522 155.747C60.292 155.242 60.177 154.575 60.177 153.745V149.335H61.5795V153.767C61.5795 154.537 61.742 155.08 62.067 155.395C62.397 155.71 62.802 155.867 63.282 155.867C63.617 155.867 63.922 155.805 64.197 155.68C64.477 155.555 64.6995 155.342 64.8645 155.042C65.0295 154.737 65.112 154.322 65.112 153.797V149.335H66.5145V157H65.112V156.25C64.872 156.56 64.5795 156.792 64.2345 156.947C63.8895 157.103 63.497 157.18 63.057 157.18ZM71.8952 157V146.425L73.2827 146.17V157H71.8952ZM69.7202 157V155.77H75.4577V157H69.7202ZM70.0652 147.4L69.4352 146.17H73.2827L73.0052 147.4H70.0652ZM81.3033 157.18C80.7683 157.18 80.2933 157.085 79.8783 156.895C79.4633 156.7 79.1358 156.412 78.8958 156.032C78.6558 155.652 78.5358 155.177 78.5358 154.607C78.5358 154.017 78.6783 153.537 78.9633 153.167C79.2533 152.792 79.6233 152.517 80.0733 152.342C80.5283 152.162 81.0058 152.072 81.5058 152.072C81.8858 152.072 82.2383 152.11 82.5633 152.185C82.8933 152.255 83.2183 152.375 83.5383 152.545V151.997C83.5383 151.567 83.4683 151.235 83.3283 151C83.1883 150.765 82.9958 150.602 82.7508 150.512C82.5108 150.417 82.2408 150.37 81.9408 150.37C81.5258 150.37 81.1008 150.45 80.6658 150.61C80.2308 150.765 79.8458 150.952 79.5108 151.172L79.0983 150.017C79.4483 149.802 79.8833 149.605 80.4033 149.425C80.9283 149.245 81.4833 149.155 82.0683 149.155C82.3783 149.155 82.6958 149.19 83.0208 149.26C83.3458 149.33 83.6483 149.462 83.9283 149.657C84.2083 149.852 84.4333 150.132 84.6033 150.497C84.7783 150.862 84.8658 151.337 84.8658 151.922V157H83.5383V156.325C83.2833 156.56 82.9708 156.762 82.6008 156.932C82.2308 157.097 81.7983 157.18 81.3033 157.18ZM81.5133 155.965C81.9783 155.965 82.3783 155.862 82.7133 155.657C83.0533 155.452 83.3283 155.23 83.5383 154.99V153.752C83.3133 153.617 83.0358 153.502 82.7058 153.407C82.3758 153.312 82.0383 153.265 81.6933 153.265C81.2033 153.265 80.7733 153.372 80.4033 153.587C80.0383 153.802 79.8558 154.142 79.8558 154.607C79.8558 155.007 80.0008 155.335 80.2908 155.59C80.5808 155.84 80.9883 155.965 81.5133 155.965ZM87.224 157V155.77H88.829V150.565H87.224V149.335H90.149V151.045L90.059 150.827C90.199 150.492 90.419 150.2 90.719 149.95C91.024 149.695 91.3765 149.5 91.7765 149.365C92.1765 149.225 92.589 149.155 93.014 149.155C93.404 149.155 93.739 149.192 94.019 149.267C94.304 149.337 94.5315 149.425 94.7015 149.53V152.23H93.329V149.942L93.824 150.58C93.689 150.545 93.554 150.522 93.419 150.512C93.284 150.497 93.149 150.49 93.014 150.49C92.469 150.49 91.9865 150.577 91.5665 150.752C91.1515 150.922 90.8265 151.172 90.5915 151.502C90.3565 151.832 90.239 152.232 90.239 152.702V155.77H92.459V157H87.224ZM109.318 157.18C108.633 157.18 108.04 157.02 107.54 156.7C107.045 156.375 106.663 155.912 106.393 155.312C106.128 154.707 105.995 153.99 105.995 153.16C105.995 152.325 106.133 151.61 106.408 151.015C106.683 150.415 107.068 149.955 107.563 149.635C108.058 149.315 108.635 149.155 109.295 149.155C109.775 149.155 110.18 149.227 110.51 149.372C110.845 149.512 111.115 149.682 111.32 149.882V146.83L112.708 146.17V157H111.32V156.377C111.135 156.582 110.878 156.767 110.548 156.932C110.218 157.097 109.808 157.18 109.318 157.18ZM109.498 155.882C109.918 155.882 110.28 155.797 110.585 155.627C110.89 155.457 111.135 155.217 111.32 154.907V151.375C111.185 151.165 110.97 150.957 110.675 150.752C110.38 150.547 109.983 150.445 109.483 150.445C108.818 150.445 108.305 150.68 107.945 151.15C107.59 151.615 107.413 152.285 107.413 153.16C107.413 153.68 107.495 154.145 107.66 154.555C107.83 154.965 108.07 155.29 108.38 155.53C108.69 155.765 109.063 155.882 109.498 155.882ZM118.966 157.18C118.226 157.18 117.591 157.005 117.061 156.655C116.531 156.3 116.123 155.82 115.838 155.215C115.558 154.61 115.418 153.925 115.418 153.16C115.418 152.32 115.563 151.602 115.853 151.007C116.148 150.407 116.561 149.95 117.091 149.635C117.626 149.315 118.251 149.155 118.966 149.155C119.556 149.155 120.096 149.285 120.586 149.545C121.076 149.805 121.466 150.205 121.756 150.745C122.051 151.285 122.198 151.977 122.198 152.822C122.198 152.927 122.196 153.057 122.191 153.213C122.191 153.367 122.178 153.535 122.153 153.715H116.498V152.507H120.818C120.803 151.967 120.698 151.542 120.503 151.232C120.313 150.922 120.078 150.705 119.798 150.58C119.518 150.45 119.241 150.385 118.966 150.385C118.216 150.385 117.666 150.622 117.316 151.097C116.966 151.572 116.791 152.212 116.791 153.017C116.791 153.907 116.986 154.615 117.376 155.14C117.766 155.665 118.306 155.927 118.996 155.927C119.316 155.927 119.621 155.875 119.911 155.77C120.206 155.66 120.488 155.487 120.758 155.252L121.561 156.152C121.246 156.447 120.866 156.692 120.421 156.887C119.981 157.082 119.496 157.18 118.966 157.18ZM136.597 157V146.425L137.985 146.17V157H136.597ZM134.422 157V155.77H140.16V157H134.422ZM134.767 147.4L134.137 146.17H137.985L137.707 147.4H134.767ZM146.005 157.18C145.47 157.18 144.995 157.085 144.58 156.895C144.165 156.7 143.838 156.412 143.598 156.032C143.358 155.652 143.238 155.177 143.238 154.607C143.238 154.017 143.38 153.537 143.665 153.167C143.955 152.792 144.325 152.517 144.775 152.342C145.23 152.162 145.708 152.072 146.208 152.072C146.588 152.072 146.94 152.11 147.265 152.185C147.595 152.255 147.92 152.375 148.24 152.545V151.997C148.24 151.567 148.17 151.235 148.03 151C147.89 150.765 147.698 150.602 147.453 150.512C147.213 150.417 146.943 150.37 146.643 150.37C146.228 150.37 145.803 150.45 145.368 150.61C144.933 150.765 144.548 150.952 144.213 151.172L143.8 150.017C144.15 149.802 144.585 149.605 145.105 149.425C145.63 149.245 146.185 149.155 146.77 149.155C147.08 149.155 147.398 149.19 147.723 149.26C148.048 149.33 148.35 149.462 148.63 149.657C148.91 149.852 149.135 150.132 149.305 150.497C149.48 150.862 149.568 151.337 149.568 151.922V157H148.24V156.325C147.985 156.56 147.673 156.762 147.303 156.932C146.933 157.097 146.5 157.18 146.005 157.18ZM146.215 155.965C146.68 155.965 147.08 155.862 147.415 155.657C147.755 155.452 148.03 155.23 148.24 154.99V153.752C148.015 153.617 147.738 153.502 147.408 153.407C147.078 153.312 146.74 153.265 146.395 153.265C145.905 153.265 145.475 153.372 145.105 153.587C144.74 153.802 144.558 154.142 144.558 154.607C144.558 155.007 144.703 155.335 144.993 155.59C145.283 155.84 145.69 155.965 146.215 155.965ZM165.722 157.18C164.997 157.18 164.477 157.005 164.162 156.655C163.847 156.3 163.689 155.822 163.689 155.222V150.565H161.979V149.335H163.689V146.845L165.077 146.17V149.335H167.664V150.565H165.077V154.832C165.077 155.047 165.107 155.237 165.167 155.402C165.227 155.567 165.337 155.695 165.497 155.785C165.657 155.875 165.884 155.92 166.179 155.92C166.509 155.92 166.779 155.877 166.989 155.792C167.204 155.707 167.397 155.615 167.567 155.515L167.402 156.835C167.197 156.94 166.964 157.023 166.704 157.083C166.449 157.148 166.122 157.18 165.722 157.18ZM173.735 157.18C173.2 157.18 172.725 157.085 172.31 156.895C171.895 156.7 171.567 156.412 171.327 156.032C171.087 155.652 170.967 155.177 170.967 154.607C170.967 154.017 171.11 153.537 171.395 153.167C171.685 152.792 172.055 152.517 172.505 152.342C172.96 152.162 173.437 152.072 173.937 152.072C174.317 152.072 174.67 152.11 174.995 152.185C175.325 152.255 175.65 152.375 175.97 152.545V151.997C175.97 151.567 175.9 151.235 175.76 151C175.62 150.765 175.427 150.602 175.182 150.512C174.942 150.417 174.672 150.37 174.372 150.37C173.957 150.37 173.532 150.45 173.097 150.61C172.662 150.765 172.277 150.952 171.942 151.172L171.53 150.017C171.88 149.802 172.315 149.605 172.835 149.425C173.36 149.245 173.915 149.155 174.5 149.155C174.81 149.155 175.127 149.19 175.452 149.26C175.777 149.33 176.08 149.462 176.36 149.657C176.64 149.852 176.865 150.132 177.035 150.497C177.21 150.862 177.297 151.337 177.297 151.922V157H175.97V156.325C175.715 156.56 175.402 156.762 175.032 156.932C174.662 157.097 174.23 157.18 173.735 157.18ZM173.945 155.965C174.41 155.965 174.81 155.862 175.145 155.657C175.485 155.452 175.76 155.23 175.97 154.99V153.752C175.745 153.617 175.467 153.502 175.137 153.407C174.807 153.312 174.47 153.265 174.125 153.265C173.635 153.265 173.205 153.372 172.835 153.587C172.47 153.802 172.287 154.142 172.287 154.607C172.287 155.007 172.432 155.335 172.722 155.59C173.012 155.84 173.42 155.965 173.945 155.965ZM179.656 157V155.77H181.261V150.565H179.656V149.335H182.581V151.045L182.491 150.827C182.631 150.492 182.851 150.2 183.151 149.95C183.456 149.695 183.808 149.5 184.208 149.365C184.608 149.225 185.021 149.155 185.446 149.155C185.836 149.155 186.171 149.192 186.451 149.267C186.736 149.337 186.963 149.425 187.133 149.53V152.23H185.761V149.942L186.256 150.58C186.121 150.545 185.986 150.522 185.851 150.512C185.716 150.497 185.581 150.49 185.446 150.49C184.901 150.49 184.418 150.577 183.998 150.752C183.583 150.922 183.258 151.172 183.023 151.502C182.788 151.832 182.671 152.232 182.671 152.702V155.77H184.891V157H179.656ZM191.186 160.203L190.511 159.063C191.111 158.983 191.576 158.87 191.906 158.725C192.241 158.58 192.471 158.378 192.596 158.118C192.726 157.863 192.791 157.528 192.791 157.113V149.335H194.179V157.143C194.179 157.693 194.106 158.155 193.961 158.53C193.816 158.91 193.591 159.223 193.286 159.468C193.051 159.673 192.759 159.833 192.409 159.948C192.064 160.068 191.656 160.153 191.186 160.203ZM190.676 150.565V149.335H193.684V150.565H190.676ZM193.481 148.015C193.241 148.015 193.039 147.932 192.874 147.767C192.709 147.597 192.626 147.392 192.626 147.152C192.626 146.907 192.709 146.702 192.874 146.537C193.039 146.367 193.241 146.282 193.481 146.282C193.731 146.282 193.936 146.367 194.096 146.537C194.261 146.702 194.344 146.907 194.344 147.152C194.344 147.392 194.261 147.597 194.096 147.767C193.936 147.932 193.731 148.015 193.481 148.015ZM202.154 157.18C201.414 157.18 200.779 157.005 200.249 156.655C199.719 156.3 199.312 155.82 199.027 155.215C198.747 154.61 198.607 153.925 198.607 153.16C198.607 152.32 198.752 151.602 199.042 151.007C199.337 150.407 199.749 149.95 200.279 149.635C200.814 149.315 201.439 149.155 202.154 149.155C202.744 149.155 203.284 149.285 203.774 149.545C204.264 149.805 204.654 150.205 204.944 150.745C205.239 151.285 205.387 151.977 205.387 152.822C205.387 152.927 205.384 153.057 205.379 153.213C205.379 153.367 205.367 153.535 205.342 153.715H199.687V152.507H204.007C203.992 151.967 203.887 151.542 203.692 151.232C203.502 150.922 203.267 150.705 202.987 150.58C202.707 150.45 202.429 150.385 202.154 150.385C201.404 150.385 200.854 150.622 200.504 151.097C200.154 151.572 199.979 152.212 199.979 153.017C199.979 153.907 200.174 154.615 200.564 155.14C200.954 155.665 201.494 155.927 202.184 155.927C202.504 155.927 202.809 155.875 203.099 155.77C203.394 155.66 203.677 155.487 203.947 155.252L204.749 156.152C204.434 156.447 204.054 156.692 203.609 156.887C203.169 157.082 202.684 157.18 202.154 157.18ZM211.938 157.18C211.213 157.18 210.693 157.005 210.378 156.655C210.063 156.3 209.905 155.822 209.905 155.222V150.565H208.195V149.335H209.905V146.845L211.293 146.17V149.335H213.88V150.565H211.293V154.832C211.293 155.047 211.323 155.237 211.383 155.402C211.443 155.567 211.553 155.695 211.713 155.785C211.873 155.875 212.1 155.92 212.395 155.92C212.725 155.92 212.995 155.877 213.205 155.792C213.42 155.707 213.613 155.615 213.783 155.515L213.618 156.835C213.413 156.94 213.18 157.023 212.92 157.083C212.665 157.148 212.338 157.18 211.938 157.18ZM219.951 157.18C219.416 157.18 218.941 157.085 218.526 156.895C218.111 156.7 217.783 156.412 217.543 156.032C217.303 155.652 217.183 155.177 217.183 154.607C217.183 154.017 217.326 153.537 217.611 153.167C217.901 152.792 218.271 152.517 218.721 152.342C219.176 152.162 219.653 152.072 220.153 152.072C220.533 152.072 220.886 152.11 221.211 152.185C221.541 152.255 221.866 152.375 222.186 152.545V151.997C222.186 151.567 222.116 151.235 221.976 151C221.836 150.765 221.643 150.602 221.398 150.512C221.158 150.417 220.888 150.37 220.588 150.37C220.173 150.37 219.748 150.45 219.313 150.61C218.878 150.765 218.493 150.952 218.158 151.172L217.746 150.017C218.096 149.802 218.531 149.605 219.051 149.425C219.576 149.245 220.131 149.155 220.716 149.155C221.026 149.155 221.343 149.19 221.668 149.26C221.993 149.33 222.296 149.462 222.576 149.657C222.856 149.852 223.081 150.132 223.251 150.497C223.426 150.862 223.513 151.337 223.513 151.922V157H222.186V156.325C221.931 156.56 221.618 156.762 221.248 156.932C220.878 157.097 220.446 157.18 219.951 157.18ZM220.161 155.965C220.626 155.965 221.026 155.862 221.361 155.657C221.701 155.452 221.976 155.23 222.186 154.99V153.752C221.961 153.617 221.683 153.502 221.353 153.407C221.023 153.312 220.686 153.265 220.341 153.265C219.851 153.265 219.421 153.372 219.051 153.587C218.686 153.802 218.503 154.142 218.503 154.607C218.503 155.007 218.648 155.335 218.938 155.59C219.228 155.84 219.636 155.965 220.161 155.965Z" fill="white"/>
<path d="M225.365 179V168.5H226.843L228.403 174.657C228.458 174.867 228.505 175.06 228.545 175.235C228.585 175.405 228.615 175.57 228.635 175.73C228.655 175.57 228.685 175.405 228.725 175.235C228.77 175.06 228.818 174.867 228.868 174.657L230.45 168.5H231.875V179H230.6V172.632C230.6 172.522 230.6 172.377 230.6 172.197C230.605 172.012 230.615 171.847 230.63 171.702C230.595 171.852 230.555 172.007 230.51 172.167C230.47 172.322 230.43 172.477 230.39 172.632L228.718 179H228.523L226.85 172.632C226.815 172.477 226.775 172.322 226.73 172.167C226.69 172.007 226.65 171.852 226.61 171.702C226.62 171.847 226.628 172.012 226.633 172.197C226.638 172.377 226.64 172.522 226.64 172.632V179H225.365ZM234.608 179V168.5H236.086L237.646 174.657C237.701 174.867 237.748 175.06 237.788 175.235C237.828 175.405 237.858 175.57 237.878 175.73C237.898 175.57 237.928 175.405 237.968 175.235C238.013 175.06 238.061 174.867 238.111 174.657L239.693 168.5H241.118V179H239.843V172.632C239.843 172.522 239.843 172.377 239.843 172.197C239.848 172.012 239.858 171.847 239.873 171.702C239.838 171.852 239.798 172.007 239.753 172.167C239.713 172.322 239.673 172.477 239.633 172.632L237.961 179H237.766L236.093 172.632C236.058 172.477 236.018 172.322 235.973 172.167C235.933 172.007 235.893 171.852 235.853 171.702C235.863 171.847 235.871 172.012 235.876 172.197C235.881 172.377 235.883 172.522 235.883 172.632V179H234.608ZM252.697 180.95L258.592 168.32H259.987L254.092 180.95H252.697ZM270.756 179L274.206 168.5H275.451L278.916 179H277.423L275.106 171.552C275.086 171.487 275.056 171.39 275.016 171.26C274.981 171.125 274.946 170.987 274.911 170.847C274.876 170.707 274.848 170.59 274.828 170.495C274.808 170.59 274.781 170.707 274.746 170.847C274.711 170.987 274.676 171.122 274.641 171.253C274.611 171.382 274.583 171.482 274.558 171.552L272.263 179H270.756ZM272.661 176.487L273.058 175.213H276.606L277.003 176.487H272.661ZM279.999 179L283.449 168.5H284.694L288.159 179H286.666L284.349 171.552C284.329 171.487 284.299 171.39 284.259 171.26C284.224 171.125 284.189 170.987 284.154 170.847C284.119 170.707 284.091 170.59 284.071 170.495C284.051 170.59 284.024 170.707 283.989 170.847C283.954 170.987 283.919 171.122 283.884 171.253C283.854 171.382 283.826 171.482 283.801 171.552L281.506 179H279.999ZM281.904 176.487L282.301 175.213H285.849L286.246 176.487H281.904ZM289.242 179L292.692 168.5H293.937L297.402 179H295.91L293.592 171.552C293.572 171.487 293.542 171.39 293.502 171.26C293.467 171.125 293.432 170.987 293.397 170.847C293.362 170.707 293.335 170.59 293.315 170.495C293.295 170.59 293.267 170.707 293.232 170.847C293.197 170.987 293.162 171.122 293.127 171.253C293.097 171.382 293.07 171.482 293.045 171.552L290.75 179H289.242ZM291.147 176.487L291.545 175.213H295.092L295.49 176.487H291.147ZM298.485 179L301.935 168.5H303.18L306.645 179H305.153L302.835 171.552C302.815 171.487 302.785 171.39 302.745 171.26C302.71 171.125 302.675 170.987 302.64 170.847C302.605 170.707 302.578 170.59 302.558 170.495C302.538 170.59 302.51 170.707 302.475 170.847C302.44 170.987 302.405 171.122 302.37 171.253C302.34 171.382 302.313 171.482 302.288 171.552L299.993 179H298.485ZM300.39 176.487L300.788 175.213H304.335L304.733 176.487H300.39Z" fill="white"/>
</g>
<rect x="-692" y="-525" width="1662" height="1293" stroke="#27C277" stroke-width="10"/>
<defs>
<filter id="filter0_f_47_990" x="-152.279" y="38" width="634.559" height="618.882" filterUnits="userSpaceOnUse" color-interpolation-filters="sRGB">
<feFlood flood-opacity="0" result="BackgroundImageFix"/>
<feBlend mode="normal" in="SourceGraphic" in2="BackgroundImageFix" result="shape"/>
<feGaussianBlur stdDeviation="57" result="effect1_foregroundBlur_47_990"/>
</filter>
<clipPath id="clip0_47_990">
<rect width="1440" height="879" fill="white" transform="translate(-563 -260)"/>
</clipPath>
</defs>
</svg>
