<svg width="12" height="13" viewBox="0 0 12 13" fill="none" xmlns="http://www.w3.org/2000/svg">
<path d="M12 1.89392C12 1.25188 11.357 0.774031 10.0341 0.432986C8.9511 0.153769 7.51844 0 6.00003 0C4.48168 0 3.04896 0.153769 1.96592 0.432986C0.643061 0.774031 0 1.25188 0 1.89392C0 2.13148 0.0883184 2.34653 0.266272 2.54053L4.3498 7.6483V12.5372C4.3498 12.6973 4.43004 12.846 4.56198 12.9305C4.6342 12.9767 4.71624 13 4.79858 13C4.86667 13 4.93488 12.984 4.99789 12.9519L7.39583 11.7262C7.54842 11.6482 7.64505 11.4879 7.64529 11.3122L7.6499 7.64861L11.734 2.54022C11.9118 2.34628 12 2.13142 12 1.89392ZM2.38591 1.28143C3.37483 1.05195 4.65832 0.925579 6.00003 0.925579C7.34174 0.925579 8.62529 1.05195 9.61409 1.28143C10.7061 1.53486 11.0131 1.80722 11.0865 1.89392C11.013 1.98062 10.7061 2.25298 9.61409 2.50641C8.62529 2.73589 7.34168 2.86226 6.00003 2.86226C4.65838 2.86226 3.37483 2.73589 2.38591 2.50647C1.29396 2.25304 0.986941 1.98068 0.913521 1.89398C0.986941 1.80722 1.29396 1.53486 2.38591 1.28143ZM6.85515 7.1878C6.78903 7.27054 6.75277 7.37433 6.75265 7.48158L6.74816 11.0243L5.24741 11.7914V7.48219C5.24741 7.37476 5.21121 7.27067 5.14491 7.1878L2.10863 3.38996C3.17336 3.64678 4.54708 3.7879 6.00003 3.7879C7.45304 3.7879 8.8267 3.64678 9.89143 3.38996L6.85515 7.1878Z" fill="white"/>
</svg>
