<svg width="14" height="14" viewBox="0 0 14 14" fill="none" xmlns="http://www.w3.org/2000/svg">
<path d="M7.00065 0.333252L7.01678 0.333407C7.03622 0.333781 7.05565 0.334831 7.07503 0.336557L7.00065 0.333252C7.04283 0.333252 7.08429 0.336386 7.12479 0.342435C7.13894 0.344609 7.15346 0.34717 7.16792 0.350119C7.18627 0.353785 7.20435 0.358113 7.22218 0.363019C7.2352 0.366667 7.24803 0.370526 7.26077 0.3747C7.27715 0.380021 7.29363 0.386015 7.30987 0.392505C7.32465 0.398416 7.33907 0.404651 7.35334 0.411313C7.37056 0.419399 7.38756 0.42808 7.40422 0.437315C7.41431 0.442834 7.4245 0.448758 7.43458 0.454915C7.45588 0.468018 7.47659 0.481994 7.49662 0.496847C7.50282 0.50138 7.50885 0.505989 7.51484 0.510692C7.51704 0.512478 7.51945 0.514395 7.52186 0.516326L7.58991 0.57733L13.4232 6.41066C13.7487 6.7361 13.7487 7.26374 13.4232 7.58917C13.0978 7.91461 12.5702 7.91461 12.2447 7.58917L7.83398 3.17825V12.8333C7.83398 13.2935 7.46089 13.6666 7.00065 13.6666C6.54041 13.6666 6.16732 13.2935 6.16732 12.8333V3.17825L1.75657 7.58917C1.43114 7.91461 0.903499 7.91461 0.578062 7.58917C0.252625 7.26374 0.252625 6.7361 0.578062 6.41066L6.4114 0.57733L6.47944 0.516326C6.48185 0.514395 6.48427 0.512478 6.48669 0.510574L6.4114 0.57733C6.44089 0.547835 6.47205 0.521013 6.50456 0.496864C6.52471 0.481994 6.54542 0.468018 6.56677 0.454975C6.57681 0.448758 6.58699 0.442834 6.59727 0.437145C6.61374 0.42808 6.63074 0.419399 6.64807 0.411297C6.66224 0.404651 6.67665 0.398416 6.6912 0.392607C6.70767 0.386015 6.72415 0.380021 6.74087 0.374541C6.75328 0.370526 6.7661 0.366667 6.77899 0.363123C6.79695 0.358113 6.81503 0.353785 6.83332 0.350056C6.84784 0.34717 6.86236 0.344609 6.87693 0.342433C6.89274 0.340012 6.90911 0.338057 6.92562 0.336584C6.94593 0.334807 6.96563 0.333751 6.98535 0.333392C6.98999 0.333302 6.99531 0.333252 7.00065 0.333252Z" fill="#FF5F00"/>
</svg>
