<svg width="14" height="14" viewBox="0 0 14 14" fill="none" xmlns="http://www.w3.org/2000/svg">
<path d="M7.58991 0.57733L13.4232 6.41066C13.447 6.43438 13.4693 6.45953 13.49 6.48596L13.4232 6.41066C13.4527 6.44016 13.4796 6.47131 13.5037 6.50383C13.5186 6.52398 13.5326 6.54469 13.5456 6.56604C13.5518 6.57607 13.5577 6.58626 13.5634 6.59653C13.5725 6.61301 13.5812 6.63001 13.5893 6.64734C13.5959 6.6615 13.6022 6.67592 13.608 6.69047C13.6146 6.70694 13.6205 6.72342 13.626 6.74014C13.63 6.75254 13.6339 6.76537 13.6374 6.77826C13.6425 6.79622 13.6468 6.8143 13.6505 6.83259C13.6534 6.84711 13.656 6.86163 13.6581 6.8762C13.6607 6.89282 13.6627 6.91001 13.6642 6.92736C13.6655 6.94303 13.6664 6.95803 13.6669 6.97304C13.6672 6.98141 13.6673 6.99065 13.6673 6.99992L13.6669 7.02762C13.6664 7.04208 13.6655 7.05652 13.6643 7.07094L13.6673 6.99992C13.6673 7.0421 13.6642 7.08355 13.6581 7.12405C13.656 7.13821 13.6534 7.15273 13.6505 7.16719C13.6468 7.18554 13.6425 7.20362 13.6376 7.22145C13.6339 7.23447 13.63 7.24729 13.6259 7.26004C13.6205 7.27642 13.6146 7.2929 13.6081 7.30913C13.6022 7.32392 13.5959 7.33833 13.5893 7.3526C13.5812 7.36983 13.5725 7.38683 13.5633 7.40348C13.5577 7.41358 13.5518 7.42376 13.5457 7.43384C13.5326 7.45515 13.5186 7.47586 13.5037 7.49588C13.4992 7.50209 13.4946 7.50812 13.4899 7.5141C13.4881 7.5163 13.4862 7.51872 13.4842 7.52113L13.4232 7.58917L7.58991 13.4225C7.26447 13.7479 6.73683 13.7479 6.4114 13.4225C6.08596 13.0971 6.08596 12.5694 6.4114 12.244L10.8215 7.83325H1.16732C0.70708 7.83325 0.333984 7.46016 0.333984 6.99992C0.333984 6.53968 0.70708 6.16659 1.16732 6.16659H10.8215L6.4114 1.75584C6.08596 1.4304 6.08596 0.902767 6.4114 0.57733C6.73683 0.251893 7.26447 0.251893 7.58991 0.57733Z" fill="#212F5C"/>
</svg>
