<svg width="118" height="104" viewBox="0 0 118 104" fill="none" xmlns="http://www.w3.org/2000/svg">
<path fill-rule="evenodd" clip-rule="evenodd" d="M7.61089 101.333C10.1803 102.875 12.7498 103.389 15.3192 103.389H102.68C106.791 103.389 110.389 101.847 112.958 98.7639C116.041 96.1945 117.583 92.0833 117.583 87.9722C117.583 85.4028 117.069 82.8333 115.528 80.2639L72.3609 7.80556C69.7914 4.20834 66.7081 1.6389 62.597 0.611118C58.4859 -0.41666 54.3748 0.097229 50.7776 2.15278C48.722 3.18056 46.6664 5.23612 45.6387 7.29167L1.95811 80.2639C-2.153 87.4583 0.416448 97.2222 7.61089 101.333ZM11.2081 85.4028L54.3748 12.9445C54.8887 11.9167 55.4026 11.4028 56.4303 10.8889C58.9998 9.86112 62.0831 10.375 63.6248 12.9445L106.791 85.4028C107.305 86.4306 107.305 86.9445 107.305 87.9722C107.305 89.5139 106.791 90.5417 105.764 91.5695C104.736 92.5972 103.708 93.1111 102.166 93.1111H15.3192C14.8053 93.1111 13.7776 93.1111 13.2637 92.5972C10.6942 91.0556 9.66645 87.9722 11.2081 85.4028ZM64.1387 57.1389V36.5833C64.1387 33.5 62.0831 31.4445 58.9998 31.4445C55.9164 31.4445 53.8609 33.5 53.8609 36.5833V57.1389C53.8609 60.2222 55.9164 62.2778 58.9998 62.2778C62.0831 62.2778 64.1387 60.2222 64.1387 57.1389ZM64.1387 77.6945C64.1387 79.2361 63.6248 80.2639 62.597 81.2917C61.5692 82.3195 60.5415 82.8333 58.4859 82.8333C56.9442 82.8333 55.9164 82.3195 54.8887 81.2917C53.8609 80.2639 53.347 79.2361 53.347 77.6945C53.347 77.0924 53.5233 76.6667 53.6694 76.314C53.7727 76.0646 53.8609 75.8518 53.8609 75.6389C53.8609 75.125 54.3748 74.6111 54.8887 74.0972L54.8887 74.0972C55.4026 73.5833 55.9165 73.0695 56.4303 73.0695C57.4581 72.5556 58.4859 72.5556 59.5137 72.5556C59.8092 72.8511 59.9348 72.9767 60.0858 73.03C60.1975 73.0695 60.3231 73.0695 60.5414 73.0695C60.7984 73.0695 60.9269 73.1979 61.0553 73.3264C61.1838 73.4549 61.3123 73.5833 61.5692 73.5833C62.0831 73.5833 62.597 74.0972 62.597 74.0972C63.1109 74.6111 63.6248 75.125 63.6248 75.6389C64.1387 76.1528 64.1387 77.1806 64.1387 77.6945Z" fill="#212F5C"/>
</svg>
