<svg width="46" height="46" viewBox="0 0 46 46" fill="none" xmlns="http://www.w3.org/2000/svg">
<path d="M44.3141 40.5476L43.0323 40.2273V32.7964C43.0323 30.2285 41.1153 28.0182 38.5732 27.6551L33.8699 26.9831C33.4058 25.9486 32.3667 25.2259 31.1613 25.2259H29.6775C29.6775 24.4077 29.0117 23.742 28.1936 23.742H26.3878L23.8814 19.5645C22.6816 17.5649 20.4876 16.3226 18.1555 16.3226H16.0393L15.7953 15.8347L15.8991 15.7655C17.0934 14.9692 17.8064 13.6369 17.8064 12.2014C17.8064 11.3529 17.5575 10.5312 17.087 9.82531L15.9256 8.08315C16.1792 7.59754 16.3225 7.04761 16.3225 6.46811C16.3225 4.53809 14.7523 2.96771 12.8221 2.96771H11.1903C8.4251 2.96771 6.0587 4.80565 5.34103 7.41929H5.19342C4.1329 7.41929 3.24381 8.16499 3.02163 9.15956L2.73502 9.30287C1.04812 10.1465 0 11.8423 0 13.7285C0 14.0159 0.0253359 14.3053 0.0752891 14.5884L4.20334 37.9807C4.40657 39.1319 5.152 40.1313 6.1976 40.654L10.3871 42.7488V44.5161C10.3871 45.3343 11.0528 46 11.871 46H43.7742C45.0016 46 46 45.0016 46 43.7742V42.7069C46 41.6837 45.3067 40.7958 44.3141 40.5476ZM41.5484 32.7963V40.0645H38.5807V37.8387C38.5807 35.3914 37.2564 33.2486 35.2877 32.0859C35.4907 31.8321 35.613 31.5108 35.613 31.1612V29.6774C35.613 29.2906 35.4631 28.9392 35.2198 28.6748L38.3634 29.1238C40.1791 29.3833 41.5484 30.9621 41.5484 32.7963ZM17.8065 32.6452H28.1936V36.3548C28.1936 37.5822 27.1952 38.5806 25.9678 38.5806H20.0323C18.8049 38.5806 17.8065 37.5822 17.8065 36.3548V32.6452ZM14.8387 31.1613V29.6775H34.129V31.1613H14.8387ZM31.1613 26.7096C31.9795 26.7096 32.6452 27.3754 32.6452 28.1935H29.6775V26.7096H31.1613ZM22.609 20.328L24.6573 23.7419H21.9132L19.1657 19.6207L17.9311 20.4438L20.5615 24.3892L19.5076 25.4431L20.5568 26.4923L21.8234 25.2259H28.1936V28.1936H18.979L13.8532 19.2235C14.7268 19.0508 15.4961 18.5466 16.0027 17.8065H18.1555C19.9693 17.8065 21.6757 18.7727 22.609 20.328ZM15.076 14.5308L13.8822 15.3266L14.7334 17.0289C14.371 17.5149 13.8022 17.8064 13.1798 17.8064H13.0436L10.3872 13.1577V11.6101C10.3872 10.8633 10.9459 10.2302 11.687 10.1376L13.2564 9.94147C13.8826 9.86322 14.453 9.62073 14.928 9.26172L15.8526 10.6485C16.1602 11.1098 16.3228 11.6469 16.3228 12.2015C16.3225 13.1396 15.8565 14.0104 15.076 14.5308ZM11.1904 4.45157H12.8222C13.9341 4.45157 14.8387 5.35621 14.8387 6.46802C14.8387 7.48281 14.0793 8.34306 13.0724 8.46894L11.5029 8.66515C10.3084 8.81447 9.35103 9.6661 9.02436 10.7729L7.74884 8.5409C7.52864 8.15556 7.20107 7.8518 6.81671 7.65809C7.40834 5.76697 9.15697 4.45157 11.1904 4.45157ZM5.19351 8.90324H5.8163C6.08179 8.90324 6.32868 9.04654 6.46048 9.27708L17.2699 28.1936H14.54L4.4682 9.48884C4.54016 9.15453 4.83809 8.90324 5.19351 8.90324ZM11.3041 41.5484L6.86119 39.3268C6.2339 39.0132 5.78657 38.4135 5.66465 37.7229L1.53651 14.3306C1.50156 14.1323 1.48386 13.9298 1.48386 13.7286C1.48386 12.4085 2.21716 11.2216 3.39771 10.6308L13.3548 29.1227V31.1614C13.3548 31.9796 14.0206 32.6453 14.8387 32.6453H16.3225V36.3549C16.3225 38.4004 17.9867 40.0646 20.0322 40.0646H25.9677C28.0132 40.0646 29.6774 38.4004 29.6774 36.3549V32.6453H31.9032C34.7668 32.6453 37.0967 34.9751 37.0967 37.8388V41.5484H11.3041ZM11.871 43.0323H37.0968V44.5161H11.871V43.0323ZM44.5161 43.7742C44.5161 44.1833 44.1833 44.5161 43.7742 44.5161H38.5807V41.5484H42.1991L43.9542 41.9872C44.2851 42.07 44.5161 42.3659 44.5161 42.7069V43.7742Z" fill="black"/>
<path d="M25.2257 35.6129H20.7742V37.0968H25.2257V35.6129Z" fill="black"/>
<path d="M28.1936 19.2904H41.5484C42.3666 19.2904 43.0323 18.6246 43.0323 17.8065V1.48386C43.0323 0.665742 42.3666 0 41.5485 0H28.1936C27.3755 0 26.7097 0.665742 26.7097 1.48386V17.8064C26.7097 18.6246 27.3755 19.2904 28.1936 19.2904ZM28.1936 1.48386H41.5484L41.5493 17.8064C41.5493 17.8064 41.549 17.8064 41.5484 17.8064H28.1936V1.48386Z" fill="black"/>
<path d="M29.6775 16.3225H40.0646V2.96771H29.6775V16.3225ZM31.1613 4.45157H38.5807V14.8387H31.1613V4.45157Z" fill="black"/>
<path d="M46 0H44.5161V25.2258H46V0Z" fill="black"/>
</svg>
