<svg width="46" height="44" viewBox="0 0 46 44" fill="none" xmlns="http://www.w3.org/2000/svg">
<path d="M44.3141 38.5477L43.0323 38.2273V30.7964C43.0323 28.2285 41.1153 26.0183 38.5732 25.6551L33.8699 24.9832C33.4058 23.9486 32.3667 23.2259 31.1613 23.2259H29.6775C29.6775 22.4077 29.0117 21.7421 28.1936 21.7421H26.3878L23.8814 17.5646C22.6816 15.565 20.4876 14.3227 18.1555 14.3227H16.0393L15.7953 13.8347L15.8991 13.7656C17.0934 12.9693 17.8064 11.637 17.8064 10.2015C17.8064 9.35298 17.5575 8.53127 17.087 7.82537L15.9256 6.08321C16.1792 5.5976 16.3225 5.04767 16.3225 4.46818C16.3225 2.53815 14.7523 0.967773 12.8221 0.967773H11.1903C8.4251 0.967773 6.0587 2.80571 5.34103 5.41935H5.19342C4.1329 5.41935 3.24381 6.16505 3.02163 7.15963L2.73502 7.30293C1.04812 8.14656 0 9.84236 0 11.7285C0 12.0159 0.0253359 12.3053 0.0752891 12.5884L4.20334 35.9808C4.40657 37.1319 5.152 38.1314 6.1976 38.6541L10.3871 40.7489V42.5162C10.3871 43.3344 11.0528 44.0001 11.871 44.0001H43.7742C45.0016 44.0001 46 43.0016 46 41.7743V40.707C46 39.6838 45.3067 38.7959 44.3141 38.5477ZM41.5484 30.7963V38.0645H38.5807V35.8387C38.5807 33.3915 37.2564 31.2486 35.2877 30.086C35.4907 29.8321 35.613 29.5109 35.613 29.1613V27.6774C35.613 27.2906 35.4631 26.9393 35.2198 26.6749L38.3634 27.1239C40.1791 27.3834 41.5484 28.9622 41.5484 30.7963ZM17.8065 30.6452H28.1936V34.3549C28.1936 35.5822 27.1952 36.5807 25.9678 36.5807H20.0323C18.8049 36.5807 17.8065 35.5822 17.8065 34.3549V30.6452ZM14.8387 29.1614V27.6775H34.129V29.1614H14.8387ZM31.1613 24.7097C31.9795 24.7097 32.6452 25.3754 32.6452 26.1936H29.6775V24.7097H31.1613ZM22.609 18.328L24.6573 21.742H21.9132L19.1657 17.6208L17.9311 18.4438L20.5615 22.3893L19.5076 23.4432L20.5568 24.4924L21.8234 23.2259H28.1936V26.1937H18.979L13.8532 17.2236C14.7268 17.0509 15.4961 16.5467 16.0027 15.8065H18.1555C19.9693 15.8065 21.6757 16.7727 22.609 18.328ZM15.076 12.5308L13.8822 13.3267L14.7334 15.0289C14.371 15.515 13.8022 15.8065 13.1798 15.8065H13.0436L10.3872 11.1578V9.61011C10.3872 8.86333 10.9459 8.23029 11.687 8.13766L13.2564 7.94154C13.8826 7.86328 14.453 7.62079 14.928 7.26178L15.8526 8.64852C16.1602 9.10986 16.3228 9.64695 16.3228 10.2016C16.3225 11.1396 15.8565 12.0105 15.076 12.5308ZM11.1904 2.45163H12.8222C13.9341 2.45163 14.8387 3.35627 14.8387 4.46809C14.8387 5.48287 14.0793 6.34312 13.0724 6.469L11.5029 6.66521C10.3084 6.81453 9.35103 7.66616 9.02436 8.77295L7.74884 6.54096C7.52864 6.15562 7.20107 5.85186 6.81671 5.65816C7.40834 3.76704 9.15697 2.45163 11.1904 2.45163ZM5.19351 6.9033H5.8163C6.08179 6.9033 6.32868 7.0466 6.46048 7.27714L17.2699 26.1937H14.54L4.4682 7.4889C4.54016 7.15459 4.83809 6.9033 5.19351 6.9033ZM11.3041 39.5485L6.86119 37.3269C6.2339 37.0133 5.78657 36.4136 5.66465 35.7229L1.53651 12.3307C1.50156 12.1324 1.48386 11.9299 1.48386 11.7286C1.48386 10.4086 2.21716 9.22163 3.39771 8.63091L13.3548 27.1227V29.1615C13.3548 29.9797 14.0206 30.6453 14.8387 30.6453H16.3225V34.355C16.3225 36.4004 17.9867 38.0646 20.0322 38.0646H25.9677C28.0132 38.0646 29.6774 36.4004 29.6774 34.355V30.6453H31.9032C34.7668 30.6453 37.0967 32.9751 37.0967 35.8388V39.5485H11.3041ZM11.871 41.0323H37.0968V42.5162H11.871V41.0323ZM44.5161 41.7743C44.5161 42.1833 44.1833 42.5162 43.7742 42.5162H38.5807V39.5485H42.1991L43.9542 39.9873C44.2851 40.07 44.5161 40.366 44.5161 40.707V41.7743Z" fill="black"/>
</svg>
