<svg width="21" height="21" viewBox="0 0 21 21" fill="none" xmlns="http://www.w3.org/2000/svg">
<g clip-path="url(#clip0_615_487)">
<path d="M9.09464 14.0649H8.47438C8.01182 14.0637 7.55581 13.9554 7.14208 13.7485C6.63038 13.4943 6.06681 13.3619 5.49542 13.3617H2.47146C2.14705 13.362 1.82712 13.4376 1.53685 13.5825L1.45844 13.6215C0.425896 14.1376 0.00715673 15.3929 0.523164 16.4254C0.87738 17.1342 1.60186 17.5817 2.39411 17.5812H9.09464C10.0651 17.58 10.8516 16.7935 10.8528 15.8231C10.8516 14.8526 10.0652 14.0661 9.09464 14.0649ZM9.09464 16.8779H2.39411C1.62858 16.877 1.00827 16.2567 1.00731 15.4911C1.00542 14.9652 1.30289 14.484 1.7742 14.2506L1.85226 14.2116C2.04495 14.1155 2.25724 14.0653 2.47252 14.0649H5.49648C5.95904 14.0662 6.41505 14.1745 6.82878 14.3814C7.34017 14.6354 7.90338 14.7678 8.47438 14.7682H9.09464C9.67724 14.7682 10.1495 15.2405 10.1495 15.8231C10.1495 16.4057 9.67724 16.8779 9.09464 16.8779Z" fill="black"/>
<path d="M20.3196 3.72023L20.2472 3.64744C19.7408 3.14291 18.9217 3.14291 18.4152 3.64744L17.9933 4.07115C17.4879 4.57683 17.4879 5.39638 17.9933 5.90205L18.0657 5.97484C18.572 6.47977 19.3914 6.47977 19.8977 5.97484L20.3196 5.55113C20.8242 5.04515 20.8242 4.22622 20.3196 3.72023ZM19.8217 5.05394L19.3998 5.47589C19.1684 5.7062 18.7943 5.7062 18.5629 5.47589L18.4905 5.4031C18.2594 5.17186 18.2594 4.79712 18.4905 4.56588L18.9124 4.14394C19.1439 3.91384 19.5178 3.91384 19.7493 4.14394L19.8217 4.21672C20.0525 4.44809 20.0525 4.82257 19.8217 5.05394Z" fill="black"/>
<path d="M17.4169 6.57889C16.7941 5.95612 15.7844 5.95612 15.1616 6.57889L14.3799 7.3602C11.7386 7.43769 9.63193 9.59125 9.61264 12.2337C9.61053 12.2487 9.60947 12.2639 9.60947 12.2791C9.60182 13.0126 10.0449 13.6758 10.7255 13.9496C10.9485 14.0422 11.1874 14.09 11.4288 14.0903C11.9051 14.0885 12.361 13.8961 12.6946 13.5562L17.4169 8.83421C18.0397 8.21144 18.0397 7.20166 17.4169 6.57889ZM16.9208 8.33842L12.1985 13.0604C11.7673 13.4918 11.068 13.492 10.6366 13.0608C10.438 12.8624 10.3225 12.5958 10.3134 12.3153C10.3148 12.3023 10.3155 12.2893 10.3155 12.2762C10.3132 9.95131 12.196 8.06472 14.5209 8.06239C14.5238 8.06239 14.5266 8.06239 14.5294 8.06239C14.6225 8.06226 14.7118 8.02521 14.7776 7.95937L15.6599 7.0775C16.0129 6.7413 16.5677 6.7413 16.9208 7.0775C17.2677 7.42617 17.2677 7.98974 16.9208 8.33842Z" fill="black"/>
<path d="M11.667 0H11.5654C10.8503 0.000791152 10.2708 0.580266 10.27 1.29538V1.89314C10.2702 2.60865 10.8499 3.18878 11.5654 3.18958H11.667C12.382 3.189 12.9616 2.60957 12.9624 1.89455V1.29679C12.9626 0.581057 12.3827 0.000571388 11.667 0ZM12.2592 1.89314C12.2588 2.21993 11.9938 2.48475 11.667 2.48492H11.5654C11.2387 2.48453 10.9738 2.21989 10.9733 1.89314V1.29538C10.9737 0.968503 11.2385 0.703642 11.5654 0.703247H11.667C11.994 0.703422 12.259 0.968415 12.2592 1.29538V1.89314Z" fill="black"/>
<path d="M11.7431 3.98285C10.8623 3.96975 10.1377 4.67317 10.1246 5.55394C10.1244 5.56972 10.1244 5.58555 10.1246 5.60132V6.70577C9.26254 7.61599 8.78315 8.82272 8.78565 10.0764H9.4889C9.48666 8.9581 9.93181 7.88534 10.7252 7.09713C10.7908 7.03098 10.8277 6.94167 10.8279 6.84853V5.60132C10.8181 5.10892 11.2093 4.70187 11.7017 4.69207C12.1941 4.68227 12.6012 5.07349 12.611 5.5659C12.6112 5.57772 12.6112 5.5895 12.611 5.60132V6.68081H13.3142V5.60132C13.3273 4.72055 12.6239 3.99594 11.7431 3.98285Z" fill="black"/>
<path d="M7.68803 19.3393H5.37224L5.82689 18.8846L5.32969 18.3875L4.27482 19.4423C4.13756 19.5796 4.13756 19.8022 4.27482 19.9395L5.33532 21L5.83252 20.5028L5.37224 20.0425H7.68803V19.3393Z" fill="black"/>
<path d="M18.1335 19.4423L17.0787 18.3875L16.5815 18.8846L17.0361 19.3393H14.0171V20.0425H17.0361L16.5815 20.4972L17.0787 20.9944L18.1335 19.9395C18.2708 19.8022 18.2708 19.5796 18.1335 19.4423Z" fill="black"/>
</g>
<defs>
<clipPath id="clip0_615_487">
<rect width="21" height="21" fill="white"/>
</clipPath>
</defs>
</svg>
