<svg width="20" height="20" viewBox="0 0 20 20" fill="none" xmlns="http://www.w3.org/2000/svg">
<path d="M0.0265101 1.2846C0.02443 1.28229 0.0283128 1.28694 0.0265101 1.2846V1.2846Z" fill="black"/>
<path d="M18.835 14.4435C18.1702 13.8737 17.3358 13.6201 16.4861 13.729L7.40953 14.8928L7.05128 11.4989C6.88506 9.62405 6.43847 7.78741 5.72385 6.0399L5.40351 5.25658C5.15167 4.64072 4.67225 4.16119 4.08079 3.89553C4.34139 3.33025 4.37926 2.69041 4.17764 2.09267C4.17572 2.08693 4.1736 2.08123 4.17129 2.0756C3.66684 0.842086 2.46257 0.0274755 1.10318 0.000209822C0.770486 -0.00619644 0.456662 0.134351 0.245127 0.386577C0.033552 0.638843 -0.0462636 0.966109 0.0260742 1.28451L3.03971 14.1309C3.07586 14.2894 3.23665 14.3894 3.3992 14.3541C3.56155 14.3188 3.66388 14.1616 3.62777 14.003L1.56708 4.95943C1.5263 4.77998 1.57132 4.59553 1.69056 4.45334C1.80985 4.31115 1.98639 4.23264 2.17422 4.23553L3.03755 4.25283C3.21582 4.25639 3.38948 4.28311 3.55515 4.33029C3.56327 4.33307 3.57147 4.33557 3.57971 4.33764C4.14685 4.50693 4.61651 4.91834 4.84408 5.47483L5.16442 6.25815C5.85741 7.95276 6.2904 9.73386 6.45135 11.552C6.45147 11.5536 6.45163 11.5552 6.45179 11.5568L6.81196 14.9694L6.23993 15.0427C5.85289 14.5345 5.18298 14.2663 4.51042 14.4128C3.59898 14.6114 3.02248 15.4975 3.22538 16.3879C3.22578 16.3895 3.22617 16.3912 3.22653 16.3928L3.96411 19.3866C4.05304 19.7478 4.38074 20 4.76099 20H16.3382C17.193 20 17.8894 19.3262 17.9008 18.4937H18.6041C19.3738 18.4937 20 17.8369 20 17.0296C20.0001 16.0207 19.5754 15.078 18.835 14.4435ZM3.50393 3.71295C3.3561 3.68428 3.20438 3.66764 3.04999 3.66455L2.18665 3.64725C1.86031 3.6401 1.54981 3.76072 1.31836 3.98068L0.613574 1.15435C0.582544 1.01427 0.618013 0.870484 0.711065 0.759547C0.804676 0.647906 0.944233 0.586226 1.09083 0.588531C2.20469 0.610914 3.19183 1.27658 3.60838 2.28529C3.76605 2.76021 3.7269 3.26959 3.50393 3.71295ZM4.76102 19.4116C4.66022 19.4116 4.5734 19.3447 4.54985 19.249L3.81292 16.2578C3.68367 15.6847 4.055 15.115 4.64162 14.9872C5.22908 14.8591 5.81406 15.2219 5.94582 15.7987L6.80596 19.4116H4.76102ZM18.6042 17.9053H15.2072C15.0408 17.9053 14.906 18.037 14.906 18.1995C14.906 18.362 15.0408 18.4937 15.2072 18.4937H17.2985C17.2871 19.0017 16.8609 19.4116 16.3382 19.4116H7.42441L7.20592 18.4937H13.8057C13.972 18.4937 14.1069 18.362 14.1069 18.1995C14.1069 18.037 13.972 17.9053 13.8057 17.9053H7.0658L6.53312 15.6679C6.52796 15.6453 6.52205 15.623 6.51597 15.6009L16.5645 14.3125C17.2399 14.2258 17.9052 14.4295 18.4376 14.8858C19.0477 15.4087 19.3977 16.1901 19.3977 17.0296C19.3977 17.5125 19.0417 17.9053 18.6042 17.9053Z" fill="black"/>
</svg>
