<svg width="20" height="20" viewBox="0 0 20 20" fill="none" xmlns="http://www.w3.org/2000/svg">
<path d="M19.267 17.6294L18.7097 17.4901V14.2593C18.7097 13.1428 17.8762 12.1818 16.7709 12.0239L14.7261 11.7318C14.5243 11.282 14.0725 10.9677 13.5484 10.9677H12.9032C12.9032 10.612 12.6138 10.3226 12.2581 10.3226H11.473L10.3832 8.5063C9.86156 7.63688 8.90766 7.09677 7.89371 7.09677H6.97359L6.86754 6.88462L6.91266 6.85454C7.43191 6.50833 7.74191 5.92907 7.74191 5.30493C7.74191 4.93603 7.63371 4.57876 7.42914 4.27185L6.92418 3.51438C7.03441 3.30325 7.09676 3.06415 7.09676 2.8122C7.09676 1.97306 6.41402 1.29028 5.57484 1.29028H4.86535C3.66309 1.29028 2.63422 2.08938 2.32219 3.22575H2.25801C1.79691 3.22575 1.41035 3.54997 1.31375 3.98239L1.18914 4.0447C0.455703 4.41149 0 5.1488 0 5.96888C0 6.09384 0.0110156 6.21966 0.0327344 6.34274L1.82754 16.5133C1.9159 17.0138 2.24 17.4484 2.69461 17.6756L4.51613 18.5864V19.3548C4.51613 19.7106 4.80559 20 5.16129 20H19.0323C19.5659 20 20 19.5659 20 19.0322V18.5682C20 18.1233 19.6986 17.7373 19.267 17.6294ZM18.0645 14.2592V17.4193H16.7742V16.4516C16.7742 15.3875 16.1984 14.4559 15.3425 13.9504C15.4307 13.84 15.4839 13.7003 15.4839 13.5483V12.9032C15.4839 12.735 15.4187 12.5822 15.313 12.4673L16.6797 12.6625C17.4692 12.7753 18.0645 13.4618 18.0645 14.2592ZM7.74195 14.1935H12.2581V15.8064C12.2581 16.34 11.824 16.7741 11.2904 16.7741H8.70969C8.17605 16.7741 7.74195 16.34 7.74195 15.8064V14.1935ZM6.4516 13.5484V12.9032H14.8387V13.5484H6.4516ZM13.5484 11.6129C13.9041 11.6129 14.1936 11.9023 14.1936 12.258H12.9032V11.6129H13.5484ZM9.83 8.83821L10.7206 10.3225H9.5275L8.33293 8.53071L7.79613 8.88856L8.93977 10.604L8.48156 11.0622L8.93773 11.5184L9.48844 10.9677H12.2581V12.2581H8.25172L6.02313 8.35802C6.40297 8.28294 6.73742 8.06372 6.9577 7.74192H7.89371C8.6823 7.74192 9.42422 8.162 9.83 8.83821ZM6.55477 6.31771L6.03574 6.66372L6.40582 7.40384C6.24824 7.61517 6.00094 7.74188 5.73035 7.74188H5.67113L4.51617 5.72071V5.04782C4.51617 4.72313 4.7591 4.4479 5.08129 4.40763L5.76367 4.32235C6.0359 4.28833 6.28391 4.1829 6.49043 4.02681L6.89242 4.62974C7.02617 4.83032 7.09687 5.06384 7.09687 5.30497C7.09676 5.71282 6.89414 6.09145 6.55477 6.31771ZM4.86539 1.93544H5.57488C6.05832 1.93544 6.4516 2.32876 6.4516 2.81216C6.4516 3.25337 6.12145 3.62739 5.68363 3.68212L5.00125 3.76743C4.48191 3.83235 4.06566 4.20263 3.92363 4.68384L3.36906 3.71341C3.27332 3.54587 3.1309 3.4138 2.96379 3.32958C3.22102 2.50735 3.98129 1.93544 4.86539 1.93544ZM2.25805 3.87095H2.52883C2.64426 3.87095 2.7516 3.93325 2.80891 4.03349L7.50867 12.2581H6.32172L1.9427 4.12556C1.97398 3.9802 2.10352 3.87095 2.25805 3.87095ZM4.91484 18.0645L2.98312 17.0986C2.71039 16.9622 2.5159 16.7015 2.46289 16.4012L0.668047 6.23067C0.652852 6.14446 0.645156 6.05642 0.645156 5.96892C0.645156 5.39497 0.963984 4.87892 1.47727 4.62208L5.80645 12.662V13.5484C5.80645 13.9042 6.0959 14.1936 6.4516 14.1936H7.09676V15.8065C7.09676 16.6958 7.82031 17.4193 8.70965 17.4193H11.2903C12.1796 17.4193 12.9032 16.6958 12.9032 15.8065V14.1936H13.8709C15.116 14.1936 16.129 15.2065 16.129 16.4516V18.0645H4.91484ZM5.16129 18.7097H16.129V19.3548H5.16129V18.7097ZM19.3548 19.0322C19.3548 19.2101 19.2101 19.3548 19.0323 19.3548H16.7742V18.0645H18.3474L19.1105 18.2553C19.2544 18.2913 19.3548 18.4199 19.3548 18.5682V19.0322Z" fill="black"/>
<path d="M10.9677 15.4839H9.03223V16.129H10.9677V15.4839Z" fill="black"/>
<path d="M12.2579 8.38711H18.0644C18.4201 8.38711 18.7096 8.09766 18.7096 7.74195V0.645156C18.7096 0.289453 18.4201 0 18.0644 0H12.2579C11.9022 0 11.6128 0.289453 11.6128 0.645156V7.74191C11.6128 8.09766 11.9022 8.38711 12.2579 8.38711ZM12.2579 0.645156H18.0644L18.0648 7.74191C18.0648 7.74191 18.0647 7.74191 18.0644 7.74191H12.2579V0.645156Z" fill="black"/>
<path d="M12.9033 7.09673H17.4195V1.29028H12.9033V7.09673ZM13.5485 1.93544H16.7743V6.45157H13.5485V1.93544Z" fill="black"/>
<path d="M19.9999 0H19.3547V10.9677H19.9999V0Z" fill="black"/>
</svg>
