<svg width="18" height="18" viewBox="0 0 18 18" fill="none" xmlns="http://www.w3.org/2000/svg">
<path d="M6 17.1959V15.0464H1.615C1.155 15.0464 0.771 14.8809 0.463 14.5499C0.154333 14.2181 0 13.8051 0 13.3107V1.73571C0 1.24133 0.154333 0.828626 0.463 0.497606C0.771 0.165868 1.155 0 1.615 0H16.385C16.845 0 17.229 0.165868 17.537 0.497606C17.8457 0.828626 18 1.24133 18 1.73571V13.3107C18 13.8051 17.846 14.2178 17.538 14.5488C17.2293 14.8805 16.845 15.0464 16.385 15.0464H12V17.1959H6ZM1.615 13.9717H16.385C16.5383 13.9717 16.6793 13.9029 16.808 13.7653C16.936 13.627 17 13.4755 17 13.3107V1.73571C17 1.57091 16.936 1.41938 16.808 1.28109C16.6793 1.14353 16.5383 1.07474 16.385 1.07474H1.615C1.46167 1.07474 1.32067 1.14353 1.192 1.28109C1.064 1.41938 1 1.57091 1 1.73571V13.3107C1 13.4755 1.064 13.627 1.192 13.7653C1.32067 13.9029 1.46167 13.9717 1.615 13.9717Z" fill="black"/>
</svg>
