<svg width="20" height="20" viewBox="0 0 20 20" fill="none" xmlns="http://www.w3.org/2000/svg">
<path d="M19.5484 9.73985L15.7984 7.23985C15.7514 7.20844 15.6966 7.19041 15.6401 7.18767C15.5836 7.18493 15.5274 7.19759 15.4775 7.2243C15.4276 7.25101 15.3859 7.29076 15.3569 7.33932C15.3278 7.38788 15.3125 7.44341 15.3125 7.5V9.6875H5.3125V5.625C5.3125 5.54212 5.34542 5.46264 5.40403 5.40403C5.46263 5.34543 5.54212 5.3125 5.625 5.3125H8.46016C8.53916 5.85988 8.82257 6.35701 9.25333 6.70385C9.6841 7.05069 10.2302 7.22149 10.7819 7.18189C11.3335 7.14228 11.8496 6.89521 12.2264 6.49039C12.6032 6.08557 12.8127 5.55305 12.8127 5C12.8127 4.44696 12.6032 3.91444 12.2264 3.50962C11.8496 3.1048 11.3335 2.85772 10.7819 2.81812C10.2302 2.77852 9.6841 2.94932 9.25333 3.29616C8.82257 3.643 8.53916 4.14013 8.46016 4.6875H5.625C5.37636 4.6875 5.1379 4.78628 4.96209 4.96209C4.78627 5.13791 4.6875 5.37636 4.6875 5.625V9.6875H0.625C0.54212 9.6875 0.462634 9.72043 0.404029 9.77903C0.345424 9.83764 0.3125 9.91712 0.3125 10C0.3125 10.0829 0.345424 10.1624 0.404029 10.221C0.462634 10.2796 0.54212 10.3125 0.625 10.3125H4.6875V14.375C4.6875 14.6236 4.78627 14.8621 4.96209 15.0379C5.1379 15.2137 5.37636 15.3125 5.625 15.3125H8.4375V16.25C8.4375 16.4986 8.53627 16.7371 8.71209 16.9129C8.8879 17.0887 9.12636 17.1875 9.375 17.1875H11.875C12.1236 17.1875 12.3621 17.0887 12.5379 16.9129C12.7137 16.7371 12.8125 16.4986 12.8125 16.25V13.75C12.8125 13.5014 12.7137 13.2629 12.5379 13.0871C12.3621 12.9113 12.1236 12.8125 11.875 12.8125H9.375C9.12636 12.8125 8.8879 12.9113 8.71209 13.0871C8.53627 13.2629 8.4375 13.5014 8.4375 13.75V14.6875H5.625C5.54212 14.6875 5.46263 14.6546 5.40403 14.596C5.34542 14.5374 5.3125 14.4579 5.3125 14.375V10.3125H15.3125V12.5C15.3124 12.5566 15.3277 12.6121 15.3568 12.6607C15.3858 12.7093 15.4275 12.749 15.4773 12.7758C15.5273 12.8025 15.5835 12.8152 15.6401 12.8124C15.6966 12.8097 15.7514 12.7916 15.7984 12.7602L19.5484 10.2602C19.5913 10.2316 19.6265 10.193 19.6508 10.1476C19.6751 10.1022 19.6878 10.0515 19.6878 10C19.6878 9.94851 19.6751 9.89782 19.6508 9.85244C19.6265 9.80705 19.5913 9.76837 19.5484 9.73985ZM10.625 3.4375C10.934 3.4375 11.2361 3.52914 11.4931 3.70083C11.75 3.87252 11.9503 4.11655 12.0686 4.40206C12.1868 4.68757 12.2178 5.00174 12.1575 5.30483C12.0972 5.60793 11.9484 5.88634 11.7299 6.10486C11.5113 6.32338 11.2329 6.47219 10.9298 6.53248C10.6267 6.59277 10.3126 6.56183 10.0271 6.44357C9.74155 6.3253 9.49752 6.12503 9.32583 5.86808C9.15414 5.61113 9.0625 5.30904 9.0625 5C9.0625 4.5856 9.22712 4.18817 9.52015 3.89515C9.81317 3.60212 10.2106 3.4375 10.625 3.4375ZM9.0625 13.75C9.0625 13.6671 9.09542 13.5876 9.15403 13.529C9.21263 13.4704 9.29212 13.4375 9.375 13.4375H11.875C11.9579 13.4375 12.0374 13.4704 12.096 13.529C12.1546 13.5876 12.1875 13.6671 12.1875 13.75V16.25C12.1875 16.3329 12.1546 16.4124 12.096 16.471C12.0374 16.5296 11.9579 16.5625 11.875 16.5625H9.375C9.29212 16.5625 9.21263 16.5296 9.15403 16.471C9.09542 16.4124 9.0625 16.3329 9.0625 16.25V13.75ZM15.9375 11.9164V8.0836L18.8117 10L15.9375 11.9164Z" fill="black"/>
</svg>
